<svg width="592" height="564" fill="none" xmlns="http://www.w3.org/2000/svg"><path d="M43.58 255.688h-4.656v11.634h4.657v-11.634z" fill="#28A57E"/><path d="M43.565 255.688h-2.32v11.635h2.32v-11.635z" fill="#21EAC3"/><path d="M25.531 276.637l3.175 27.926H56.1l3.174-27.926H25.531z" fill="#9070E5"/><path d="M24.371 276.637l3.175 27.926h13.697v-27.926H24.37z" fill="#743CC6"/><path d="M64.512 264.986H20.295v11.635h44.217v-11.635z" fill="#8155C6"/><path d="M41.243 264.986H20.295v11.635h20.948v-11.635z" fill="#5C27AF"/><path d="M50.685 241.718c-3.948 0-7.412 1.933-9.443 4.866-2.03-2.933-5.494-4.866-9.442-4.866h-4.53v11.763a4.532 4.532 0 004.529 4.528h18.869a4.532 4.532 0 004.528-4.528v-11.763h-4.512z" fill="#26B28D"/><path d="M34.12 241.718h-4.528v5.108c0 6.171 5.011 11.183 11.183 11.183h2.788v-11.441c-2.015-2.917-5.495-4.85-9.443-4.85z" fill="#4BF9BB"/><path d="M160.584 299.728H7.306a6.34 6.34 0 00-6.349 6.349v167.781a6.352 6.352 0 006.349 6.349h153.278a6.34 6.34 0 006.349-6.349V306.077a6.34 6.34 0 00-6.349-6.349z" fill="url(#paint0_linear_1488_6)"/><path d="M155.65 435.087H10.623v38.674H155.65v-38.674zm0-120.856H10.623v38.674H155.65v-38.674zm0 59.622H10.623v38.674H155.65v-38.674zM41.24 480.207H13.846v9.668H41.24v-9.668zm112.799 0h-27.394v9.668h27.394v-9.668z" fill="#5669EF"/><path d="M155.65 431.864H10.623v38.674H155.65v-38.674z" fill="url(#paint1_linear_1488_6)"/><path d="M155.65 311.008H10.623v38.674H155.65v-38.674z" fill="url(#paint2_linear_1488_6)"/><path d="M155.65 370.63H10.623v38.674H155.65V370.63z" fill="url(#paint3_linear_1488_6)"/><path d="M60.467 329.539a2.414 2.414 0 002.417 2.418h4.141v-4.835h-4.141a2.414 2.414 0 00-2.417 2.417zm44.54-2.417h-4.142v4.835h4.142a2.414 2.414 0 002.417-2.418 2.414 2.414 0 00-2.417-2.417z" fill="#EBF0F3"/><path d="M67.236 332.343c13.294 1.241 20.127 1.241 33.421 0v-4.914c-13.31-1.257-20.126-1.257-33.42 0v4.914z" fill="url(#paint4_linear_1488_6)"/><path d="M60.467 390.773a2.413 2.413 0 002.417 2.417h4.141v-4.834h-4.141a2.414 2.414 0 00-2.417 2.417zm44.54-2.417h-4.142v4.834h4.142a2.414 2.414 0 002.417-2.417 2.414 2.414 0 00-2.417-2.417z" fill="#EBF0F3"/><path d="M67.236 392.642c13.294 1.241 20.127 1.241 33.421 0v-4.915c-13.31-1.257-20.126-1.257-33.42 0v4.915z" fill="url(#paint5_linear_1488_6)"/><path d="M60.467 450.395a2.414 2.414 0 002.417 2.418h4.141v-4.835h-4.141a2.414 2.414 0 00-2.417 2.417zm44.54-2.417h-4.142v4.835h4.142a2.414 2.414 0 002.417-2.418 2.414 2.414 0 00-2.417-2.417z" fill="#EBF0F3"/><path d="M67.236 452.941c13.294 1.241 20.127 1.241 33.421 0v-4.93c-13.31-1.257-20.126-1.257-33.42 0v4.93z" fill="url(#paint6_linear_1488_6)"/><path d="M220.918 530.16c88.551 0 160.335-6.493 160.335-14.502 0-8.01-71.784-14.503-160.335-14.503s-160.336 6.493-160.336 14.503c0 8.009 71.785 14.502 160.336 14.502z" fill="#9AD1ED" fill-opacity=".2"/><path d="M145.989 127.323c7.058-.935 15.099 15.631 16.114 17.726 4.641 9.571 4.786 18.209 4.834 24.171.129 19.417-7.412 21.915-4.834 37.062 2.047 11.989 6.446 20.949 6.446 20.949 2.465 5.011 4.254 7.042 4.834 11.28 1.015 7.283-2.127 16.71-6.446 17.725-8.395 1.966-26.217-26.749-32.228-56.399-6.832-33.743 1.128-71.177 11.28-72.514z" fill="url(#paint7_linear_1488_6)"/><path d="M168.548 483.445c-2.691 1.273-2.723 2.756-8.057 8.057-2.804 2.788-2.917 2.498-3.223 3.223-1.595 3.69 2.772 8.863 11.28 19.337 3.932 4.834 9.668 11.28 9.668 11.28 9.137-.532 18.242-1.66 27.394-1.611 0 0-1.047-5.946-2.384-6.494-1.886-.79-3.787-1.58-5.673-2.369-3.222-1.338-6.445-2.691-9.668-4.029-2.997-3.158-9.636-10.152-9.669-17.725 0-.967.097-1.644 0-3.223-.193-3.03-.257-5.302-1.611-6.446-2.03-1.724-5.688-1.128-8.057 0zm154.694 20.948c-.113 3.852 1.611 9.669 1.611 9.669h1.611c2.998 0 48.859 1.386 50.679 1.434.387.016 2.498-4.657 2.498-4.657l-3.223-4.834c-3.432-4.931-13.584-3.529-24.171-6.446-12.714-3.513-15.147-10.248-20.948-8.057-4.69 1.757-7.912 7.977-8.057 12.891z" fill="#040A46"/><path d="M88.202 514.03c-1.724-.403 24.671-120.002 24.671-120.002a3.228 3.228 0 013.867-2.401 3.228 3.228 0 012.401 3.867c.016 0-29.215 118.939-30.939 118.536zm127.642 0c1.724-.403-24.671-120.002-24.671-120.002a3.228 3.228 0 00-3.867-2.401 3.227 3.227 0 00-2.401 3.867s29.215 118.939 30.939 118.536z" fill="#C6D1E3"/><path d="M117.349 390.89l-.773 1.414 78.153 42.706.773-1.414-78.153-42.706z" fill="#000"/><path d="M186.179 389.27l-78.13 44.343.795 1.401 78.131-44.343-.796-1.401z" fill="#000"/><path d="M84.752 246.567c2.191-6.365 6.236-11.054 6.445-11.28 2.385-2.723 5.366-6.139 8.057-6.445 8.67-.967 23.285 29.505 29.006 64.456 6.687 40.801-4.512 52.403 6.445 62.845 12.07 11.506 29.634 1.209 78.96 11.28 13.648 2.788 22.318 4.625 22.56 8.057.515 7.155-35.532 20.53-70.903 17.726-12.037-.951-56.979-4.045-75.736-35.451-6.64-11.135.467-8.267-8.057-66.068 0 0-3.69-25.074 3.223-45.12z" fill="#7199F4"/><path d="M162.1 331.972c1.015.161 2.562-.645 6.446 1.611 23.849 13.81 38.98 9.54 58.011 27.394.532.5-.032-.016 4.834 4.835 11.457 11.425 15.163 14.809 20.32 21.012a263.392 263.392 0 013.851 4.77c24.445 31.084 78.959 99.908 78.959 99.908 0 .806-.048 4.834-3.222 8.057-3.868 3.916-9.073 3.303-9.669 3.223-55.755-59.461-87.016-88.628-87.016-88.628-8.557-7.976-12.827-11.973-16.114-14.503-29.876-23.075-58.865-36.966-62.845-38.674-21.142-9.088-30.44-9.62-30.617-14.502-.258-7.171 19.369-17.259 37.062-14.503z" fill="url(#paint8_linear_1488_6)"/><path d="M118.593 346.475c-5.511 2.643-6.203 13.278-4.834 20.948 1.225 6.817 5.108 11.361 6.446 12.892 18.241 20.851 64.747 10.667 69.291 9.668 3.867-.838 20.948-4.834 20.948-4.834-27.7 65.004-41.897 98.296-41.897 98.296.161-.193.387-.387.58-.354.887.209-.902 4.769 1.032 6.8 1.708 1.805 5.14.306 8.057 3.223 23.671-35.532 41.59-62.137 53.176-77.348 1.612-2.111 9.443-12.328 12.892-27.394 1.45-6.349 2.9-13.053 0-19.337-2.836-6.14-9.024-10.104-24.171-14.503-27.54-7.993-52.388-8.041-67.68-8.057-18.08-.032-19.288 2.014-27.394 0-1.708-.435-4.109-1.128-6.446 0z" fill="url(#paint9_linear_1488_6)"/><path d="M84.752 246.567c-2.449-.129-7.976 29.038-6.445 64.457 1.53 35.257 2.513 58.284 19.337 72.513 13.197 11.151 30.294 11.731 49.954 12.892 31.18 1.837 56.705-6.092 45.119-6.446-33.517-1.031-67.083-5.817-78.959-12.891-43.54-25.912-24.38-130.283-29.006-130.525z" fill="#C7D7F9"/><path d="M215.277 242.523L320.825 295.7l37.062-53.177h75.737L224.5 137l-9.223 105.523z" fill="url(#paint10_linear_1488_6)"/><path d="M152.434 225.619c3.577-1.789 8.669 9.507 30.617 27.394 10.635 8.669 25.783 19.337 25.783 19.337s3.158-1.563 3.222-1.611c18.242-13.44 39.126-22.931 58.011-35.452a80.825 80.825 0 018.057-16.114c1.999-3.077 3.03-4.673 4.835-6.445 7.702-7.558 20.61-9.604 22.559-6.446 1.257 2.03-1.53 7.042-4.834 9.668-2.385 1.886-4.463 2.095-6.445 4.835-1.338 1.853-2.24 4.334-1.612 4.834 1.176.935 7.058-5.64 8.057-4.834 1.257 1.015-6.719 12.714-6.445 12.891.177.113 3.48-4.641 3.222-4.834-.241-.194-2.836 4.093-8.315 6.832-1.16.58-1.772.693-2.965 1.225-1.095.483-5.494 2.498-11.279 6.446-10.894 7.444-26.379 21.56-40.286 32.228-12.44 9.555-18.773 14.325-24.171 14.503-7.767.257-16.565-5.737-33.84-17.726-8.734-6.059-13.149-9.169-16.114-12.891-10.345-13.037-12.327-31.713-8.057-33.84z" fill="#FCC881"/><path d="M125.039 211.116c-6.8.693-12.891 9.669-12.891 9.669.322-1.644.628-3.594.161-3.771-1.128-.419-8.025 9.104-9.829 19.885-2.192 13.117 4.898 17.902 8.057 40.285.499 3.593.87 6.977 2.127 12.247 1.337 5.624 2.707 8.83 3.529 13.375.628 3.496.741 6.075.789 9.829.258 19.643-5.076 31.713 0 35.451 1.048.774 2.933 1.483 4.835 1.612 3.174.225 5.639-1.177 6.445-1.612 4.335-2.352 5.527-1.144 17.726-4.834 13.793-4.174 20.706-6.252 22.56-9.668 2.819-5.205-1.628-8.879-4.835-24.172-2.949-14.051-4.576-21.141-1.611-29.005 2.965-7.88 9.137-13.504 9.668-25.783.033-.741.081-1.788 0-3.223-.37-7.235-4.544-14.051-12.891-27.394-3.4-5.446-8.057-12.891-8.057-12.891s-1.611-.532-4.834-1.611c0 0-3.046 5.172-6.446 6.445-4.915 1.821-8.009-5.495-14.503-4.834z" fill="url(#paint11_linear_1488_6)"/><path d="M157.266 180.499c-.371 5.431-.564 8.17-1.611 9.669-3.223 4.641-9.105 4.173-12.473 5.978-.886.483-1.595 1.128-2.03 2.079-1.048 2.256.193 4.753 1.724 7.219 1.966 3.158 4.399 6.284 3.11 8.895-1.821 3.706-10.393 4.866-16.114 1.611-5.559-3.158-6.123-9.169-9.668-20.948-6.849-22.769-10.958-20.9-11.28-30.617-.564-16.823 11.296-36.353 24.171-37.063 6.268-.354 11.618 3.836 12.891 4.835.983.773 1.676 1.547 2.014 1.917.806.854 3.771 4.158 6.043 10.974a45.68 45.68 0 011.579 6.204s.017.113.033.242c2.53 15.389 1.611 29.005 1.611 29.005z" fill="#FCC881"/><path d="M147.599 133.768c1.724 2.305-8.927 13.891-14.503 19.337-8.282 8.09-11.054 8.17-12.891 12.892-1.499 3.867-1.047 7.461 4.834 24.171 5.189 14.728 7.783 22.109 11.28 29.005 7.3 14.439 11.796 14.326 14.503 24.172 2.449 8.862 1.257 16.323 0 24.171-3.013 18.853-10.7 26.25-6.446 37.062 1.886 4.786 5.141 7.816 4.834 8.057-.499.403-10.168-6.284-12.891-16.114-3.899-14.051 10.281-20.529 8.057-37.062-1.241-9.25-6.929-16.533-12.891-24.171-6.961-8.912-10.152-9.121-14.503-16.115-5.769-9.281-6.123-18.531-6.445-27.394-.468-12.408-1.273-31.374 11.279-45.119 9.637-10.555 24.123-15.115 25.783-12.892z" fill="url(#paint12_linear_1488_6)"/><path d="M136.317 246.567l51.565 53.177h.016c16.259 2.949 74.109-4.834 74.109-4.834s4.899-4.657 9.669-6.446c4.093-1.531 7.525-1.579 11.28-1.612 1.611-.016 8.782-.016 17.725 3.223 3.851 1.386 6.446 2.063 6.446 3.223 0 .709-.951 1.273-1.612 1.612-6.429 3.238-22.463 3.222-22.559 3.222-6.398 0-8.058 1.37-20.949 4.835-34.339 9.201-78.959 14.502-78.959 14.502l-3.223-1.611c-34.049-17.677-51.549-45.104-51.565-45.152.628-10.055 8.057-24.139 8.057-24.139z" fill="#FCC881"/><path d="M145.987 132.157c.338-4.077-9.685-10.442-19.337-9.668-14.148 1.128-22.785 17.194-27.394 25.782-2.949 5.479-9.024 17.13-8.057 32.229.757 11.86 4.947 11.795 8.057 25.782 5.205 23.414-5.253 29.441 1.611 48.343 3.4 9.378 7.187 11.199 9.669 22.559 2.643 12.054.628 20.24 0 22.56-1.982 7.252-5.237 11.006-4.834 11.28 1.047.693 21.592-15.663 19.337-32.228-1.177-8.605-7.896-12.972-14.503-30.617-1.289-3.448-2.45-7.042-1.612-11.28.903-4.592 3.239-5.318 4.835-11.28 1.369-5.14.064-6.204 1.611-9.668 2.224-4.98 5.914-4.996 8.057-8.057 5.334-7.622-9.781-18.902-9.668-37.063.016-1.321.338-17.274 11.28-27.394 9.33-8.653 20.593-7.074 20.948-11.28z" fill="url(#paint13_linear_1488_6)"/><path d="M107.538 138.732c-8.605 8.331-14.68 18.756-17.34 30.455-3.028 13.343-.192 24.993 3.03 37.949 2.24 9.024 1.805 16.775.677 25.879-.838 6.704-1.176 13.166 1.096 19.627 5.527 15.696 25.219 31.165 14.035 48.891-.419.66.629 1.273 1.048.612 6.22-9.862 2.836-20.674-2.675-30.069-4.303-7.316-9.862-14.116-12.086-22.463-2.32-8.734.403-17.532.935-26.282.886-14.39-6.59-27.539-6.333-41.929.29-15.889 7.106-30.81 18.467-41.816.564-.548-.29-1.402-.854-.854z" fill="url(#paint14_linear_1488_6)"/><path d="M127.664 207.2c8.863 18.145 29.779 33.324 25.622 55.675-.145.757 1.031 1.079 1.16.322 4.238-22.834-16.694-38.062-25.751-56.609-.322-.693-1.369-.081-1.031.612z" fill="url(#paint15_linear_1488_6)"/><path d="M123.977 282.583c2.723-7.348.821-13.875-1.902-20.965-4.254-11.07-5.06-20.642-3.432-32.373 1.869-13.407 4.157-27.555-4.738-39.028-.483-.613-1.321.241-.854.854 10.7 13.809 4.48 30.906 3.4 46.569-.467 6.768.21 12.94 2.482 19.321 3.013 8.46 7.283 16.114 3.883 25.299-.29.742.887 1.048 1.161.323z" fill="url(#paint16_linear_1488_6)"/><path d="M144.375 128.934c.016-.677-1.611-1.611-1.611-1.611s-6.333 1.724-9.669 3.223c-6.252 2.787-9.604 8.121-12.085 12.085-3.948 6.301-4.802 11.618-5.64 16.92-.645 4.093-.467 6.059.806 7.251 1.74 1.628 5.253 1.531 6.445 0 1.048-1.337-.177-3.512-.805-5.64-2.772-9.362 5.382-19.643 6.445-20.948.919-1.128 5.608-6.897 12.892-9.668.241-.097 3.206-.709 3.222-1.612z" fill="#D0D0FC"/><path d="M120.206 177.277c-.306.258 2.063 4.85 6.446 8.057 8.879 6.478 20.948 3.529 20.948 3.223 0-.274-8.863 1.659-17.725-3.223-6.092-3.352-9.347-8.347-9.669-8.057z" fill="#EDEDFC"/><path d="M119.399 182.916c4.45 0 8.057-5.05 8.057-11.279 0-6.23-3.607-11.28-8.057-11.28s-8.057 5.05-8.057 11.28c0 6.229 3.607 11.279 8.057 11.279z" fill="#E4E4F9"/><path d="M119.399 183.319c-4.673 0-8.46-5.237-8.46-11.682 0-6.446 3.787-11.683 8.46-11.683 4.673 0 8.46 5.237 8.46 11.683 0 6.429-3.787 11.682-8.46 11.682zm0-22.559c-4.222 0-7.654 4.882-7.654 10.877 0 5.994 3.432 10.877 7.654 10.877 4.222 0 7.655-4.883 7.655-10.877 0-5.995-3.433-10.877-7.655-10.877z" fill="#01007C"/><path d="M146.003 188.863c.081.886 1.596 1.466 3.368 1.289 1.773-.178 3.142-1.032 3.062-1.918-.081-.886-1.595-1.466-3.368-1.289-1.772.177-3.142 1.031-3.062 1.918z" fill="#9494E0"/><path d="M239.027 130.546H186.56a5.116 5.116 0 00-5.124 5.124v30.504a5.116 5.116 0 005.124 5.124h3.029v12.505c0 .419.129.822.435 1.112.29.274.661.419 1.016.419a1.45 1.45 0 001.031-.419l13.649-13.601h33.291a5.117 5.117 0 005.125-5.124v-30.552c0-2.82-2.289-5.092-5.109-5.092zm.403 38.238h-34.049c-.37 0-.725.146-.983.387l-.048.049-11.635 11.618v-10.716a1.454 1.454 0 00-1.45-1.321h-4.48a2.2 2.2 0 01-2.207-2.208v-30.714a2.2 2.2 0 012.207-2.207h52.661a2.2 2.2 0 012.208 2.207v30.714a2.231 2.231 0 01-2.224 2.191z" fill="#5A8FF9"/><path d="M203.031 141.197h-9.153c-.612 0-1.176.338-1.418.902-.467 1.145.355 2.24 1.434 2.24h9.153c.612 0 1.176-.338 1.418-.902a1.581 1.581 0 00-1.434-2.24zm14.885 8.154h-23.639c-.628 0-1.209.354-1.434.934-.419 1.128.354 2.192 1.353 2.192h23.64c.628 0 1.208-.355 1.434-.935.419-1.128-.354-2.191-1.354-2.191zm14.198-8.154h-21.593c-.613 0-1.177.339-1.418.903-.468 1.144.354 2.24 1.434 2.24h21.593c.612 0 1.176-.339 1.418-.903.467-1.144-.355-2.24-1.434-2.24zm-.53 8.154h-5.688c-.613 0-1.177.338-1.418.902-.468 1.144.354 2.24 1.434 2.24h5.688c.613 0 1.177-.339 1.418-.903.468-1.144-.354-2.239-1.434-2.239zm-23.655 8.782h-14.213c-.612 0-1.176.338-1.418.902-.467 1.145.355 2.24 1.434 2.24h14.213c.612 0 1.176-.338 1.418-.902.467-1.16-.355-2.24-1.434-2.24zm24.043 0h-17.355c-.613 0-1.177.339-1.418.903a1.581 1.581 0 001.434 2.24h17.355c.612 0 1.176-.339 1.418-.903.483-1.16-.355-2.24-1.434-2.24zm89.659-137.47v36.885a6.189 6.189 0 006.188 6.188h40.221l16.484 16.436c.339.339.79.516 1.241.516.435 0 .87-.161 1.241-.5.354-.338.532-.837.532-1.337V63.752h3.658a6.189 6.189 0 006.187-6.188V20.711a6.189 6.189 0 00-6.187-6.188h-63.377c-3.417 0-6.188 2.756-6.188 6.14zm3.029 37.4V20.97a2.662 2.662 0 012.659-2.659h63.603a2.661 2.661 0 012.658 2.66v37.094a2.661 2.661 0 01-2.658 2.659h-5.415c-.918 0-1.676.709-1.756 1.595 0 .048-.016.097-.016.161v12.795l-14.036-14.036c-.016-.016-.048-.032-.064-.064l-.016-.016a1.723 1.723 0 00-1.193-.468h-41.123c-1.45.033-2.643-1.16-2.643-2.626z" fill="#5A8FF9"/><path d="M369.552 30.09c.274.677.983 1.096 1.708 1.096h11.054c1.305 0 2.304-1.322 1.724-2.692-.274-.676-.983-1.095-1.708-1.095h-11.054c-1.305 0-2.305 1.305-1.724 2.69zm-17.885 9.797c.258.71.983 1.128 1.724 1.128h28.554c1.209 0 2.127-1.289 1.628-2.659-.258-.709-.983-1.128-1.724-1.128h-28.555c-1.192.017-2.127 1.306-1.627 2.66zm-17.242-9.797c.274.677.983 1.096 1.708 1.096h26.088c1.306 0 2.305-1.322 1.725-2.692-.274-.676-.983-1.095-1.708-1.095h-26.089c-1.305 0-2.305 1.305-1.724 2.69zm.644 9.846c.274.676.983 1.095 1.708 1.095h6.881c1.305 0 2.304-1.32 1.724-2.69-.274-.677-.983-1.096-1.708-1.096h-6.865c-1.321 0-2.304 1.305-1.74 2.69zm28.584 10.603c.274.676.983 1.096 1.708 1.096h17.162c1.305 0 2.304-1.322 1.724-2.692-.274-.676-.983-1.095-1.708-1.095h-17.162c-1.305 0-2.304 1.305-1.724 2.69zm-29.053 0c.274.676.983 1.096 1.708 1.096h20.965c1.305 0 2.304-1.322 1.724-2.692-.274-.676-.983-1.095-1.708-1.095h-20.964c-1.306 0-2.305 1.305-1.725 2.69z" fill="#5A8FF9"/><path d="M180.374 93.467c-1.241-.741-2.127-1.773-3.158-2.981-1.016-1.531-1.531-3.175-2.901-4.416-.919-.708-2.095 0-2.175.967-.274 3.53 3.964 7.397 7.122 8.283 1.402.58 2.337-1.128 1.112-1.853zm-8.12-16.437c-1.563-.757-2.611-1.643-3.32-3.158-.548-1.338-.096-2.917 0-4.19.097-1.289-1.305-1.87-2.175-1.128-2.047 1.467-1.95 4.367-.806 6.397 1.112 2.337 3.271 3.803 5.801 4.303.967.08 1.579-1.644.5-2.224zm-2.582-17.29c-1.756-2.385.049-4.834 1.032-7.187.596-1.402-1.305-1.87-2.031-.967-2.465 2.723-3.255 6.688-.402 9.653.918.725 2.304-.468 1.401-1.5zm6.593-18.87a13.686 13.686 0 012.933-6.72c1.257-1.675 3.255-2.497 4.657-4.012.548-.773-.193-1.627-.87-1.353-5.205.58-7.993 7.46-8.154 11.811-.241 1.128 1.37 1.241 1.434.274zm24.993-25.38c1.016-.563.661-2.368-.499-1.965-4.125 1.144-7.3 4.77-9.346 8.33-.371.613.547 1.338.918.71 2.514-3.368 5.721-5.221 8.927-7.074zm25.364-13.406c-4.029-.145-8.605.805-11.715 3.48-.87.741.322 2.127 1.192 1.386 3.078-2.353 7.107-2.208 10.555-3.078 1.144-.096 1.257-1.692-.032-1.788zm26.363 1.337c-1.531-1.08-3.433-1.547-5.479-2.191-1.724-.613-3.626-1.08-5.559-1.225-.967-.08-1.08 1.53-.129 1.611 3.513.58 6.848 3.416 10.716 3.384.66.049 1.224-1.031.451-1.579zm24.205 8.605c-1.531-1.08-3.433-1.547-4.996-2.304-1.869-.79-3.577-1.724-5.608-2.675-.934-.387-1.675.838-.741 1.24 2.917 1.999 7.01 5.367 10.748 5.173.967.049 1.354-.902.597-1.434zm100.6 84.551c-.129-.177-.129-.177-.274-.355l-.129-.177c-.129-.177-.129-.177-.274-.354-.129-.178-.274-.355-.403-.532-.274-.355-.532-.71-.806-1.064-.403-.531-.934-1.224-1.498-1.627-.661-.886-1.982.113-1.322.999.403.532.935 1.225 1.161 1.885l.805 1.064c.129.177.274.354.403.532.129.177.129.177.274.354.129.177.274.354.403.532.403.532 1.031.322 1.354.08.354-.258.547-.692.306-1.337zm.626 32.116c.257-.983-1.306-1.402-1.692-.581-.597 1.515-.919 3.078-1.515 4.609-.467 1.692-1.354 3.158-1.95 4.673-.387.822.806 2.047 1.466 1.289 2.724-2.336 2.901-6.735 3.691-9.99zm-17.869 23.897c.725-1.354 1.74-2.643 2.885-3.771.821-.886-.162-2.53-1.274-1.692a18.943 18.943 0 00-3.432 3.384c-.854 1.176-2.03 2.594-2.175 4.045.064.741.58 1.418 1.337 1.112 1.354-.5 1.805-1.902 2.659-3.078zm-13.793 10.152c.951-.725-.193-2.24-1.144-1.531-2.981 1.998-6.993 3.964-9.33 6.8-.66.774.484 2.288 1.402 1.869 3.368-1.482 6.349-4.802 9.072-7.138zm-20.193 8.621c-1.66.451-3.271.612-4.899.773-1.627.161-3.191-.258-4.576.532-.629.483-.306 1.563.225 1.95 1.531.709 3.626.177 5.125-.145 1.788-.29 3.303-.903 4.963-1.354 1.047-.258.225-2.014-.838-1.756zm-19.225.966c-1.563-.419-3.287-.709-4.979-1.289-1.692-.58-3.481-1.627-5.125-1.176-.612.193-.854 1.176-.467 1.692 1.031 1.354 3.191 1.579 4.754 1.998 1.853.467 3.722.645 5.446.935 1.434.241 1.773-1.628.371-2.16zm-18.399-5.511c-1-1.643-2.305-3.045-3.61-4.447-1.305-1.402-3.013-3.32-5.14-3.835-1.145-.194-1.709 1.031-1.241 1.998.87 1.466 2.804 2.401 4.028 3.336 1.628 1.16 3.223 2.61 4.689 3.899.806.741 1.499-.322 1.274-.951z" fill="#633BF2"/><path d="M276.223 161.549c-1.321-4.061-2.192-8.186-2.788-12.263 1.241.661 2.643 1.193 4.013 2.015 2.207 1.256 4.221 2.932 6.606 3.786 1.531.709 2.901-1.128 1.87-2.481-1.37-2.143-4.029-3.336-6.092-4.432-2.61-1.482-5.269-2.675-8.04-4.028-1.241-.661-2.837.548-2.546 1.917 1.45 5.56 2.433 11.458 5.414 16.389.451 1.256 1.885.177 1.563-.903zM294.48 24.466c-2.579-6.494-6.478-12.424-11.103-17.451-1.193-1.386-3.255.403-2.24 1.933 3.368 4.609 6.381 9.524 8.412 14.664-2.289.468-4.593.951-6.881 1.418-1.966.5-4.883.596-5.995 2.45-.547.773-.467 1.901.468 2.288 1.998 1.273 4.351.161 6.317-.322 3.126-.887 6.236-1.467 9.346-2.03 1.611.096 2.223-1.628 1.676-2.95zm83.211 82.875c1.064 3.771 1.37 7.574.951 11.473-.161 1.547 2.256 1.531 2.417 0 .451-4.109.097-8.137-1.031-12.117-.436-1.499-2.756-.871-2.337.644z" fill="#633BF2"/><path d="M294.929 220.849a6658.248 6658.248 0 015.495 19.112c.435 1.498 2.755.854 2.336-.645-1.837-6.365-3.674-12.73-5.495-19.111-.435-1.483-2.771-.854-2.336.644z" fill="#1F1FB2"/><path d="M290.418 203.075l4.979 18.854c.403 1.498 2.723.87 2.336-.645l-4.979-18.853c-.403-1.499-2.739-.87-2.336.644z" fill="#1F1FB2"/><path d="M142.877 205.444c-2.949.725-7.026-1.708-8.17-2.385-4.206-2.514-7.284-6.913-6.446-8.057.741-1.015 3.723 1.644 9.669 1.612 2.658-.017 4.125-.564 5.253-.468-.886.484-1.595 1.128-2.031 2.079-1.047 2.256.194 4.754 1.725 7.219z" fill="#F4AD58"/><path d="M314.912 301.356h78.621l39.93-57.088c.747-1.068-.017-2.535-1.32-2.535h-73.849a3.224 3.224 0 00-2.641 1.376l-40.741 58.247z" fill="url(#paint17_linear_1488_6)"/><path d="M288.598 301.162v-4.479c0-.983.805-1.789 1.788-1.789h101.165c.983 0 1.789.806 1.789 1.789v4.479c0 .983-.806 1.789-1.789 1.789H290.386a1.795 1.795 0 01-1.788-1.789z" fill="#4F84FC"/><path d="M551.258 316.455H262.815c-3.545 0-6.446-2.901-6.446-6.446v-.612c0-3.546 2.901-6.446 6.446-6.446h288.443c3.545 0 6.446 2.9 6.446 6.446v.612c0 3.545-2.901 6.446-6.446 6.446z" fill="#fff"/><path d="M521.947 346.926H293.738c-16.42 112.703-25.122 168.957-26.088 168.732-.983-.226 5.994-58.688 20.948-175.387v-13.793c0-3.658 2.32-6.639 5.14-6.639h228.209c2.82 0 5.14 2.997 5.14 6.639 15.26 125.819 22.254 188.89 20.949 189.164-1.241.29-9.927-55.949-26.089-168.716z" fill="#C6D1E3"/><path d="M538.364 564c17.354 0 31.423-3.607 31.423-8.057s-14.069-8.057-31.423-8.057-31.423 3.607-31.423 8.057S521.01 564 538.364 564z" fill="#9AD1ED"/><path d="M556.709 554.656c-4.807 1.554-11.194 2.984-18.734 2.984-4.945 0-11.4-.619-18.734-2.984-3.75-17.905-7.499-35.809-11.235-53.7h59.196a60756.915 60756.915 0 00-10.493 53.7z" fill="#9D9DFC"/><path d="M567.19 500.956c0 2.75-13.254 4.978-29.598 4.978s-29.598-2.228-29.598-4.978c0-2.751 13.254-4.978 29.598-4.978s29.598 2.227 29.598 4.978z" fill="#4A41F9"/><path d="M544.197 503.568c7.115-23.281 20.231-43.853 38.1-60.342.975-.907-.481-2.351-1.456-1.457-18.102 16.708-31.425 37.665-38.622 61.249-.384 1.279 1.593 1.816 1.978.55zm-5.039.001c4.01-19.032-8.406-41.324-17.553-57.042-13.803-23.749-31.864-45.903-54.004-62.295-1.072-.784-2.102 1.004-1.044 1.788 21.371 15.814 38.786 37.143 52.301 59.916 5.878 9.901 11.139 20.283 14.847 31.202 2.761 8.114 5.274 17.314 3.461 25.895-.274 1.279 1.717 1.842 1.992.536zm-75.596-57.496c28.884 9.901 54.073 29.924 67.396 57.743.577 1.197 2.348.151 1.785-1.045-13.556-28.301-39.267-48.626-68.632-58.692-1.263-.426-1.799 1.554-.549 1.994z" fill="#6CDDBD"/><path d="M542.083 504.339c-6.194-64.083-10.768-137.187 38.828-186.472.947-.936-.509-2.393-1.456-1.458-49.994 49.685-45.681 123.27-39.418 187.93.123 1.306 2.183 1.32 2.046 0z" fill="#6CDDBD"/><path d="M476.169 448.287c1.36-.77 1.113-6.353-.233-10.465-1.841-5.652-6.208-9.997-7.582-8.842-1.236 1.031-.055 6.463.879 9.365 1.731 5.404 5.384 10.836 6.936 9.942zm93.697-117.824c.742 1.293 6.827 1.458 11.4.509 6.277-1.306 11.29-5.006 10.123-6.339-1.044-1.197-7.019-.495-10.246.165-5.975 1.21-12.128 4.18-11.277 5.665z" fill="#35C7BD"/><path d="M561.902 344.05c.741 1.292 6.826 1.457 11.399.509 6.277-1.307 11.29-5.006 10.123-6.34-1.044-1.196-7.019-.495-10.246.165-5.975 1.21-12.128 4.181-11.276 5.666zm-7.141 11.028c.522 1.389 6.511 2.379 11.18 2.063 6.414-.426 11.977-3.383 11.043-4.868-.838-1.334-6.854-1.458-10.15-1.251-6.112.371-12.677 2.461-12.073 4.056zm-5.015 14.055c.893 1.21 6.95.77 11.386-.619 6.084-1.912 10.644-6.079 9.326-7.302-1.168-1.087-7.032.206-10.164 1.168-5.796 1.802-11.564 5.364-10.548 6.753zm-5.684 14.632c.892 1.21 6.949.77 11.386-.619 6.084-1.912 10.644-6.079 9.325-7.302-1.167-1.087-5.892-.839-9.023.123-5.796 1.802-12.718 6.409-11.688 7.798zm-3.284 14.728c1.182.99 6.95-.784 10.892-3.108 5.411-3.191 8.735-8.251 7.156-9.145-1.429-.798-5.645.701-8.42 2.324-5.164 3.025-10.987 8.801-9.628 9.929zm-1.14 14.631c1.182.991 6.95-.783 10.892-3.107 5.411-3.191 8.735-8.251 7.156-9.145-1.429-.798-5.645.701-8.42 2.324-5.164 3.025-10.974 8.801-9.628 9.928zm-2.636 15.883c1.002.839 5.905-.66 9.257-2.64 8.488-5.019 6.551-7.508 6.057-7.783-1.209-.688-5.755 1.485-8.118 2.86-4.395 2.571-8.35 6.601-7.196 7.563zm1.138 10.452c1.003.839 5.906-.66 9.257-2.641 4.588-2.722 7.417-7.013 6.057-7.783-1.208-.688-5.755 1.485-8.117 2.86-4.395 2.572-8.351 6.601-7.197 7.564zm6.058 6.023c-4.381 2.571-8.351 6.587-7.197 7.549 1.003.839 5.906-.66 9.257-2.64 4.587-2.723 7.417-7.013 6.057-7.783l-8.117 2.874zm-4.08 19.912c1.236.523 5.425-2.241 7.98-5.047 3.502-3.85 4.807-8.732 3.269-9.089-1.374-.317-5.013 2.984-6.826 4.95-3.352 3.658-5.838 8.581-4.423 9.186z" fill="#22A8A1"/><path d="M479.673 393.184c1.429-.646 1.786-6.216.879-10.437-1.236-5.803-5.109-10.507-6.606-9.475-1.332.921-.742 6.422-.124 9.406 1.154 5.514 4.203 11.249 5.851 10.506zm93.41 55.749c1.195-.357 2.72-5.225 3.022-9.117.412-5.322-1.36-10.094-2.679-9.42-1.181.605-2.005 5.583-2.225 8.32-.425 5.061.509 10.616 1.882 10.217z" fill="#35C7BD"/><path d="M557.411 467.622c1.003-.509 1.442-5.129.989-8.663-.618-4.841-3.076-8.843-4.12-8.031-.934.728-.742 5.321-.44 7.811.577 4.62 2.431 9.461 3.571 8.883zm-6.962 13.628c1.03-.413 1.565-4.442 1.181-7.55-.536-4.263-2.953-7.852-4.038-7.164-.975.605-.865 4.634-.604 6.821.48 4.07 2.28 8.361 3.461 7.893zm-5.703 11.496c1.03-.412 1.565-4.442 1.181-7.55-.536-4.263-2.953-7.852-4.038-7.164-.975.605-.865 4.634-.605 6.821.495 4.07 2.294 8.361 3.462 7.893z" fill="#279389"/><path d="M564.262 458.216c1.113-.454 1.909-5.198 1.676-8.884-.33-5.047-2.706-9.337-3.887-8.567-1.071.701-1.167 5.446-1.016 8.045.274 4.813 1.95 9.928 3.227 9.406zm-74.878-55.351c1.566-.288 3.42-5.61 3.708-9.901.399-5.899-2.073-11.345-3.804-10.699-1.538.578-2.472 6.051-2.692 9.077-.398 5.61.989 11.867 2.788 11.523zm18.213 20.902c1.566-.288 3.42-5.61 3.708-9.901.399-5.899-2.074-11.345-3.804-10.698-1.538.577-2.472 6.05-2.692 9.076-.398 5.61.989 11.867 2.788 11.523zm9.106 12.542c1.565-.288 3.419-5.61 3.708-9.901.398-5.899-2.074-11.345-3.805-10.698-1.538.577-2.472 6.05-2.692 9.076-.398 5.61.989 11.854 2.789 11.523zm5.602 9.971c1.429-.069 3.805-4.47 4.643-8.196 1.153-5.102-.302-10.177-1.923-9.833-1.456.316-3.022 4.978-3.626 7.605-1.113 4.854-.728 10.492.906 10.424zm5.684 10.451c1.428-.069 3.805-4.47 4.642-8.196 1.154-5.102-.302-10.176-1.923-9.833-1.455.317-3.021 4.978-3.625 7.605-1.113 4.854-.728 10.492.906 10.424zm5.699 13.586c1.429-.069 3.805-4.469 4.643-8.196 1.153-5.102-.303-10.176-1.923-9.832-1.456.316-3.022 4.978-3.626 7.604-1.126 4.855-.742 10.493.906 10.424zm4.974 15.223c1.415.193 4.67-3.713 6.277-7.219 2.198-4.8 1.841-10.039.179-9.984-1.497.055-4.011 4.346-5.151 6.821-2.115 4.565-2.925 10.162-1.305 10.382z" fill="#35C7BD"/><path d="M531.797 471.335c.302-1.279-3.75-4.511-7.458-6.202-5.082-2.324-10.796-2.324-10.837-.798-.041 1.375 4.478 3.947 7.087 5.157 4.821 2.228 10.864 3.314 11.208 1.843zm-7.254-15.746c-.055-1.32-4.849-3.52-8.9-4.318-5.549-1.1-11.098.206-10.727 1.691.33 1.334 5.398 2.806 8.255 3.383 5.287 1.059 11.427.743 11.372-.756zm-5.698-10.451c-.054-1.32-4.848-3.52-8.9-4.318-5.548-1.1-11.097.206-10.726 1.692.329 1.333 5.397 2.805 8.254 3.382 5.288 1.059 11.441.743 11.372-.756zm-7.966-11.496c-.055-1.321-4.849-3.521-8.9-4.318-5.549-1.101-11.098.206-10.727 1.691.33 1.334 5.398 2.805 8.254 3.383 5.288 1.059 11.441.742 11.373-.756zm-7.882-11.029c-.151-1.307-5.082-3.232-9.175-3.796-5.617-.77-11.056.853-10.576 2.324.426 1.307 5.59 2.489 8.475 2.888 5.329.756 11.441.083 11.276-1.416zm-9.11-10.451c-.151-1.307-5.081-3.232-9.174-3.796-5.618-.77-11.057.853-10.576 2.324.426 1.307 5.59 2.489 8.474 2.888 5.329.756 11.441.082 11.276-1.416zm-7.95-10.039c-.412-1.266-5.645-2.324-9.779-2.187-5.672.193-10.699 2.695-9.944 4.057.687 1.224 5.988 1.499 8.9 1.416 5.425-.151 11.29-1.842 10.823-3.286z" fill="#22A8A1"/><path d="M498.49 413.317c1.565-.289 3.42-5.611 3.708-9.902.398-5.899-2.074-11.345-3.805-10.698-1.538.577-2.472 6.05-2.692 9.076-.398 5.61.989 11.867 2.789 11.524zm-33.541 31.945c.838-1.719-3.557-6.656-8.007-9.448-6.098-3.836-13.844-4.579-14.421-2.503-.508 1.871 4.738 5.969 7.856 7.963 5.796 3.671 13.611 5.954 14.572 3.988z" fill="#35C7BD"/><path d="M469.496 385.689c.838-1.718-3.557-6.655-8.007-9.447-6.098-3.823-13.831-4.565-14.408-2.489-.508 1.87 4.739 5.968 7.856 7.962 5.796 3.672 13.598 5.941 14.559 3.974zm107.169-65.251c1.991.468 6.538-4.345 8.776-8.856 3.063-6.174 2.541-13.298.22-13.463-2.088-.137-5.604 5.308-7.197 8.471-2.953 5.858-4.065 13.312-1.799 13.848z" fill="#22A8A1"/><path d="M474.455 450.707c-.714-1.361-6.785-1.623-11.386-.729-6.304 1.238-11.386 4.978-10.259 6.381 1.016 1.265 7.004.633 10.246.014 6.002-1.142 12.223-4.112 11.399-5.666z" fill="#35C7BD"/><path d="M568.536 330.587c1.497-.619 1.964-6.188 1.112-10.424-1.167-5.817-5.081-10.589-6.647-9.599-1.401.894-.893 6.409-.316 9.406 1.085 5.542 4.134 11.332 5.851 10.617zm-7.965 10.451c1.497-.619 1.964-6.188 1.113-10.424-1.168-5.817-5.082-10.588-6.648-9.598-1.401.894-.893 6.408-.316 9.406 1.085 5.542 4.134 11.331 5.851 10.616zm-6.747 10.135c1.415-.77 1.195-6.353-.178-10.479-1.868-5.666-6.359-9.997-7.788-8.842-1.277 1.031-.096 6.463.852 9.378 1.744 5.391 5.494 10.823 7.114 9.943zm-6.027 15.374c1.346-.866.659-6.408-1.058-10.424-2.335-5.514-7.183-9.516-8.515-8.264-1.195 1.127.453 6.449 1.634 9.282 2.211 5.253 6.4 10.41 7.939 9.406zm-5.7 15.677c1.346-.866.66-6.408-1.057-10.424-2.335-5.514-7.183-9.516-8.516-8.264-1.195 1.127.454 6.449 1.635 9.282 2.211 5.253 6.4 10.41 7.938 9.406zm-4.547 16.722c1.346-.866.66-6.408-1.057-10.424-2.335-5.514-7.183-9.516-8.516-8.264-1.194 1.127.454 6.449 1.635 9.282 2.211 5.253 6.4 10.41 7.938 9.406zm-.919 14.288c1.058-1.155-1.181-6.353-3.956-9.832-3.818-4.772-9.614-7.495-10.548-5.968-.838 1.361 2.253 6.119 4.189 8.581 3.612 4.565 9.106 8.553 10.315 7.219zm-1.143 15.677c1.058-1.155-1.181-6.353-3.955-9.833-3.818-4.771-9.614-7.494-10.548-5.968-.838 1.362 2.252 6.12 4.189 8.581 3.612 4.566 9.106 8.554 10.314 7.22z" fill="#58DBCE"/><path d="M475.884 394.491c-.453-1.362-6.373-2.613-11.056-2.558-6.428.069-12.114 2.64-11.263 4.112.769 1.32 6.771 1.746 10.068 1.719 6.125-.042 12.773-1.719 12.251-3.273z" fill="#22A8A1"/><path d="M489.752 459.219c-.604-1.333-6.634-2.035-11.29-1.512-6.386.715-11.757 3.878-10.74 5.294.906 1.265 6.936 1.1 10.218.756 6.071-.646 12.499-2.997 11.812-4.538zm13.805 9.86c-.467-1.265-5.919-2.241-10.191-2.021-5.864.302-10.987 2.915-10.163 4.277.741 1.224 6.249 1.416 9.257 1.265 5.59-.261 11.619-2.063 11.097-3.521zm11.221 10.919c-.316-1.361-5.645-2.805-9.944-2.887-5.892-.124-11.304 2.241-10.631 3.74.605 1.334 6.071 1.953 9.106 2.022 5.604.137 11.826-1.321 11.469-2.875zm7.459 10.053c-.48-1.183-5.947-2.104-10.218-1.898-5.851.289-10.919 2.751-10.068 4.029.769 1.142 6.263 1.321 9.271 1.183 5.576-.234 11.565-1.953 11.015-3.314zm9.242 10.808c-.179-1.347-5.329-3.259-9.587-3.768-5.837-.701-11.427 1.059-10.905 2.572.467 1.348 5.837 2.475 8.831 2.847 5.549.687 11.867-.11 11.661-1.651zm1.441-19.637c1.429.33 2.843 5.267 2.871 9.2.027 5.404-2.582 10.272-4.148 9.612-1.401-.591-1.936-5.638-1.964-8.402-.055-5.143 1.593-10.795 3.241-10.41zm-43.097-25.317c1.442-.632 1.84-6.202.989-10.437-1.181-5.804-5.013-10.548-6.51-9.53-1.346.907-.797 6.422-.206 9.406 1.071 5.528 4.079 11.29 5.727 10.561zm70.856 12.033c.535.976 5.521 1.444 9.353 1.045 5.246-.55 9.628-2.901 8.749-3.919-.783-.921-5.755-.77-8.447-.495-5.013.509-10.273 2.255-9.655 3.369zm7.197-8.319c.605.99 4.972.866 8.2-.055 4.436-1.265 7.828-4.36 6.922-5.363-.81-.894-5.068-.11-7.348.536-4.217 1.183-8.46 3.754-7.774 4.882zm7.965-9.407c.604.991 4.972.867 8.199-.055 4.437-1.265 7.829-4.359 6.923-5.363-.811-.894-5.068-.096-7.348.537-4.203 1.182-8.461 3.754-7.774 4.881zm4.601-7.357c1.057.592 4.793-1.485 7.128-3.74 3.187-3.094 4.505-7.316 3.187-7.784-1.182-.412-4.464 2.187-6.112 3.768-3.077 2.929-5.412 7.082-4.203 7.756zm-26.052 38.078c.673.949 5.027.592 8.186-.509 4.34-1.512 7.526-4.785 6.565-5.734-.866-.853-5.055.179-7.293.935-4.134 1.417-8.214 4.208-7.458 5.308zm-5.331 11.111c.769.88 5.054.124 8.09-1.251 4.161-1.898 6.977-5.446 5.905-6.298-.961-.77-5.013.632-7.155 1.595-3.97 1.788-7.719 4.937-6.84 5.954zm-44.884-26.953c1.208-.687 1.318-6.257.398-10.465-1.264-5.761-4.78-10.355-6.03-9.282-1.126.949-.412 6.45.22 9.406 1.181 5.487 4.024 11.125 5.412 10.341zm11.865 12.075c1.099-.619 1.607-6.175 1.127-10.41-.66-5.817-3.324-10.617-4.478-9.627-1.03.881-.838 6.409-.508 9.393.59 5.555 2.596 11.345 3.859 10.644zm9.027 11.908c1.319-.412 2.816-5.817 3.008-10.093.247-5.859-1.909-11.057-3.365-10.287-1.305.702-2.005 6.189-2.156 9.2-.261 5.583 1.003 11.662 2.513 11.18z" fill="#35C7BD"/><path d="M510.836 506.979c3.544 16.02 7.101 32.055 10.645 48.075.577 2.586 4.546 1.499 3.969-1.1-3.544-16.02-7.101-32.055-10.644-48.075-.577-2.586-4.546-1.486-3.97 1.1z" fill="url(#paint18_linear_1488_6)"/><circle cx="438.567" cy="203.567" r="30.567" fill="#069A53"/><path d="M429.054 213.506c-.972.983-.972 2.184.011 3.179.666.666 1.365 1.31 1.999 2.01.918 1.026 2.054 1.354 3.364 1.278 1.912-.11 3.66-.732 5.364-1.563 3.758-1.824 6.98-4.358 9.679-7.57 1.999-2.37 3.637-4.948 4.719-7.865.524-1.409.906-2.851.786-4.38-.076-.94-.426-1.748-1.114-2.404-.754-.71-1.453-1.452-2.196-2.173-.961-.951-2.163-.951-3.124-.011-.601.579-1.18 1.179-1.77 1.769-.568.579-1.147 1.147-1.715 1.715-1.005 1.016-1.005 2.196-.011 3.201.721.721 1.431 1.453 2.163 2.152.186.186.208.339.11.579-.481 1.158-1.18 2.174-1.956 3.135-1.573 1.923-3.342 3.638-5.462 4.97-.458.285-.961.492-1.431.754-.24.131-.404.088-.601-.109-.72-.732-1.452-1.464-2.173-2.185-.962-.95-2.163-.95-3.125 0-1.179 1.18-2.348 2.338-3.517 3.518zm6.871-12.628a7.79 7.79 0 014.467-2.229l-.316-2.272a10.017 10.017 0 00-5.768 2.884 10.12 10.12 0 00-2.829 5.462l2.261.382a7.791 7.791 0 012.185-4.227zm-10.433 3.452l2.261.382a14.466 14.466 0 014.053-7.821 14.556 14.556 0 018.269-4.13l-.316-2.272a16.796 16.796 0 00-9.581 4.774 16.817 16.817 0 00-4.686 9.067z" fill="#fff"/><path d="M433.469 242.028l13.585-15.284h-16.982l3.397 15.284z" fill="#069A53"/><defs><linearGradient id="paint0_linear_1488_6" x1=".957" y1="312.934" x2="176.955" y2="328.379" gradientUnits="userSpaceOnUse"><stop stop-color="#18029D"/><stop offset="1" stop-color="#1C40F2"/></linearGradient><linearGradient id="paint1_linear_1488_6" x1="10.623" y1="434.694" x2="148.056" y2="483.899" gradientUnits="userSpaceOnUse"><stop stop-color="#0082F8"/><stop offset="1" stop-color="#1C40F2"/></linearGradient><linearGradient id="paint2_linear_1488_6" x1="10.623" y1="313.838" x2="148.056" y2="363.043" gradientUnits="userSpaceOnUse"><stop stop-color="#0082F8"/><stop offset="1" stop-color="#1C40F2"/></linearGradient><linearGradient id="paint3_linear_1488_6" x1="10.623" y1="373.46" x2="148.056" y2="422.665" gradientUnits="userSpaceOnUse"><stop stop-color="#0082F8"/><stop offset="1" stop-color="#1C40F2"/></linearGradient><linearGradient id="paint4_linear_1488_6" x1="67.068" y1="329.88" x2="100.362" y2="329.88" gradientUnits="userSpaceOnUse"><stop stop-color="#1C40F2"/><stop offset=".983" stop-color="#03F8FB"/></linearGradient><linearGradient id="paint5_linear_1488_6" x1="67.068" y1="390.179" x2="100.362" y2="390.179" gradientUnits="userSpaceOnUse"><stop stop-color="#1C40F2"/><stop offset=".983" stop-color="#03F8FB"/></linearGradient><linearGradient id="paint6_linear_1488_6" x1="67.068" y1="450.47" x2="100.362" y2="450.47" gradientUnits="userSpaceOnUse"><stop stop-color="#1C40F2"/><stop offset=".983" stop-color="#03F8FB"/></linearGradient><linearGradient id="paint7_linear_1488_6" x1="132.158" y1="123.526" x2="180.958" y2="126.706" gradientUnits="userSpaceOnUse"><stop stop-color="#102062"/><stop offset="1" stop-color="#060B43"/></linearGradient><linearGradient id="paint8_linear_1488_6" x1="334.521" y1="466.562" x2="110.403" y2="421.69" gradientUnits="userSpaceOnUse"><stop stop-color="#001DAC"/><stop offset="1" stop-color="#000F57"/></linearGradient><linearGradient id="paint9_linear_1488_6" x1="245.958" y1="461.919" x2="101.338" y2="440.558" gradientUnits="userSpaceOnUse"><stop stop-color="#001DAC"/><stop offset="1" stop-color="#000F57"/></linearGradient><linearGradient id="paint10_linear_1488_6" x1="516" y1="414.5" x2="186.767" y2="335.842" gradientUnits="userSpaceOnUse"><stop stop-color="#4A1DFF"/><stop offset=".81" stop-color="#0948B3" stop-opacity="0"/></linearGradient><linearGradient id="paint11_linear_1488_6" x1="101.715" y1="279.622" x2="171.199" y2="279.622" gradientUnits="userSpaceOnUse"><stop stop-color="#1C40F2"/><stop offset=".983" stop-color="#03F8FB"/></linearGradient><linearGradient id="paint12_linear_1488_6" x1="110.324" y1="127.991" x2="159.818" y2="130.339" gradientUnits="userSpaceOnUse"><stop stop-color="#102062"/><stop offset="1" stop-color="#060B43"/></linearGradient><linearGradient id="paint13_linear_1488_6" x1="91.096" y1="116.93" x2="155.831" y2="120.755" gradientUnits="userSpaceOnUse"><stop stop-color="#102062"/><stop offset="1" stop-color="#060B43"/></linearGradient><linearGradient id="paint14_linear_1488_6" x1="88.908" y1="133.781" x2="117.891" y2="134.662" gradientUnits="userSpaceOnUse"><stop stop-color="#102062"/><stop offset="1" stop-color="#060B43"/></linearGradient><linearGradient id="paint15_linear_1488_6" x1="127.598" y1="204.613" x2="159.726" y2="207.731" gradientUnits="userSpaceOnUse"><stop stop-color="#102062"/><stop offset="1" stop-color="#060B43"/></linearGradient><linearGradient id="paint16_linear_1488_6" x1="112.914" y1="187.296" x2="127.559" y2="187.692" gradientUnits="userSpaceOnUse"><stop stop-color="#102062"/><stop offset="1" stop-color="#060B43"/></linearGradient><linearGradient id="paint17_linear_1488_6" x1="452.156" y1="210.295" x2="337.746" y2="308.591" gradientUnits="userSpaceOnUse"><stop stop-color="#B4EBFC"/><stop offset=".121" stop-color="#AEE5FC"/><stop offset=".286" stop-color="#9DD3FC"/><stop offset=".476" stop-color="#80B6FC"/><stop offset=".685" stop-color="#598FFC"/><stop offset=".735" stop-color="#4F84FC"/></linearGradient><linearGradient id="paint18_linear_1488_6" x1="522.251" y1="493.097" x2="518.143" y2="556.532" gradientUnits="userSpaceOnUse"><stop stop-color="#D2D2F7"/><stop offset="1" stop-color="#D2D2F7" stop-opacity="0"/></linearGradient></defs></svg>