<svg width="810" height="747" fill="none" xmlns="http://www.w3.org/2000/svg"><g style="mix-blend-mode:soft-light"><path d="M108.195 359.459a13596.165 13596.165 0 0142.182 85.68c7.014 14.286 14.247 28.473 20.803 42.979 6.475 14.546 13.011 29.052 18.75 43.956l-.379.179c-7.891-13.868-14.964-28.135-22.117-42.361-7.054-14.267-13.45-28.853-20.065-43.339a12608.482 12608.482 0 01-39.553-86.935l.379-.159z" fill="#ABB8FC"/><path d="M139.018 393.631c-1.534 2.152-4.583 4.244-8.109 6.675-5.201 3.587-11.537 7.97-15.164 14.327-2.789-7.532-7.113-14.546-13.051-19.906-.618-.578-1.295-1.076-1.933-1.634-.458-6.695 2.85-12.951 5.779-18.491 1.873-3.546 3.507-6.615 3.865-9.305a1.056 1.056 0 00-.916-1.195 1.057 1.057 0 00-1.196.916c-.319 2.331-1.853 5.241-3.646 8.608-2.65 5.001-5.838 11.118-6.038 17.674-7.372-5.998-15.601-10.62-24.21-14.366a.967.967 0 000-1.056c-3.307-5.36-3.227-11.996-3.167-17.874.04-3.726.08-6.934-.758-9.325a.983.983 0 00-1.275-.598.976.976 0 00-.597 1.276c.717 2.052.697 5.101.637 8.647-.06 5.54-.1 12.334 2.969 18.013a187.625 187.625 0 00-10.68-4.065c-.2-.219-.438-.378-.757-.358-.08 0-.16.02-.24.02a358.478 358.478 0 00-10.859-3.527c3.089 1.235 6.177 2.451 9.266 3.686-6.098.817-11.458 4.463-15.841 7.452-2.91 1.993-5.44 3.726-7.552 4.264a.993.993 0 00-.717 1.216.992.992 0 001.215.717c2.451-.618 5.101-2.451 8.17-4.543 4.841-3.308 10.34-7.074 16.617-7.293.399-.02.718-.259.877-.598 0-.02 0-.04.02-.059 5.16 2.112 10.242 4.363 15.124 7.033a167.7 167.7 0 016.177 3.408c-6.217 1.195-11.657 5.061-16.14 8.229-3.109 2.212-5.799 4.124-8.05 4.742a1.073 1.073 0 00-.757 1.315c.16.578.737.917 1.315.757 2.63-.717 5.46-2.729 8.727-5.061 5.16-3.666 11-7.811 17.774-8.189 0 0 .04-.02.06-.02 5.36 3.347 10.4 7.153 14.784 11.617a50.232 50.232 0 014.384 5.041c-7.193 2.052-13.011 7.392-17.754 11.796-3.148 2.929-5.858 5.439-8.289 6.455a1.2 1.2 0 00-.637 1.575c.259.617.956.896 1.574.637 2.83-1.195 5.679-3.845 8.986-6.914 4.982-4.623 10.6-9.783 17.614-11.457a61.793 61.793 0 012.77 4.364c2.371 4.184 3.886 8.767 5.101 13.429.936 4.165 1.474 8.409 1.853 12.713-5.46-.359-10.82 1.634-15.263 3.307-3.088 1.156-5.758 2.152-7.77 2.172a.92.92 0 00-.918.937c0 .518.419.916.937.916 2.351-.019 5.16-1.076 8.409-2.291 4.563-1.714 9.683-3.606 14.804-3.148.379 4.842.538 9.743.757 14.645.299 5.34.678 10.74 1.296 16.1-3.766-1.534-7.991-1.614-11.537-1.674-2.63-.04-4.922-.08-6.436-.657-.379-.14-.817.039-.957.418s.04.817.419.956c1.753.678 4.164.718 6.934.758 3.846.059 8.149.119 11.796 1.893.518 4.005 1.136 7.99 2.032 11.955 2.192 9.783 5.619 19.348 10.441 28.155 9.505 17.733 23.453 32.458 38.556 45.191-6.974-7.034-14.047-13.988-20.045-21.839-6.177-7.671-11.796-15.801-16.08-24.628-4.324-8.787-7.691-17.992-9.684-27.577-.04-.139-.04-.298-.079-.438.099-.06.199-.119.259-.199 2.69-3.846 7.272-5.739 11.317-7.432 2.571-1.076 4.782-1.993 6.157-3.268a.728.728 0 00.04-1.036.728.728 0 00-1.036-.04c-1.195 1.096-3.288 1.972-5.739 2.989-3.746 1.574-8.348 3.507-11.337 7.173-1.714-8.847-2.371-17.873-2.75-26.959l-.06-1.276c4.583-3.208 10.481-3.746 15.702-4.224 3.447-.299 6.436-.578 8.568-1.574a.926.926 0 00.438-1.235.925.925 0 00-1.235-.439c-1.834.857-4.663 1.116-7.951 1.395-4.881.438-10.819.996-15.661 3.925-.458-8.747-.976-17.634-3.029-26.401-.259-1.016-.558-2.032-.857-3.049 3.029-6.954 9.605-11.497 15.443-15.502 3.726-2.55 6.934-4.782 8.707-7.272a1.206 1.206 0 00-.279-1.674c-.478-.478-1.235-.359-1.634.179z" fill="#E6E9F8"/><path d="M70.077 368.127c-.299.518-1.076.498-1.394 0-7.393-11.816-2.491-17.973-4.245-24.887-1.534-6.098 6.118 6.097 10.421 8.269 3.647 1.813-2.65 13.031-4.782 16.618zm32.401 14.366c-.538.339-1.275-.04-1.315-.697-1.275-14.964 6.456-18.451 8.189-25.943 1.534-6.616 2.869 8.847 5.918 13.051 2.57 3.527-8.986 11.198-12.792 13.589zm21.62 25.564c-.718.06-1.236-.717-.957-1.374 6.536-15.582 16.06-15.024 21.699-21.6 4.962-5.798-1.753 10.322-.896 16.1.717 4.862-14.805 6.476-19.846 6.874zm4.799 37.859c-.499-.239-.558-.936-.12-1.275 10.262-7.97 16.439-3.985 22.675-6.257 5.52-1.992-5.081 6.237-6.695 10.441-1.335 3.527-12.334-1.255-15.86-2.909zm1.021 28.314c-.439-.06-.658-.578-.399-.956 5.898-8.548 11.577-6.994 15.801-10.242 3.726-2.849-2.371 5.978-2.59 9.584-.179 3.009-9.724 2.013-12.812 1.614zM51.11 376.217c.258-.538-.18-1.156-.778-1.156-13.928.398-16.319 7.91-23.054 10.301-5.937 2.112 8.469 1.714 12.653 4.085 3.547 1.993 9.385-9.484 11.178-13.23zm24.346 11.974c.259-.577-.22-1.255-.857-1.215-15.004.697-17.435 8.847-24.628 11.537-6.356 2.391 9.146 1.674 13.729 4.164 3.826 2.053 9.903-10.401 11.756-14.486zm20.964 20.345c.219-.698-.419-1.375-1.136-1.236-16.638 2.969-18.172 12.394-25.804 16.459-6.734 3.586 10.461.538 15.92 2.63 4.584 1.773 9.545-13.012 11.02-17.853zm12.571 28.195c.358-.439.099-1.096-.439-1.216-12.692-2.75-16.538 3.507-23.153 4.184-5.838.578 7.272 3.428 10.54 6.516 2.75 2.59 10.581-6.496 13.052-9.484zm4.226 30.166c.379-.219.399-.777.02-1.036-8.648-5.758-13.35-2.211-18.45-3.646-4.524-1.275 4.423 4.682 5.957 7.93 1.275 2.73 9.763-1.733 12.473-3.248zm-58.719-97.854c.259.478-.12 1.056-.658 1.056-12.613.14-15.044-6.555-21.2-8.448-5.44-1.694 7.591-1.853 11.297-4.165 3.109-1.912 8.807 8.23 10.56 11.557z" fill="#B5EFF9"/><path d="M84.307 457.552c-.179 2.033-1.374 4.623-2.77 7.612-2.052 4.423-4.522 9.803-4.443 15.442-4.802-3.905-10.42-6.854-16.458-8.09-.638-.139-1.295-.219-1.933-.338-2.929-4.265-3.188-9.724-3.427-14.546-.14-3.089-.28-5.759-1.096-7.691a.82.82 0 00-1.076-.439.82.82 0 00-.438 1.076c.697 1.674.817 4.205.956 7.134.22 4.363.478 9.663 2.93 14.087-7.254-1.096-14.507-.917-21.7-.04a.785.785 0 00-.398-.697c-4.284-2.252-6.855-6.695-9.106-10.621-1.435-2.49-2.67-4.642-4.165-5.898a.745.745 0 00-1.076.1.745.745 0 00.1 1.076c1.275 1.076 2.45 3.108 3.826 5.48 2.132 3.686 4.762 8.229 9.026 10.779-2.91.399-5.798.917-8.668 1.495-.219-.08-.438-.08-.637.059-.06.04-.1.08-.14.1a283.847 283.847 0 00-8.588 1.913 995.35 995.35 0 017.592-1.176c-3.726 2.929-5.858 7.452-7.592 11.159-1.155 2.47-2.152 4.602-3.327 5.778a.758.758 0 000 1.076.757.757 0 001.076 0c1.375-1.375 2.43-3.626 3.646-6.217 1.913-4.104 4.085-8.747 8.17-11.357a.744.744 0 00.338-.738c0-.019-.02-.039-.02-.059 4.245-.618 8.509-1.116 12.793-1.256a99.774 99.774 0 015.44-.159c-3.667 3.228-5.76 7.93-7.473 11.796-1.195 2.69-2.231 5.001-3.487 6.296a.818.818 0 00.02 1.156c.319.319.857.319 1.156-.02 1.454-1.514 2.55-3.945 3.806-6.775 1.992-4.463 4.224-9.504 8.568-12.393 0 0 .02-.02.02-.04 4.861.119 9.703.657 14.366 1.913A34.98 34.98 0 0165 476.163c-3.966 4.184-5.739 10.002-7.154 14.784-.936 3.169-1.753 5.898-2.969 7.532a.906.906 0 00.2 1.295.923.923 0 001.295-.199c1.414-1.893 2.271-4.782 3.248-8.11 1.494-5.021 3.208-10.64 7.193-14.505a45.512 45.512 0 013.546 1.813c3.209 1.853 6.018 4.304 8.668 6.914 2.252 2.391 4.284 5.001 6.217 7.711-3.766 1.893-6.536 5.34-8.827 8.17-1.594 1.972-2.969 3.686-4.304 4.503a.71.71 0 00-.24.976.71.71 0 00.977.239c1.554-.936 3.009-2.729 4.683-4.822 2.35-2.929 5.001-6.196 8.588-7.89 2.152 3.068 4.184 6.237 6.256 9.405 2.292 3.427 4.663 6.854 7.173 10.182-3.108.458-5.937 2.052-8.308 3.407-1.774 1.016-3.288 1.873-4.524 2.092a.563.563 0 00-.458.658c.06.318.339.518.658.458 1.434-.239 3.028-1.156 4.901-2.212 2.57-1.474 5.46-3.108 8.568-3.367 1.913 2.451 3.886 4.862 6.038 7.133 5.3 5.639 11.317 10.64 17.953 14.586 13.25 8.05 28.274 12.333 43.298 14.844-7.393-1.933-14.805-3.766-21.858-6.615-7.094-2.67-14.028-5.858-20.325-10.023-6.316-4.124-12.174-8.926-17.235-14.486-.08-.079-.14-.179-.219-.259.04-.079.079-.139.099-.239.279-3.606 2.571-6.655 4.583-9.365 1.275-1.713 2.391-3.188 2.81-4.583.099-.298-.08-.617-.379-.717-.299-.1-.618.08-.717.379-.359 1.195-1.415 2.61-2.63 4.224-1.873 2.511-4.165 5.599-4.703 9.205-4.603-5.18-8.568-10.939-12.394-16.797-.179-.279-.358-.538-.537-.817 1.793-3.925 5.48-6.595 8.767-8.966 2.172-1.554 4.045-2.909 5.081-4.404a.727.727 0 00-.18-.996.73.73 0 00-.996.179c-.877 1.296-2.65 2.571-4.722 4.045-3.069 2.192-6.775 4.902-8.847 8.748-3.746-5.619-7.552-11.318-12.354-16.32a35.594 35.594 0 00-1.773-1.673c-.718-5.799 1.873-11.398 4.164-16.339 1.455-3.148 2.73-5.878 2.93-8.229a.922.922 0 00-.858-.997c-.597-.059-1.036.319-1.076.837z" fill="#E6E9F8"/><path d="M28.555 467.655c0 .458-.518.757-.916.538-9.545-4.941-8.688-10.939-12.573-14.844-3.408-3.448 6.456 1.633 10.162 1.394 3.108-.219 3.347 9.704 3.327 12.912zm27.118-3.169c-.22.439-.857.459-1.156.06-6.715-9.425-2.949-14.785-4.742-20.424-1.574-4.981 5.38 4.743 9.046 6.337 3.109 1.335-1.554 10.939-3.148 14.027zm24.37 8.469c-.458.319-1.096.02-1.175-.538-1.774-12.912 4.762-16.279 5.918-22.835 1.016-5.798 2.889 7.532 5.718 11.039 2.391 2.949-7.273 10.102-10.46 12.334zm18.051 23.233c-.418.04-.737-.398-.578-.797 3.687-9.305 9.345-9.086 12.593-13.031 2.87-3.487-.916 6.137-.338 9.544.458 2.87-8.708 4.005-11.677 4.284zm11.759 18.391c-.319.14-.657-.139-.637-.478.558-7.99 4.941-9.186 6.456-12.991 1.354-3.348.777 4.901 2.032 7.372 1.076 2.072-5.639 5.161-7.851 6.097zm-90.701-34.112c-.04-.459-.578-.698-.957-.459-9.086 5.739-7.731 11.657-11.258 15.861-3.108 3.726 6.277-2.192 10.003-2.252 3.108-.059 2.49-9.962 2.212-13.15zm20.842-1.614c-.06-.498-.638-.737-1.056-.478-9.684 6.356-8.11 12.712-11.816 17.315-3.288 4.065 6.735-2.471 10.74-2.63 3.347-.12 2.49-10.76 2.132-14.207zm21.879 5.281c-.14-.538-.817-.738-1.236-.379-9.863 8.488-7.193 15.343-10.66 21.041-3.068 5.022 7.154-3.746 11.597-4.483 3.726-.638 1.215-12.394.299-16.179zm19.407 13.768c.059-.419-.36-.757-.778-.638-9.504 3.168-9.584 8.807-13.709 11.856-3.646 2.67 6.177-.578 9.545.179 2.829.658 4.483-8.428 4.941-11.397zm14.626 18.371c.18-.299-.04-.677-.399-.697-7.99-.419-9.723 3.766-13.689 4.822-3.486.936 4.763 1.374 7.054 2.929 1.953 1.295 5.838-5.002 7.034-7.054zM18.573 474.37a.56.56 0 01-.02.956c-8.309 5.041-12.553 1.554-17.375 2.71-4.264 1.016 4.304-4.204 5.858-7.193 1.315-2.471 9.066 2.012 11.537 3.527z" fill="#B5EFF9"/></g><ellipse cx="452.355" cy="593.175" rx="357.644" ry="153.14" fill="#fff" fill-opacity=".15"/><path d="M278.289 458.108V188.923h218.772" stroke="#DDD" stroke-width="1.902" stroke-dasharray="9.51 9.51"/><path d="M313.072 551.807l88.618-51.249v-8.636l-88.618 51.117v8.768zm0 55.566l88.618-51.235v-8.781l-88.618 51.248v8.768zm0 55.447l88.618-51.116v-8.781l-88.618 51.248v8.649z" fill="#1C40F2"/><path d="M149.545 527.972l128.602 74.238 128.616-74.238-128.616-74.238-128.602 74.238z" fill="url(#paint0_linear_1483_6)"/><path d="M149.545 579.96l128.602 74.238 128.616-74.238-128.616-74.238-128.602 74.238z" fill="url(#paint1_linear_1483_6)"/><path d="M149.545 476.103l128.602 74.238 128.616-74.238-128.616-74.238-128.602 74.238z" fill="url(#paint2_linear_1483_6)"/><path d="M278.148 587.46l128.616-74.238v-37.119l-128.616 74.238v37.119z" fill="url(#paint3_linear_1483_6)"/><path d="M149.545 513.222l128.602 74.238v-37.119l-128.602-74.238v37.119z" fill="url(#paint4_linear_1483_6)"/><path d="M149.545 565.21l128.602 74.119V602.21l-128.602-74.238v37.238z" fill="url(#paint5_linear_1483_6)"/><path d="M149.545 617.079l128.602 74.238v-37.119L149.545 579.96v37.119z" fill="url(#paint6_linear_1483_6)"/><path d="M297.031 559.778c1.247-2.16 1.244-4.496-.006-5.218-1.251-.722-3.276.444-4.523 2.604-1.247 2.16-1.244 4.496.006 5.218 1.251.722 3.276-.444 4.523-2.604z" fill="#1C40F2"/><path d="M278.148 639.329l128.616-74.119v-37.238L278.148 602.21v37.119z" fill="url(#paint7_linear_1483_6)"/><path d="M297.054 611.743c1.247-2.16 1.244-4.496-.006-5.218-1.251-.722-3.275.444-4.522 2.604-1.247 2.16-1.245 4.496.006 5.218 1.25.722 3.275-.444 4.522-2.604z" fill="#1C40F2"/><path d="M278.148 691.317l128.616-74.238V579.96l-128.616 74.238v37.119z" fill="url(#paint8_linear_1483_6)"/><path d="M297.076 663.721c1.247-2.16 1.244-4.496-.007-5.218-1.25-.722-3.275.444-4.522 2.604-1.247 2.16-1.244 4.496.006 5.218 1.251.722 3.276-.444 4.523-2.604z" fill="#1C40F2"/><path d="M482.012 133.834L712.765.589V191.57l-157.707 91.137-73.046-148.873z" fill="url(#paint9_linear_1483_6)"/><path d="M430.646 164.045l22.703-13.046 8.74-5.444 22.703-13.058c8.119-4.693 19.311-4.001 31.748 3.191 17.352 9.961 32.358 30 39.89 50.954 18.08 12.636 32.053 38.424 32.053 59.836 0 11.509-4.001 19.522-10.559 23.324l-22.702 13.046-37.544-35.643-43.164-24.873c-14.278-8.33-26.292-26.82-29.272-44.079l-14.596-14.208z" fill="url(#paint10_linear_1483_6)"/><path d="M421.918 183.252c0 19.112 13.457 42.33 30 51.881l77.974 45.005c9.867 5.749 18.901 6.265 25.377 2.57 6.476-3.696 10.559-11.815 10.559-23.324 0-21.377-14.079-47.153-32.053-59.836-7.497-20.954-22.608-40.981-39.89-50.954-12.425-7.192-23.629-7.802-31.748-3.179-6.16 3.59-10.559 10.265-12.319 19.522-7.509-3.707-14.185-3.907-19.112-1.032-5.397 3.215-8.788 9.902-8.788 19.347z" fill="#fff"/><path opacity=".33" d="M629.242 145.555L773.891 62.02v119.8l-98.939 57.113-45.71-93.378z" fill="url(#paint11_linear_1483_6)"/><path d="M596.978 164.55l14.278-8.213 5.549-3.39 14.279-8.213c5.139-2.968 12.119-2.464 19.945 1.959 10.888 6.265 20.344 18.772 24.967 31.948 11.298 7.907 20.132 24.039 20.132 37.543 0 7.192-2.569 12.226-6.57 14.596l-14.278 8.212-23.535-22.397-27.114-15.616c-9.046-5.232-16.543-16.848-18.397-27.63l-9.256-8.799z" fill="url(#paint12_linear_1483_6)"/><path d="M591.533 176.576c0 12.026 8.424 26.609 18.772 32.569l48.913 28.252c6.159 3.59 11.814 3.907 15.921 1.537 4.106-2.37 6.57-7.392 6.57-14.584 0-13.363-8.835-29.589-20.133-37.543-4.693-13.152-14.185-25.683-24.967-31.96-7.802-4.516-14.794-4.927-19.945-1.947-3.895 2.264-6.676 6.371-7.696 12.225-4.693-2.346-8.941-2.464-12.026-.622-3.32 2.007-5.409 6.113-5.409 12.073z" fill="#fff"/><path d="M537.904 74.152l74.173-42.847v61.443l-50.743 29.178-23.43-47.774z" fill="url(#paint13_linear_1483_6)"/><path d="M521.361 83.808l7.298-4.212 2.78-1.749 7.298-4.211c2.569-1.537 6.16-1.174 10.172 1.02 5.55 3.191 10.372 9.668 12.847 16.344 5.749 4.106 10.266 12.33 10.266 19.206 0 3.695-1.337 6.265-3.391 7.497l-7.297 4.223-11.92-11.404-13.868-8.013c-4.623-2.675-8.424-8.635-9.386-14.184l-4.799-4.517z" fill="url(#paint14_linear_1483_6)"/><path d="M518.592 90.072c0 6.16 4.317 13.563 9.656 16.649l25.06 14.478c3.191 1.853 6.066 2.053 8.213.821 2.147-1.232 3.39-3.801 3.39-7.497 0-6.887-4.517-15.1-10.277-19.206-2.347-6.781-7.192-13.152-12.835-16.426-4.013-2.264-7.603-2.475-10.172-1.032a9.26 9.26 0 00-4.013 6.265 6.323 6.323 0 00-6.159-.305c-1.631.915-2.863 3.168-2.863 6.253z" fill="#fff"/><path d="M281.948 438.53c.321 6.885 6.185 12.169 13.053 11.849 6.869-.36 12.131-6.205 11.809-13.09l-3.414-54.121c-.361-6.885-6.185-12.169-13.054-11.849-6.868.361-12.17 6.205-11.809 13.09l3.415 54.121z" fill="#F5C2A6"/><path d="M313.157 466.551l-19.922-13.57c.04-8.527 1.847-18.814 4.418-27.941a11.224 11.224 0 012.972 2.201l25.305 30.303c-1.004 4.884-9.399 9.007-12.773 9.007z" fill="#F5C2A6"/><path d="M278.935 385.85c.603-6.525.241-13.13.562-19.695.322-6.565 1.326-13.25 4.499-19.014 2.812-5.164 7.31-9.607 8.555-15.372.563-2.642.121-5.043.04-7.685-.04-1.562.683-2.282 2.33-2.042 3.856.52 5.784 6.525 6.427 9.727a18.353 18.353 0 01-.041 7.686c-.401 1.722-1.044 3.403-1.686 5.124-1.647 2.442-3.053 5.004-3.575 7.966-.964 5.364 1.004 10.488 1.406 15.812.883 11.569-8.355 19.375-13.054 28.942-.201.4 0 .68.281.84-1.004 2.242-1.848 4.524-2.33 6.886-.843 4.403.121 8.926 1.486 13.089.763 2.282 1.607 4.484 2.571 6.565-3.936-2.922-6.909-7.045-8.355-11.728-2.651-8.687.041-18.014.884-27.101z" fill="#1B1823"/><path d="M327.056 602.574c.723-5.925 1.767-12.009 2.932-18.174l-18.075-1.921c.804 4.003 1.567 7.966 2.21 11.689-.081 9.206-7.11 11.208-3.455 21.055.643 1.922 3.214 3.763 4.017 4.164 3.896 1.721 4.94 4.523 5.985 7.165.682 1.761 1.365 3.483 2.691 4.924 4.98 5.164 17.392 5.684 20.364 1.761 4.257-5.484-11.929-18.974-16.348-29.943-.08-.16-.2-.44-.321-.72zm38.761-32.825c1.285-.6 3.695-1.601 5.542-2.922.964 2.282 1.928 4.563 2.933 6.765.241.2.482.4.682.52 10.042 7.446 32.173 10.688 31.37 17.974-.522 5.204-12.01 11.569-19.36 9.607-2.008-.56-3.575-1.721-5.141-2.962-2.41-1.841-4.941-3.763-9.399-3.202-.964.08-4.298-.201-5.945-1.522-8.635-6.765-3.735-12.329-8.314-20.415 2.651-1.321 5.222-2.682 7.632-3.843z" fill="#171716"/><path d="M336.413 532.04s1.486-16.692-6.065-34.105c-5.985-13.771-21.288-29.142-21.569-29.182-.322-.04-39.082 10.407-37.475 14.771.883 2.442 36.029 43.192 36.671 45.034 1.085 3.202 1.245 5.003.281 8.406-3.815 13.29-1.526 52.52.402 64.969 5.021 2.041 18.476 3.122 23.618 1.041.16-.921 3.735-61.767 4.137-70.934-.402 9.167 0 0 0 0z" fill="url(#paint15_linear_1483_6)"/><path opacity=".3" d="M336.374 532.681c0-.24.04-.44.04-.64-.361 7.645-.12 2.521-.04.64z" fill="#123F5D"/><path opacity=".3" d="M336.374 532.681c0-.36.04-.64.04-.64 0 .2 0 .4-.04.64z" fill="#123F5D"/><path opacity=".3" d="M308.779 468.753c.281.04 15.584 15.411 21.569 29.182 7.551 17.413 6.065 34.105 6.065 34.105s0 .24-.04.641c-.121 2.842-.482 8.886-.884 16.252-8.596-7.926-9.479-30.463-23.096-23.618-2.409.521-1.004 9.207 5.182 9.888-.924 1.441-4.017 1.12-4.017 1.12-7.471 18.615-5.583 37.469-2.932 56.403.522 3.683 1.607 7.165 3.133 10.448-2.089-.36-3.896-.801-5.141-1.321-1.928-12.45-4.218-51.679-.402-64.969 1.004-3.403.804-5.204-.281-8.406-.602-1.842-35.788-42.553-36.671-45.034-1.527-4.284 37.193-14.731 37.515-14.691z" fill="#123F5D"/><path d="M276.687 518.55c25.024.12 47.195-2.042 47.195-2.042 6.186 28.622 30.888 60.606 35.387 64.609 2.892-.16 13.857-7.125 16.387-10.408-6.707-13.09-25.746-72.374-36.752-81.021-6.868-5.404-71.977-8.726-71.776-11.809.08-1.241-14.821-4.083-15.906-4.163-12.491-1.041-18.797 44.674 25.465 44.834z" fill="url(#paint16_linear_1483_6)"/><path d="M255.761 380.326a10.128 10.128 0 003.133 7.166 10.305 10.305 0 007.351 2.922l24.943 11.488c3.012-.04 2.771-13.209 4.619-15.331-.723-.721-1.205-1.721-1.246-2.922-.08-2.602-.843-4.404-2.128-6.805-.844-1.562-3.696-5.284-4.419-6.125l-3.092-1.161h-1.446l-14.822-.08c-.241.12-.441.28-.642.36v.04c-10.122 6.245-5.141 1.962-12.251 10.448z" fill="#F5C2A6"/><path d="M267.931 364.994l.121 3.403.04 1.481.161 5.044s.682 1.081 1.847 2.242l.04.04c.282.28.563.48.924.76a9.134 9.134 0 003.173 1.641c1.326.361 2.691.681 4.097.761.563.04 1.125 0 1.687-.04a5.04 5.04 0 001.727-.28c1.245-.36 2.009-1.001 2.531-1.882.12-.12.201-.28.281-.44.402-.72.602-1.481.803-2.282l-.401-5.884-.121-2.362-.281-4.003-1.526.16-15.103 1.641z" fill="#F5C2A6"/><path d="M301.469 433.766c-.401 13.01 3.736 26.38 7.471 40.111-1.406.72-2.771 1.641-4.056 2.361-3.656 2.082-6.909 2.762-11.126 3.043-2.772.2-6.507.12-8.837 1.961-1.526 1.201-1.848 3.243-3.253 4.524-1.768 1.601-4.459 2.321-6.748 2.722-12.09 2.121-25.506 5.324-31.53-5.364-3.776-6.766 1.686-12.45 3.253-19.855 2.571-12.09 2.289-20.296 1.888-31.544-.322-9.487-2.089-17.213-3.776-26.54-.763-4.043-8.676-10.088-7.872-14.291 1.606-8.326 21.047-15.091 27.995-18.374 1.165 10.088 5.945 23.578 17.834 24.339 18.476 1.2 9.118-18.655 3.213-26.901 10.443.2 14.058 8.927 17.834 19.495 1.486 4.203 5.583 9.967 6.226 13.65 2.329 13.05-8.074 16.052-8.516 30.663z" fill="url(#paint17_linear_1483_6)"/><path d="M236.726 450.419c.322 6.885 6.186 12.169 13.054 11.849 6.869-.32 10.885-6.085 10.524-12.97l-2.169-54.201c-.322-6.885-6.186-12.169-13.054-11.849-6.869.361-12.17 6.205-11.809 13.09l3.454 54.081z" fill="#FFD6BF"/><path d="M266.563 359.11l-.482 8.287 1.446 5.764s.642.961 1.847 1.961l.041.04c.281.241.522.441.883.641.844.64 1.888 1.161 3.133 1.481 1.888.48 3.816.801 5.704.641.602 0 1.165-.081 1.727-.281 1.406-.4 2.209-1.121 2.771-2.081.362-.601.603-1.281.763-2.002l-.482-7.285-.24-3.563-17.111-3.603z" fill="#F5C2A6"/><path d="M239.896 371.439c.803-3.443 2.088-6.725 2.611-10.208.562-3.843.241-7.806.401-11.689.241-5.043 1.446-9.967 3.013-14.731.763-4.363 2.088-8.606 4.257-12.249l.081.48c.04-.12.08-.2.12-.32.402-1.121 1.004-2.041 1.767-3.002.482-.561 2.571-2.122 2.651-2.722l-.642 4.163c3.012-1.281 6.426.52 8.876 2.642 6.869 5.964 10.604 15.251 9.801 24.298-.241 2.842-1.125 5.925-3.495 7.566-1.606 1.121-3.896 1.641-4.498 3.443-.603 1.761.803 3.522 1.968 5.003 1.526 1.882 2.812 4.043 3.334 6.405.522 2.362.201 5.004-1.245 6.925-1.246 1.682-3.214 2.722-4.901 4.003-.562.441-1.164 1.001-1.205 1.722 0 .52.322 1 .643 1.401 2.49 3.042 8.716 6.004 8.033 10.928-.281 2.041-1.687 3.202-2.771 4.764-1.245 1.841-1.647 6.044-1.446 7.405.281 1.721 1.486 3.082 2.691 4.403 1.486 3.243 2.691 6.726 2.249 10.288-.723 5.845-5.462 7.926-9.76 10.968-2.49 1.762-4.539 4.564-5.784 7.726-1.486-3.562-3.896-5.804-3.896-8.886 0-3.563 3.293-6.125 4.82-9.327 1.888-4.084.562-9.047-2.611-12.13-1.526-1.521-.683-4.083-3.374-6.044-2.048-1.481-4.619-1.041-6.025-3.122-5.944-8.647-8.073-19.855-5.663-30.103z" fill="#1B1823"/><path d="M296.086 324.524c-1.647-15.452-21.207-19.255-34.181-13.01-16.83 8.046-17.071 26.42-7.591 36.948.241.24.441.48.642.761 2.531-.961 6.346-.521 8.435-.161 4.459.761 8.676 2.763 12.411 5.284 1.848 1.241 4.097 2.843 5.302 4.844 9.198-7.486 16.348-21.896 14.982-34.666z" fill="#1B1823"/><path d="M294.801 332.61c1.004 13.971.804 28.301-6.748 34.186-2.41 1.921-5.824 2.161-9.278 1.561-.683-.12-1.406-.24-2.089-.44-3.896-.961-7.591-2.762-9.921-4.203-3.374-2.122-7.31-14.692-8.314-18.975-3.173-13.65 7.109-14.811 15.785-21.376 8.676-6.525 19.561-4.683 20.565 9.247z" fill="#FFDFCD"/><path d="M280.263 332.97c4.981-.56 11.608-.68 14.982-5.043.643-.841 1.165-1.802 1.607-2.883-1.366-5.764-3.696-6.204-11.287-11.408-5.141-3.483-9.479-6.525-14.339-.32-.844 1.08-2.691 1.521-1.727 1.881 4.779 11.929-13.617 30.303-3.575 35.747 1.446-5.164 9.559-17.413 14.339-17.974z" fill="#1B1823"/><path d="M283.998 326.325c.764 1.241.282 2.923-.682 4.003-1.005 1.081-2.37 1.682-3.696 2.322-3.574 1.681-10.563 5.604-12.813 8.847-2.731 3.923-3.133 13.85-2.972 18.614.281 10.408 4.097 25.939-4.9 35.427-.964 1-2.45 2.361-5.463-.241-5.623-4.883-8.555-12.289-9.559-19.654-1.004-7.366-.281-14.852.281-22.297.562-7.326.843-14.531 11.206-22.457 8.114-6.245 18.356-9.647 28.598-9.447v4.883z" fill="#1B1823"/><path d="M260.782 354.827c2.731 2.522 5.221 3.603 7.069 2.282 1.847-1.281 1.807-3.963-.402-7.005-2.129-3.083-6.306-3.923-8.154-2.642-1.847 1.321-1.606 4.483 1.487 7.365z" fill="#FFDFCD"/><path d="M262.186 353.546c1.446 1.321 2.731 1.881 3.695 1.201.964-.681.924-2.082-.201-3.643-1.124-1.601-3.293-2.041-4.257-1.361-.964.641-.844 2.282.763 3.803z" fill="#F5C2A6"/><path d="M262.666 501.177l35.667 20.136c1.687.96 4.419.92 6.065-.08l18.878-11.129-5.141-2.922v-1.401l-3.494 2.041-.523-.28-.04-2.922.04 3.483-7.631 4.483-.522-.24v.56l-10.042 5.885-4.699-2.682v-1.241l-1.085.64-1.566-.92-3.133-1.762-5.463-3.082-.04-1.561-1.365.8-4.7-2.682V505.1l-1.044.601-4.7-2.682-.04-3.483 4.86-2.882.964.52-.08-1.08 4.9-2.883.924.521v-1.081l4.86-2.882.964.6v-1.081l4.86-2.882.964.521v-1.081l4.86-2.842.924.52v-1.081l4.86-2.842.924.521v-1.081l4.86-2.842.924.52v-1.081l4.9-2.882.924.52v-1.08l4.9-2.883 4.7 2.682.04 1.201 1.165-.68-2.732-1.521-.04-3.523 4.86-2.882 4.74 2.682v1.201l1.044-.601 4.74 2.682v1.201l1.044-.6 4.699 2.682v1.201l1.045-.601 4.699 2.682v1.241l1.085-.64 4.699 2.682.04 3.482-10.322 6.045-.603-.36-.04-2.802.04 3.522-6.908 4.083 5.101 2.882.04 1.402 23.095-13.611c.844-.48 1.245-1.121 1.245-1.761 0 1.161.04 2.322.04 3.483 0 .64-.401 1.281-1.245 1.761l-61.213 36.107c-1.646 1.001-4.378 1.001-6.065.08l-35.667-20.135c-.843-.48-1.245-1.081-1.245-1.721 0-1.161-.04-2.322-.04-3.483 0 .721.401 1.321 1.245 1.801z" fill="#BFBFBF"/><path d="M360.027 489.448l5.342-3.082v-.56l-5.342 3.082v.56zm0 .961l5.342-3.082v-.56l-5.342 3.042v.6zm0 .881l5.342-3.082v-.561l-5.342 3.043v.6z" fill="#1B1823"/><path d="M306.889 523.114l4.177-2.522-.08-3.002-4.177 2.522.08 3.002z" fill="#F8F9FC"/><path d="M310.182 520.111l-3.133 1.882v.8l3.816-2.321-.683-.361z" fill="#30273B"/><path d="M306.968 520.232l.081 1.761 3.133-1.881-.041-1.802-.2.12-2.973 1.802z" fill="#303030"/><path d="M307.008 520.472v1.281l2.972-1.801v-1.241l-2.972 1.761z" fill="#1B1823"/><path d="M310.865 519.711l-.08-1.801-.643.4.04 1.802.683.36v-.761z" fill="#404040"/><path d="M267.324 507.022l-4.177-2.402.08-3.002 4.177 2.442-.08 2.962z" fill="#F8F9FC"/><path d="M264.029 504.14l3.133 1.761-.04.801-3.816-2.202.723-.36z" fill="#30273B"/><path d="M267.203 504.14l-.04 1.761-3.133-1.761.04-1.802.161.12 2.972 1.682z" fill="#303030"/><path d="M267.203 504.42l-.04 1.241-2.972-1.681.04-1.241 2.972 1.681z" fill="#1B1823"/><path d="M263.347 503.699l.04-1.761.683.4-.04 1.802-.723.36.04-.801z" fill="#404040"/><path d="M272.625 510.064l-2.169-1.241.12-3.002 2.129 1.281-.08 2.962z" fill="#F8F9FC"/><path d="M271.338 508.343l1.125.64v.801l-1.808-1.081.683-.36z" fill="#30273B"/><path d="M272.506 507.182l-.04 1.801-1.125-.64.04-1.801.201.12.924.52z" fill="#303030"/><path d="M272.506 507.462l-.04 1.241-.924-.52.04-1.241.924.52z" fill="#1B1823"/><path d="M270.658 507.942l.08-1.801.643.4-.04 1.802-.683.36v-.761z" fill="#404040"/><path d="M275.359 511.665l-2.129-1.281.081-2.962 2.128 1.281-.08 2.962z" fill="#F8F9FC"/><path d="M274.114 509.944l1.124.6-.04.801-1.807-1.041.723-.36z" fill="#30273B"/><path d="M275.279 508.784l-.04 1.761-1.125-.601.041-1.801.16.12.964.521z" fill="#303030"/><path d="M275.279 509.064l-.04 1.241-.964-.521.04-1.281.964.561z" fill="#1B1823"/><path d="M273.431 509.504l.04-1.761.683.4-.04 1.801-.723.361.04-.801z" fill="#404040"/><path d="M318.176 515.068c0 .68-.402 1.481-.924 1.761-.522.28-.924 0-.924-.72 0-.681.402-1.482.924-1.762s.924.04.924.721z" fill="#303030"/><path d="M316.407 516.348c.522-.28.923-1.08.923-1.761v-.24c.482-.2.844.08.844.761 0 .68-.402 1.481-.924 1.761-.442.28-.843.04-.924-.48.04-.041.081-.041.081-.041z" fill="#30273B"/><path d="M317.01 516.709c.522-.28.924-1.081.924-1.761 0-.281-.081-.521-.201-.641.281.04.482.32.482.801 0 .68-.402 1.481-.924 1.761-.281.16-.562.12-.723-.04.08 0 .241-.04.442-.12z" fill="#EBEBEB"/><path d="M314.881 516.989c0 .681-.402 1.481-.924 1.761-.522.281-.924 0-.924-.72 0-.681.402-1.481.924-1.802.522-.24.924.081.924.761z" fill="#303030"/><path d="M313.114 518.27c.522-.28.923-1.081.923-1.761v-.24c.482-.201.844.08.844.76 0 .681-.402 1.481-.924 1.762-.442.28-.843.04-.924-.481.04-.04.04-.04.081-.04z" fill="#30273B"/><path d="M313.676 518.63c.522-.28.924-1.08.924-1.761 0-.28-.081-.52-.201-.64.281.04.482.32.482.8 0 .681-.402 1.481-.924 1.761-.281.161-.562.121-.723-.04.121 0 .281-.04.442-.12z" fill="#EBEBEB"/><path d="M314.477 472.235l4.739 2.682 4.86-2.882-4.699-2.682-4.9 2.882zm6.669 2.762l4.7 2.682 12.009-7.045-4.699-2.682-12.01 7.045zm-12.452.641l4.7 2.682 4.86-2.882-4.7-2.682-4.86 2.882zm21.288.84l4.7 2.682 8.957-5.244-4.7-2.722-8.957 5.284zm-27.111 2.563l4.74 2.682 4.86-2.883-4.74-2.642-4.86 2.843zm21.609.64l4.7 2.682 4.9-2.842-4.74-2.682-4.86 2.842zm-14.697 1.961l4.74 2.682 4.86-2.842-4.7-2.682-4.9 2.842zm22.892-.079l4.739 2.642 12.01-7.046-4.74-2.682-12.009 7.086zm-35.626.88l4.739 2.682 4.86-2.842-4.699-2.682-4.9 2.842zm21.928.48l4.739 2.682 4.86-2.882-4.699-2.642-4.9 2.842zm21.208.922l4.699 2.682 10.323-6.045-4.699-2.682-10.323 6.045zm-35.947 1.08l4.74 2.682 4.86-2.882-4.7-2.682-4.9 2.882zm22.895-.12l4.739 2.682 4.86-2.882-4.699-2.682-4.9 2.882zm-13.615 1.321l4.699 2.682 4.9-2.843-4.739-2.682-4.86 2.843zm8.191 1.841l4.74 2.682 4.86-2.842-4.7-2.682-4.9 2.842zm-36.268 1.321l4.74 2.642 4.86-2.842-4.699-2.682-4.901 2.882zm46.511-.6l4.7 2.682 7.631-4.483-4.699-2.682-7.632 4.483zm-23.94.681l4.739 2.682 4.86-2.883-4.739-2.682-4.86 2.883zm8.238 1.84l4.699 2.682 4.901-2.882-4.74-2.682-4.86 2.882zm-36.594 1.482l4.7 2.682 4.9-2.883-4.74-2.682-4.86 2.883zm22.856-.12l4.739 2.682 4.86-2.842-4.699-2.682-4.9 2.842zm-14.904 2.121l4.7 2.683 4.86-2.883-4.699-2.682-4.861 2.882zm23.215-.28l4.7 2.642 4.86-2.842-4.7-2.682-4.86 2.882zm-36.991 1.681l4.74 2.682 4.86-2.882-4.7-2.682-4.9 2.882zm-5.783 3.403l4.699 2.682 4.9-2.882-4.739-2.682-4.86 2.882zm29-3.683l4.699 2.682 4.9-2.882-4.739-2.682-4.86 2.882zm-15.022 2.122l4.74 2.682 4.86-2.842-4.699-2.682-4.901 2.842zm23.096-.201l4.74 2.682 4.86-2.882-4.7-2.682-4.9 2.882zm-13.578 1.281l4.739 2.682 4.861-2.842-4.7-2.682-4.9 2.842zm8.152 1.882l4.74 2.682 4.86-2.842-4.7-2.682-4.9 2.842zm-13.617 1.361l4.699 2.682 4.901-2.882-4.74-2.682-4.86 2.882zm-12.287.521l4.74 2.682 7.551-4.444-4.699-2.682-7.592 4.444zm20.443 1.36l4.7 2.682 4.9-2.882-4.74-2.682-4.86 2.882zm23.817-.44l6.988 3.923 17.473-10.288-6.989-3.923-17.472 10.288zm-16.345 2.722l4.7 2.682 7.631-4.443-4.699-2.682-7.632 4.443z" fill="#30273B"/><path d="M279.895 506.221l5.463 3.122 3.133 1.762 1.606.92 8.194-4.843-4.699-2.682-2.531 1.481-5.462-3.083-5.704 3.323z" fill="#30273B"/><path d="M262.626 497.654c-1.647.961-1.647 2.562 0 3.483l35.668 20.135c1.687.961 4.418.921 6.065-.08l61.213-36.107c1.646-.961 1.646-2.562 0-3.523l-35.668-20.135c-1.687-.961-4.418-.921-6.065.08l-61.213 36.147zm62.418 9.968l-6.989-3.963 17.432-10.288 6.989 3.963-17.432 10.288zm10.925-15.852l-21.408 12.57-4.74-2.682 21.449-12.57 4.699 2.682zm-47.476 19.335l-3.133-1.762-5.462-3.122 5.703-3.363 5.463 3.083 2.53-1.481 4.74 2.682-8.234 4.803-1.607-.84zm32.655-36.108l12.01-7.045 4.739 2.682-12.009 7.045-4.74-2.682zm11.528 6.565l12.009-7.045 4.7 2.682-12.01 7.045-4.699-2.682zm22.533-1.08l-10.323 6.044-4.699-2.682 10.322-6.044 4.7 2.682zm-49.284 28.901l-10.041 5.885-4.7-2.682 10.042-5.925 4.699 2.722zm24.06-32.904l8.957-5.244 4.699 2.682-8.957 5.244-4.699-2.682zm14.299 10.407l-7.632 4.484-4.699-2.682 7.631-4.484 4.7 2.682zm-30.245 17.774l-7.632 4.483-4.739-2.682 7.631-4.483 4.74 2.682zm-27.956-3.643l-7.551 4.443-4.699-2.682 7.551-4.443 4.699 2.682zm9.6 1.041l-4.86 2.882-4.74-2.682 4.9-2.882 4.7 2.682zm20.565-10.848l4.9-2.883 4.699 2.682-4.9 2.843-4.699-2.642zm-19.2-8.767l4.901-2.842 4.699 2.682-4.86 2.882-4.74-2.722zm8.074 15.292l4.86-2.843 4.739 2.682-4.9 2.883-4.699-2.722zm-18.195-2.642l4.699 2.682-4.86 2.842-4.699-2.682 4.86-2.842zm27.553-22.858l4.901-2.882 4.699 2.682-4.86 2.842-4.74-2.642zm.201 6.565l4.74 2.682-4.9 2.882-4.7-2.682 4.86-2.882zm12.452 6.005l4.86-2.882 4.699 2.682-4.86 2.882-4.699-2.682zm-34.663 7.005l4.739 2.682-4.9 2.882-4.7-2.682 4.861-2.882zm5.542-3.242l4.7 2.682-4.86 2.882-4.7-2.682 4.86-2.882zm5.543-3.243l4.7 2.682-4.9 2.882-4.7-2.682 4.9-2.882zm-35.506 14.171l4.86-2.882 4.739 2.682-4.86 2.882-4.739-2.682zm5.784-3.403l4.9-2.882 4.699 2.682-4.86 2.882-4.739-2.682zm60.248-16.572l-4.9 2.842-4.699-2.682 4.86-2.842 4.739 2.682zm-21.97 12.89l-4.901 2.882-4.739-2.682 4.9-2.842 4.74 2.642zm16.468-9.688l-4.86 2.882-4.7-2.682 4.86-2.842 4.7 2.642zm-21.931 12.89l-4.86 2.882-4.699-2.682 4.86-2.882 4.699 2.682zm-21.207-6.325l4.86-2.882 4.739 2.682-4.9 2.842-4.699-2.642zm15.704 9.567l-4.86 2.883-4.699-2.682 4.86-2.843 4.699 2.642zm7.552-23.217l4.86-2.882 4.699 2.682-4.86 2.882-4.699-2.682zm14.419 10.328l-4.86 2.882-4.699-2.682 4.86-2.842 4.699 2.642zm-5.503 3.202l-4.86 2.842-4.739-2.682 4.86-2.882 4.739 2.722zm-2.249-10.768l4.86-2.842 4.7 2.682-4.86 2.842-4.7-2.682zm-35.707 14.291l4.86-2.882 4.699 2.682-4.86 2.842-4.699-2.642zm20.042 8.206l4.861-2.842 4.699 2.682-4.86 2.882-4.7-2.722zm9.439-18.854l4.74 2.682-4.86 2.882-4.74-2.682 4.86-2.882zm1.687 12.369l4.86-2.842 4.7 2.682-4.86 2.882-4.7-2.722zm-16.588 9.727l4.86-2.882 4.699 2.682-4.86 2.882-4.699-2.682zm8.636-25.099l4.86-2.842 4.699 2.682-4.86 2.842-4.699-2.682zm24.501-14.37l4.739 2.682-4.86 2.882-4.699-2.682 4.82-2.882zm-36.109 21.176l4.86-2.843 4.739 2.682-4.86 2.843-4.739-2.682zm30.445 2.121l4.86-2.882 4.74 2.682-4.86 2.882-4.74-2.682z" fill="#F8F9FC"/><path d="M322.513 467.512l4.699 2.682 4.86-2.843-4.699-2.682-4.86 2.843zm-7.149 10.888l4.7 2.682 4.86-2.882-4.7-2.682-4.86 2.882zm-24.1 7.445l4.699 2.682 4.9-2.842-4.739-2.682-4.86 2.842zm7.429 2.323l4.7 2.682 4.9-2.883-4.74-2.642-4.86 2.843zm-5.539 3.242l4.7 2.682 4.9-2.843-4.74-2.682-4.86 2.843zm16.667 10.248l4.739 2.682 21.409-12.57-4.7-2.682-21.448 12.57zm-18.636 10.968l4.699 2.682 10.042-5.925-4.7-2.682-10.041 5.925z" fill="#30273B"/><path d="M273.276 485.325c.682-5.244 7.993-7.845 10.764-8.766 1.848.961 5.262 3.042 8.756 5.764 4.981 3.843 10.042 8.927 10.604 13.53 1.205 9.848-2.852 10.849-7.149 10.728-6.507-.24-17.232-17.413-22.975-21.256z" fill="#FFD6BF"/><path d="M240.5 442.093c4.82-4.764 12.572-4.764 17.312.04l31.811 37.828-12.291 9.087-36.952-29.582c-4.74-4.804-4.7-12.57.12-17.373z" fill="#FFD6BF"/><path d="M336.011 470.634c-.562-4.603-5.623-9.687-10.603-13.53-3.495-2.682-6.909-4.804-8.757-5.764-1.887.6-5.502 3.162-7.872 6.364h2.53v7.326c6.146 5.004 12.371 16.172 17.553 16.292 4.298.2 8.354-.84 7.149-10.688z" fill="#F5C2A6"/><path d="M309.621 476.278l61.253-36.107c.844-.481 1.607-.561 2.169-.24 1.004.6 2.049 1.161 3.053 1.721-.563-.32-1.326-.28-2.169.24l-3.173 1.882c.08.04.16.04.241.08.522.32 1.205.68 1.807 1.04.402.241.844.481 1.245.681.322.2.522.6.563 1.161l-9.48 33.185c0 1.161-.763 2.562-1.767 3.162-.482-.28-.964-.56-1.446-.8l1.446.8s-62.659 38.429-62.137 38.749c-.522-.28-1.004-.56-1.526-.84a29.88 29.88 0 01-1.526-.881c-.563-.32-.884-1.001-.924-1.921l9.439-36.628c-.04-1.921 1.285-4.283 2.932-5.284z" fill="#BFBFBF"/><path d="M367.541 480.241c.041 1.921-1.325 4.283-2.972 5.284l-61.213 36.147c-1.646 1.001-3.052.2-3.092-1.721l9.439-36.628c-.041-1.921 1.325-4.283 2.972-5.284l61.253-36.147c1.647-1.001 3.052-.2 3.052 1.681l-9.439 36.668zm7.03-33.705c0-.08 0-.12-.041-.16.041.12.041.24.041.4v-.24zm-.482-.921s-.041 0 0 0c.04 0 .08.08.16.12l-.08-.08c-.04 0-.04-.04-.08-.04zm-.282-.12c.081 0 .121.04.201.08-.08-.04-.16-.08-.201-.08zm-.12-.04h-.161.201c0 .04-.04 0-.04 0zm-.321.04c-.081 0-.161.04-.241.04.08-.04.2-.04.281-.08 0 .04-.04 0-.04.04zm-.362.08c-.08.04-.12.08-.201.12.081-.04.201-.08.281-.12h-.08zm-70.009 72.174s.04 0 0 0c-.04-.04-.121-.12-.161-.24.04.08.121.16.161.24zm-.281-.64c0-.12-.04-.24-.04-.36 0 .16 0 .28.04.36zm.08.32c-.04-.08-.04-.12-.08-.2.04.08.08.12.08.2zm.562.56c-.04 0-.08 0-.08-.04.04 0 .04 0 .08.04zm.362.041h-.121.121zm.402-.041c-.041 0-.081 0-.121.041.04-.041.08-.041.121-.041zm59.445-35.066s.04-.04 0 0a.865.865 0 01-.281.16c.04 0 .04-.04.08-.04.081-.04.121-.08.201-.12zm.281-.24c.04 0 .04-.04.04-.08l-.16.16c.04-.04.08-.04.12-.08zm.723-.961c.121-.2.201-.4.281-.6-.12.36-.321.72-.562 1.04l.04-.04c.081-.12.161-.24.241-.4z" fill="#EBEBEB"/><path d="M315.486 483.724l5.101-2.963c1.004-.56 1.808-1.961 1.808-3.122 0-1.161-.804-1.601-1.808-1.041l-5.101 2.922c-1.004.561-1.807 1.962-1.807 3.123 0 1.161.803 1.641 1.807 1.081z" fill="#292C36"/><path d="M315.687 483.963l5.101-2.922c1.004-.56 1.808-1.961 1.808-3.122 0-1.161-.804-1.601-1.808-1.041l-5.101 2.922c-1.004.561-1.807 1.962-1.807 3.123 0 1.161.803 1.601 1.807 1.04z" fill="#30273B"/><path d="M730.215 509.79l-46.452-33.053-35.174 29.084-.422-.467 32.152-31.842 3.416 2.431 11.937-9.87.2.253 34.343 43.464zm-45.95-33.469l42.72 30.399-31.409-39.752-11.311 9.353zm-3.882-1.989l-26.786 26.529 29.633-24.504-2.847-2.025z" fill="#fff"/><path d="M679.472 511.313l-.445-.445c.254-.253 6.383-6.934 13.563-14.763l-31.136-25.974 12.427 39.132-.6.19-13.081-41.188 32.815 27.374c10.274-11.207 22.478-24.535 22.689-24.765l1.67-1.822-17.559 33.079-6.742-5.623c-7.194 7.846-13.339 14.544-13.601 14.805zm14.027-15.271l6.124 5.108 14.878-28.028c-3.748 4.091-12.962 14.151-21.002 22.92z" fill="#fff"/><path d="M698.668 464.759c-.629-.656-5.041 0-5.041 0l12.598 174.869 4.829-1.189-12.386-173.68z" fill="#D9722F"/><path d="M662.559 467.755l-5.249-3.081-47.867 155.776 3.99 1.928 49.126-154.623z" fill="#F9A157"/><path d="M769.628 625.452l4.199-1.368-53.745-157.983-5.458 1.596 55.004 157.755z" fill="#FDB471"/><path d="M661.3 639.26l4.619.894 18.055-171.074-6.298-.67L661.3 639.26z" fill="#FAB273"/><path d="M690.113 554.716c-14.474 0-28.083-1.094-38.323-3.078-7.346-1.424-16.103-3.92-16.103-7.726 0-3.805 8.757-6.301 16.103-7.725 10.24-1.985 23.849-3.079 38.323-3.079 14.473 0 28.083 1.094 38.323 3.079 7.346 1.424 16.103 3.92 16.103 7.725 0 3.806-8.757 6.302-16.103 7.726-10.242 1.984-23.851 3.078-38.323 3.078zm0-20.978c-14.434 0-28.002 1.089-38.203 3.066-9.911 1.921-15.594 4.512-15.594 7.107 0 2.595 5.683 5.187 15.594 7.107 10.201 1.976 23.769 3.065 38.203 3.065 14.434 0 28.001-1.089 38.203-3.065 9.911-1.922 15.594-4.512 15.594-7.107 0-2.597-5.683-5.187-15.594-7.107-10.202-1.977-23.769-3.066-38.203-3.066z" fill="#fff"/><path d="M699.261 473.758c.319.407 1.524-.628 4.141-.685 2.104-.046 12.381 1.224 13.186.042a37.71 37.71 0 008.541-1.773 37.857 37.857 0 0010.316-5.308 1153.107 1153.107 0 00-17.407-2.268c-3.485-.427-4.911-.586-6.93-.161-7.627 1.605-12.59 9.205-11.847 10.153z" fill="#86C7E0"/><path d="M745.836 411.382c.203 14.693 3.402 23.277.966 38.442-.73 4.55-2.073 10.352-6.768 14.022-1.994 1.56-4.08 1.961-8.218 3.385-8.484 2.918-15.285 3.543-18.371 3.869-13.666 1.451-12.576 3.276-29.005 5.56-3.701.514-23.275 3.083-38.375-1.552-1.874-.576-3.678-1.259-5.376-2.074-5.475-2.628-5.585-4.555-5.559-5.077.066-1.32 1.456-2.8 7.01-4.836 9.02-3.305 15.239-3.02 28.039-5.077 6.383-1.025 8.559-1.695 10.877-3.143 3.565-2.227 5.904-5.321 8.46-10.154 5.53-10.456 4.507-14.746 9.668-28.288.469-1.228 2.956-7.541 7.492-14.99 3.298-5.415 5.117-7.217 6.689-8.462 1.144-.907 3.988-2.97 10.203-4.455a46.69 46.69 0 011.721-.38c4.579-.923 12.526-1.879 22.722.243-1.975 9.851-2.249 17.789-2.175 22.967z" fill="#73B1CE"/><path d="M745.835 411.382c.203 14.692 3.402 23.277.966 38.442-.73 4.55-2.073 10.352-6.768 14.022-1.994 1.56-4.08 1.961-8.218 3.385-8.484 2.918-15.285 3.543-18.371 3.868-13.666 1.451-12.576 3.277-29.005 5.56-3.7.515-23.275 3.083-38.375-1.551 14.17 2.061 25.368 1.407 32.978.423 18.16-2.345 20.41-7.131 36.257-7.412 3.043-.055 8.641.019 14.663-3.063 1.554-.795 6.801-3.564 10.313-9.349 1.704-2.808 3.057-6.421 3.222-18.859.199-14.913-1.677-15.215-1.126-25.466.653-12.178 3.623-17.754.483-20.148-2.335-1.779-5.359.243-14.828-1.451-2.582-.464-4.46-.801-4.46-1.233a46.69 46.69 0 011.721-.38c4.579-.923 12.526-1.879 22.721.243-1.973 9.853-2.247 17.791-2.173 22.969z" fill="#FDB471"/><path d="M574.517 306.143l-1.109-1.547a.823.823 0 01-.153-.461l-.132-9.117a.774.774 0 00-.14-.417l-12.412-17.321a2.033 2.033 0 00-3.305 2.37l6.187 8.632a.49.49 0 01-.4.775l-3.902-.022a.878.878 0 00-.629.258l-1.41 1.402a.889.889 0 00-.096 1.144l.593.828a.392.392 0 01-.017.48l-1.8 2.165a1.07 1.07 0 00-.047 1.307l.708.986a.387.387 0 01-.003.458l-1.182 1.601a.953.953 0 00-.008 1.12l5.935 8.281a.88.88 0 00.361.295l1.702.761a.747.747 0 01.299.244l1.866 2.605 9.094-6.827z" fill="#F8B586"/><path d="M572.636 294.113l-4.41-4.317a.708.708 0 00-.839-.111l-3.751 2.096a.264.264 0 00-.057.418l1.682 1.653a.555.555 0 00.683.074l1.026-.645a.53.53 0 01.787.277l.678 2.011a.316.316 0 01-.206.403l-.158.048a.315.315 0 01-.388-.19l-.386-1.023a.284.284 0 00-.432-.131l-.328.235a.186.186 0 00-.067.212l.414 1.179a.625.625 0 01-.14.638l-1.385 1.425a.33.33 0 00-.077.336l.226.687a.832.832 0 01-.154.8l-1.545 1.833a.681.681 0 01-.277.197l-.824.318a.206.206 0 00-.121.13l-.153.502c-.05.167-.142.318-.263.441l-1.205 1.218a1.74 1.74 0 01-1.819-.269l-3.016-2.559-1.051-1.467.035-.541 4.38 3.713a.956.956 0 001.329-.129l.388-.46a.956.956 0 00-.142-1.369l-4.62-3.683.062-.333-.908-1.392 6.371 4.838a.902.902 0 001.225-.126l1.032-1.182a.653.653 0 00-.332-1.062l-.709-.176a.378.378 0 01-.167-.09l-5.641-5.138.304-.493-.783-1.304 6.683 6.038a.768.768 0 001.048-.013l.957-.906a.574.574 0 00.149-.595l-.228-.686a.569.569 0 00-.141-.228l-4.436-4.344a.252.252 0 01.03-.387l.362-.26a.252.252 0 01.319.021l.768.71a.265.265 0 00.304.039l4.179-2.244a1.408 1.408 0 011.77.365l3.968 4.998z" fill="#A97F68"/><path d="M652.233 346.699c-3.185-1.724-7.222 6.783-19.268 9.895-4.987 1.289-9.1 1.074-16.316.694a100.422 100.422 0 01-18.051-2.604c-1.649-8.272-4.981-19.707-12.15-31.773a99.744 99.744 0 00-11.904-16.093l-9.099 6.198a227.263 227.263 0 0016.143 54.689 97.27 97.27 0 0019.093 13.542c17.907 9.684 34.948 11.56 45.131 11.807a58.756 58.756 0 002.429-6.251c2.096-6.462 2.521-11.612 2.777-14.584 1.828-21.15 3.172-24.461 1.215-25.52z" fill="url(#paint18_linear_1483_6)"/><path d="M694.639 609.908h-15.852v18.293h15.852v-18.293z" fill="#FFB584"/><path d="M697.687 522.095l22.861-75.919-47.249-2.134-.305 84.457c8.232-2.134 16.462-4.268 24.693-6.404z" fill="url(#paint19_linear_1483_6)"/><path d="M672.996 528.499l3.658 9.147c.386 3.02.881 7.444 1.22 12.806 1.038 16.43-.397 29.166-1.22 39.636-.448 5.713-1.345 14.129-3.353 24.392l24.386 1.829c1.69-14.945 3.081-27.596 3.808-37.327.933-12.491-.159-5.305 1.738-27.866.356-4.224.795-8.903-.363-14.997-1.168-6.147-3.429-10.923-5.183-14.025-1.48-.872-5.725-3.106-11.278-2.439-8.457 1.018-12.837 7.906-13.413 8.844z" fill="url(#paint20_linear_1483_6)"/><path d="M670.253 651.068c-.718-2.918-1.24-7.16.61-11.281 1.196-2.665 2.604-3.539 3.963-5.793 1.621-2.688 3.051-7.133 1.525-14.634.836-.387 4.053-1.753 7.925-.609 3.042.899 4.827 2.855 5.487 3.659.566 1.519 1.751 2.524 2.744 2.439 1.271-.108 2.692-2.047 2.133-4.573.887 1.086 2.061 2.845 2.439 5.184.645 3.993-1.679 5.667-2.439 10.977-.782 5.462 1.314 6.238 0 9.452-2.019 4.938-8.386 6.581-10.059 7.013-6.748 1.737-12.458-.874-14.328-1.834z" fill="#0A82E5"/><path d="M669.592 647.233c1.849.927 4.452 1.895 7.637 2.084 9.687.571 16.404-6.576 17.531-7.812a38.103 38.103 0 01-.348-2.257c-.788-6.394.143-12.151 1.562-16.841.242.437.488.958.694 1.563a9.802 9.802 0 01.521 3.298 45.515 45.515 0 01-.694 2.951c-.543 2.005-1.059 3.373-1.215 3.82-1.419 4.074 1.169 7.144 0 10.764-1.252 3.875-4.888 5.911-6.422 6.772-8.141 4.561-17.46.041-18.572-.521-.23-1.275-.463-2.548-.694-3.821z" fill="#3C4F77"/><path d="M654.839 347.22c8.048 3.577 13.22 3.117 16.664 1.389 7.313-3.671 8.24-13.768 13.191-13.889.859-.021 3.369.221 6.596 5.555 8.556 14.145 4.882 35.543.868 65.281a1762.497 1762.497 0 00-3.645 28.82l-36.451-1.736a1486.326 1486.326 0 002.777-85.42z" fill="#B2D6F7"/><path d="M641.135 537.257l12.489 13.097 9.025-5.036-4.682-13.222-16.832 5.161z" fill="#F8B586"/><path d="M654.4 430.016a105.005 105.005 0 01-9.144 6.404c-13.486 8.412-23.248 10.21-44.81 20.429-4.66 2.208-10.883 5.288-14.642 12.037-1.773 3.184-2.442 6.187-2.733 8.086a81.695 81.695 0 005.792 10.977c7.903 12.556 16.668 18.794 24.691 25.917 6.43 5.711 15.244 14.529 24.386 27.441l25.3-4.573c-8.07-6.517-13.064-12.947-16.156-17.684-7.472-11.444-7.764-19.002-15.85-26.831-5.617-5.439-11.966-8.075-16.461-9.452l92.667-34.454.279-21.957a154.292 154.292 0 01-28.322 4.272c-9.42.534-17.85.145-24.997-.612z" fill="url(#paint21_linear_1483_6)"/><path d="M663.768 543.755c-1.386-2.041-1.705-2.079-2.555-3.67-.56-1.048-.886-1.903-1.216-1.865-.386.044-.212 1.243-.815 2.694-.645 1.554-1.77 2.403-2.179 2.706-.955.703-1.888.917-3.757 1.345-2.114.485-2.831.288-3.098.203-.998-.318-1.689-.99-2.077-1.445l-2.98 2.934-5.833 6.131-7.08 5.759-3.304 2.272a27.051 27.051 0 01-2.011 1.804c-1.71 1.386-2.475 1.66-3.11 2.669-.133.209-1.39 2.083-.743 3.15.588.973 2.464.794 3.24.712 5.432-.579 12.95-5.82 17.568-8.593 9.667-5.806 14.5-8.708 18.855-9.386.793-.123 3.318-.467 3.743-1.995.306-1.075-.679-2.525-2.648-5.425z" fill="#0A82E5"/><path d="M668.504 550.95l-43.614 21.331-1.553-3.176 42.778-20.923.836-.41 1.553 3.178z" fill="#3C4F77"/><path d="M660.192 343.731a5704.269 5704.269 0 004.878 52.442c2.02 20.644 3.461 34.043-4.878 42.076-2.184 2.104-6.725 5.466-13.108 6.403-8.35 1.228-14.799-2.436-16.766-3.658 11.214-5.949 15.519-12.655 17.375-17.685 8.037-21.768-15.2-51.587-6.706-65.858 1.992-3.348 4.878-6.099 4.878-6.099 5.077-4.84 10.818-6.778 14.327-7.621z" fill="url(#paint22_linear_1483_6)"/><path d="M685.19 331.534c-.818.615.557 3.191 1.219 5.793 2.538 9.977-5.51 20.005-7.925 23.477-10.331 14.847-7.588 39.002-6.097 52.138 3.764 33.144 28.568 55.905 38.808 64.301l14.232-6.978-5.791-50.308c-.305-22.867-.611-45.735-.914-68.602-4.536-1.341-11.388-3.865-18.594-8.841-7.965-5.504-13.53-12.041-14.938-10.98z" fill="url(#paint23_linear_1483_6)"/><path d="M685.984 310.907c-.618 5.996-.901 10.036-1.043 12.668-.387 7.17-.181 2.698-.423 6.283-.261 3.884-.283 4.225-.456 4.797-.658 2.178-2.087 3.046-6.462 6.298-7.467 5.549-8.912 7.186-12.523 7.656a14.289 14.289 0 01-3.645 0c-.26-6.356-.519-12.714-.781-19.071 8.446-6.211 16.891-12.421 25.333-18.631z" fill="#DA9770"/><path d="M657.527 336.823c.785.239 2.063.066 4.62-.28 3.702-.502 8.291-.97 11.622-3.13 4.994-3.239 6.731-8.351 8.047-12.222 1.628-4.791 5.642-16.597-1.044-23.698-4.223-4.485-10.56-4.809-13.262-4.77-2.331.375-8.387 1.679-12.516 6.855-3.08 3.864-3.534 7.838-4.023 12.819-.843 8.581.321 22.52 6.556 24.426z" fill="#F8B586"/><path d="M677.953 291.25c-1.417.59-1.898 1.322-5.065 4.396a153.455 153.455 0 01-4.395 4.098c-1.42.385-3.43.727-5.736.373-3.727-.571-5.164-2.485-6.72-1.725-2.324 1.133-1.19 6.41-2.741 6.717-.831.165-2.108-1.159-2.31-2.608-.138-1.002.276-1.794.447-2.087-.379-.521-1.022-1.564-1.117-2.98-.13-1.938.768-4.561 2.607-4.992.345-.081 1.076-.167 2.087.373-.044-.107-.392-.975 0-1.491.432-.568 1.716-.645 2.83.298-.071-.178-.547-1.432.074-2.385.708-1.084 2.628-1.454 4.32-.373.244-.742.897-2.338 2.458-3.204 2.377-1.319 5.958-.445 8.418 2.459.871-.482 2.116-1.005 3.65-1.118 4.698-.349 8.759 3.365 8.417 4.172-.294.7-3.585-1.44-7.224.077z" fill="#001042"/><path d="M653.147 305.148c-.242 0-.515-.103-.799-.305-.587-.418-1.243-1.303-1.388-2.337-.129-.933.217-1.703.442-2.088-.658-.91-1.043-1.941-1.112-2.981a6.61 6.61 0 01.568-3.073c.344-.748.98-1.694 2.059-1.946.62-.144 1.325-.026 2.044.343-.096-.255-.324-.988.028-1.452.175-.23.479-.378.855-.419.632-.069 1.336.169 1.94.655-.132-.37-.447-1.468.11-2.32.7-1.072 2.602-1.482 4.328-.396.343-1.028 1.047-2.403 2.459-3.189 1.179-.653 2.67-.78 4.197-.355 1.565.434 3.069 1.43 4.238 2.804 1.171-.644 2.397-1.018 3.643-1.111 3.826-.285 7.22 2.112 8.186 3.459.236.329.324.587.256.748-.114.272-.626.149-1.4-.037-1.318-.314-3.523-.842-5.839.123-1.076.449-1.614.984-3.209 2.572-.49.486-1.097 1.092-1.849 1.819a150.033 150.033 0 01-4.396 4.098l-.01.006c-1.957.532-3.891.658-5.746.373-1.737-.266-2.97-.82-3.963-1.265-1.115-.501-1.921-.863-2.742-.461-1.256.612-1.492 2.441-1.7 4.055-.174 1.352-.324 2.522-1.046 2.665a.731.731 0 01-.154.015zm.302-12.739c-.179 0-.354.019-.522.058-1.059.249-1.685 1.18-2.025 1.919a6.58 6.58 0 00-.564 3.048c.07 1.035.455 2.062 1.113 2.968l.009.013-.008.014c-.22.374-.572 1.141-.443 2.071.141 1.02.788 1.891 1.367 2.304.329.234.655.335.913.283.687-.137.835-1.289 1.007-2.622.209-1.625.446-3.468 1.726-4.093.841-.411 1.656-.046 2.784.461.99.444 2.22.996 3.95 1.262 1.847.283 3.771.159 5.719-.37a150.933 150.933 0 004.39-4.093c.75-.729 1.359-1.333 1.847-1.819 1.6-1.593 2.139-2.13 3.225-2.583l.01.024-.01-.024c2.33-.971 4.546-.442 5.869-.126.749.18 1.244.298 1.343.065.06-.142-.028-.39-.25-.699-.961-1.339-4.339-3.723-8.142-3.439-1.246.093-2.47.468-3.639 1.115l-.017.009-.013-.016c-2.373-2.801-5.899-3.832-8.386-2.453-1.413.784-2.112 2.167-2.447 3.19l-.009.03-.027-.018c-1.709-1.092-3.595-.692-4.286.366-.598.914-.165 2.127-.072 2.362l.036.093-.076-.065c-.61-.516-1.329-.773-1.974-.702-.362.04-.655.181-.82.4-.373.489-.063 1.306.003 1.465l.027.065-.061-.033c-.532-.285-1.058-.43-1.547-.43z" fill="#000"/><path d="M682.495 322.843c-.285 1.328-.061 2.444.074 3.13.046.227.78 3.795 2.011 3.875 1.15.075 2.221-2.932 3.277-5.962a59.053 59.053 0 002.31-8.717c.974-1.896 2.327-5.196 2.31-9.387-.005-1.031-.199-12.225-7.317-14.897-5.311-1.994-12.927 1.339-16.671 8.862-.258.502-.903 1.924-.596 3.725.321 1.877 1.546 3.413 2.98 4.172 1.748.927 2.805.171 3.873.744 1.364.732 2.283 3.379.82 11.325l2.234.149c-.014-.716.003-3.797 2.31-5.885.168-.153 2.695-2.391 4.394-1.491 1.412.748 1.652 3.338 1.117 5.142-.711 2.406-2.563 2.584-3.126 5.215z" fill="url(#paint24_linear_1483_6)"/><path d="M684.621 329.873l-.042-.001c-1.26-.082-2.003-3.74-2.034-3.895-.136-.676-.361-1.807-.074-3.14l.023.005-.023-.005c.299-1.391.966-2.114 1.612-2.811.581-.626 1.18-1.273 1.517-2.408.56-1.89.25-4.394-1.106-5.111-1.698-.9-4.259 1.388-4.366 1.487-2.143 1.94-2.324 4.75-2.302 5.867v.027l-2.289-.153.004-.027c1.209-6.562.938-10.363-.807-11.299-.464-.249-.922-.244-1.452-.239-.673.007-1.438.015-2.421-.507-1.545-.82-2.692-2.425-2.993-4.191-.286-1.682.252-3.066.598-3.741 1.761-3.538 4.516-6.383 7.758-8.01 3.057-1.535 6.317-1.85 8.943-.864 7.076 2.656 7.328 13.672 7.332 14.92.015 3.22-.763 6.382-2.309 9.397a59.087 59.087 0 01-2.31 8.717c-.976 2.808-2.082 5.982-3.259 5.982zm-1.014-17.623c.316 0 .624.063.911.214 1.376.729 1.694 3.263 1.129 5.17-.34 1.146-.944 1.797-1.527 2.427-.642.692-1.306 1.408-1.601 2.787-.283 1.323-.059 2.447.074 3.119.032.154.767 3.776 1.989 3.854a.282.282 0 00.041.002c1.141 0 2.241-3.157 3.213-5.946a58.952 58.952 0 002.308-8.714l.002-.006c1.545-3.009 2.32-6.164 2.306-9.376-.005-1.244-.255-12.23-7.299-14.876-2.615-.982-5.859-.667-8.903.861-3.234 1.624-5.981 4.46-7.737 7.989-.344.67-.878 2.042-.593 3.711.299 1.75 1.435 3.342 2.967 4.154.973.516 1.731.509 2.398.501.537-.007 1.001-.011 1.476.244.791.425 1.29 1.426 1.484 2.976.237 1.913.02 4.721-.645 8.348l2.18.145c-.018-1.142.177-3.939 2.318-5.878.087-.08 1.905-1.706 3.509-1.706z" fill="#000"/><path d="M651.406 312.004l-4.381.347.053.668 4.381-.347-.053-.668z" fill="#020A54"/><path d="M651.237 319.536c-.807 0-1.61-.34-2.305-.984-.82-.76-1.396-1.86-1.619-3.096-.467-2.582.763-4.974 2.742-5.331 1.978-.358 3.968 1.451 4.436 4.033.223 1.237.071 2.468-.433 3.467-.516 1.026-1.336 1.689-2.31 1.865-.17.03-.341.046-.511.046zm-.672-8.887c-.135 0-.272.012-.407.036-1.67.302-2.694 2.397-2.283 4.669.201 1.116.714 2.103 1.444 2.779.708.657 1.534.938 2.329.795.793-.143 1.469-.697 1.902-1.559.447-.89.582-1.994.381-3.11-.378-2.087-1.838-3.61-3.366-3.61zm10.597 9.146c-2.239 0-4.059-2.112-4.059-4.707 0-2.595 1.82-4.706 4.059-4.706s4.059 2.112 4.059 4.706c.002 2.597-1.82 4.707-4.059 4.707zm0-8.841c-1.924 0-3.49 1.855-3.49 4.135 0 2.281 1.566 4.136 3.49 4.136 1.924 0 3.49-1.855 3.49-4.136 0-2.28-1.566-4.135-3.49-4.135z" fill="#020A54"/><path d="M654.175 314.034c.173-.43.421-.626.563-.716.692-.436 1.834-.176 2.755.73.074-.255.148-.51.223-.763a9.259 9.259 0 00-1.421-.43c-.7-.149-1.057-.222-1.456-.066-.421.164-.672.496-.803.708.046.178.091.357.139.537zm29.325-1.669l-19.041.539.012.432 19.041-.539-.012-.432z" fill="#020A54"/><path d="M665.07 348.608a93.692 93.692 0 0020.118-17.076l3.047 5.488-13.717 20.733-9.448-9.145z" fill="#fff"/><path d="M658.365 355.317l6.706-6.708-4.878-4.878c-.608 3.862-1.219 7.724-1.828 11.586z" fill="#fff"/><path d="M647.897 444.161c-.616.331-1.487.659-2.359.408-1.199-.347-1.498-1.53-2.461-2.482-1.176-1.165-2.412-1.061-5.126-1.542-6.238-1.108-8.162-3.156-9.915-1.829-.629.477-1.136 1.311-1.016 2.068 0 0 .225.988 6.09 2.631 1.347.378 2.51.814 2.486.905-.019.072-.997-.294-2.423-.249-.752.024-.769.136-2.111.287-1.498.168-1.811.066-1.94.297-.298.534 1.277 1.247 1.907 3.134.401 1.203.292 2.511.184 3.822-.081.968-.214 1.409-.052 2.227.17.85.398.798.722 1.97.203.737.401 1.45.426 2.41.019.691-.071.946.139 1.141.308.289.802.056 2.034-.153.36-.061-.104.03 2.401-.252 1.064-.119 1.595-.179 2.23-.261 1.889-.244 2.833-.367 3.381-.57.945-.352 1.598-.819 2.471-1.449a16.66 16.66 0 001.879-1.571 39.087 39.087 0 007.013-1.063 39.168 39.168 0 007.248-2.566c-2.486-3.607-4.972-7.212-7.456-10.819a7982.766 7982.766 0 01-5.752 3.506z" fill="#F8B586"/><path d="M631.339 445.821l-.042-.215a1.352 1.352 0 00-1.58-1.069l-12.099 2.34a1.353 1.353 0 00-1.068 1.58l.041.216c.14.729.851 1.209 1.579 1.069l12.1-2.341a1.35 1.35 0 001.069-1.58zm.719 3.833l-.013-.065a1.414 1.414 0 00-1.652-1.117l-13.54 2.619a1.413 1.413 0 00-1.117 1.652l.012.065a1.415 1.415 0 001.652 1.117l13.541-2.619a1.414 1.414 0 001.117-1.652zm1.802 3.408l-.013-.063a1.414 1.414 0 00-1.652-1.117l-13.54 2.619a1.413 1.413 0 00-1.117 1.652l.012.063a1.414 1.414 0 001.652 1.117l13.541-2.618a1.413 1.413 0 001.117-1.653zm4.575 4.01l-.011-.065a1.415 1.415 0 00-1.617-1.169l-13.616 2.192a1.416 1.416 0 00-1.169 1.618l.011.065a1.415 1.415 0 001.617 1.169l13.616-2.192a1.416 1.416 0 001.169-1.618z" fill="#F8B586"/><path d="M704.519 350.795c-6.189 4.073-8.054 11.506-9.714 22.868-1.439 9.86-2.819 23.315-2.756 39.683a199.1 199.1 0 01-16.747 12.522 198.839 198.839 0 01-24.698 14.066l7.435 14.763L710.478 433a166.98 166.98 0 008.515-29.867c1.095-5.856 8.894-49.334-3.625-54.667-4.393-1.871-9.75 1.605-10.849 2.329z" fill="url(#paint25_linear_1483_6)"/><path d="M645.879 442.777l1.869 4.431 4.822-2.053-2.073-4.461-4.618 2.083zm3.617 9.522c.452 1.01.902 2.021 1.353 3.031l4.95-1.341-1.683-3.775-4.62 2.085z" fill="#BAEAF7"/><path d="M655.339 450.075a4.318 4.318 0 11-8.534-1.323 4.318 4.318 0 018.534 1.323z" fill="#BAEAF7"/><path d="M651.077 454.143a4.735 4.735 0 01-4.675-5.454 4.703 4.703 0 011.88-3.093 4.697 4.697 0 013.517-.856 4.735 4.735 0 013.947 5.398 4.735 4.735 0 01-4.669 4.005zm-.012-8.637c-.822 0-1.622.26-2.298.754a3.881 3.881 0 00-1.553 2.554 3.91 3.91 0 003.261 4.46 3.909 3.909 0 004.459-3.262 3.91 3.91 0 00-3.869-4.506z" fill="#fff"/><defs><linearGradient id="paint0_linear_1483_6" x1="149.545" y1="464.598" x2="417.084" y2="508.826" gradientUnits="userSpaceOnUse"><stop stop-color="#18029D"/><stop offset="1" stop-color="#1C40F2"/></linearGradient><linearGradient id="paint1_linear_1483_6" x1="149.545" y1="516.586" x2="417.084" y2="560.814" gradientUnits="userSpaceOnUse"><stop stop-color="#18029D"/><stop offset="1" stop-color="#1C40F2"/></linearGradient><linearGradient id="paint2_linear_1483_6" x1="148.249" y1="476.112" x2="404.495" y2="476.112" gradientUnits="userSpaceOnUse"><stop stop-color="#1C40F2"/><stop offset=".983" stop-color="#03F8FB"/></linearGradient><linearGradient id="paint3_linear_1483_6" x1="278.148" y1="484.251" x2="414.001" y2="499.232" gradientUnits="userSpaceOnUse"><stop stop-color="#0082F8"/><stop offset="1" stop-color="#1C40F2"/></linearGradient><linearGradient id="paint4_linear_1483_6" x1="149.545" y1="484.251" x2="285.383" y2="499.229" gradientUnits="userSpaceOnUse"><stop stop-color="#0082F8"/><stop offset="1" stop-color="#1C40F2"/></linearGradient><linearGradient id="paint5_linear_1483_6" x1="149.545" y1="536.12" x2="285.383" y2="551.098" gradientUnits="userSpaceOnUse"><stop stop-color="#0082F8"/><stop offset="1" stop-color="#1C40F2"/></linearGradient><linearGradient id="paint6_linear_1483_6" x1="149.545" y1="588.108" x2="285.383" y2="603.085" gradientUnits="userSpaceOnUse"><stop stop-color="#0082F8"/><stop offset="1" stop-color="#1C40F2"/></linearGradient><linearGradient id="paint7_linear_1483_6" x1="278.148" y1="536.12" x2="414.001" y2="551.101" gradientUnits="userSpaceOnUse"><stop stop-color="#0082F8"/><stop offset="1" stop-color="#1C40F2"/></linearGradient><linearGradient id="paint8_linear_1483_6" x1="278.148" y1="588.108" x2="414.001" y2="603.088" gradientUnits="userSpaceOnUse"><stop stop-color="#0082F8"/><stop offset="1" stop-color="#1C40F2"/></linearGradient><linearGradient id="paint9_linear_1483_6" x1="496.091" y1="199.442" x2="732.605" y2="100.256" gradientUnits="userSpaceOnUse"><stop stop-color="#4500E9"/><stop offset=".05" stop-color="#4008EA" stop-opacity=".87"/><stop offset=".14" stop-color="#3715EC" stop-opacity=".67"/><stop offset=".23" stop-color="#3021EE" stop-opacity=".49"/><stop offset=".33" stop-color="#2A2AEF" stop-opacity=".34"/><stop offset=".44" stop-color="#2532F0" stop-opacity=".21"/><stop offset=".55" stop-color="#2138F1" stop-opacity=".12"/><stop offset=".67" stop-color="#1E3DF2" stop-opacity=".05"/><stop offset=".81" stop-color="#1D3FF2" stop-opacity=".01"/><stop offset="1" stop-color="#1C40F2" stop-opacity="0"/></linearGradient><linearGradient id="paint10_linear_1483_6" x1="533.563" y1="76.439" x2="508.128" y2="215.035" gradientUnits="userSpaceOnUse"><stop stop-color="#F5F7FA"/><stop offset="1" stop-color="#C3CFE2"/></linearGradient><linearGradient id="paint11_linear_1483_6" x1="637.995" y1="186.724" x2="786.269" y2="124.542" gradientUnits="userSpaceOnUse"><stop stop-color="#4500E9"/><stop offset=".05" stop-color="#4008EA" stop-opacity=".87"/><stop offset=".14" stop-color="#3715EC" stop-opacity=".67"/><stop offset=".23" stop-color="#3021EE" stop-opacity=".49"/><stop offset=".33" stop-color="#2A2AEF" stop-opacity=".34"/><stop offset=".44" stop-color="#2532F0" stop-opacity=".21"/><stop offset=".55" stop-color="#2138F1" stop-opacity=".12"/><stop offset=".67" stop-color="#1E3DF2" stop-opacity=".05"/><stop offset=".81" stop-color="#1D3FF2" stop-opacity=".01"/><stop offset="1" stop-color="#1C40F2" stop-opacity="0"/></linearGradient><linearGradient id="paint12_linear_1483_6" x1="661.588" y1="109.63" x2="645.644" y2="196.533" gradientUnits="userSpaceOnUse"><stop stop-color="#F5F7FA"/><stop offset="1" stop-color="#C3CFE2"/></linearGradient><linearGradient id="paint13_linear_1483_6" x1="542.41" y1="95.188" x2="618.377" y2="63.334" gradientUnits="userSpaceOnUse"><stop stop-color="#4500E9"/><stop offset=".05" stop-color="#4008EA" stop-opacity=".87"/><stop offset=".14" stop-color="#3715EC" stop-opacity=".67"/><stop offset=".23" stop-color="#3021EE" stop-opacity=".49"/><stop offset=".33" stop-color="#2A2AEF" stop-opacity=".34"/><stop offset=".44" stop-color="#2532F0" stop-opacity=".21"/><stop offset=".55" stop-color="#2138F1" stop-opacity=".12"/><stop offset=".67" stop-color="#1E3DF2" stop-opacity=".05"/><stop offset=".81" stop-color="#1D3FF2" stop-opacity=".01"/><stop offset="1" stop-color="#1C40F2" stop-opacity="0"/></linearGradient><linearGradient id="paint14_linear_1483_6" x1="554.388" y1="55.697" x2="546.211" y2="100.221" gradientUnits="userSpaceOnUse"><stop stop-color="#F5F7FA"/><stop offset="1" stop-color="#C3CFE2"/></linearGradient><linearGradient id="paint15_linear_1483_6" x1="271.255" y1="575.425" x2="343.44" y2="569.724" gradientUnits="userSpaceOnUse"><stop stop-color="#001DAC"/><stop offset="1" stop-color="#000F57"/></linearGradient><linearGradient id="paint16_linear_1483_6" x1="242.036" y1="558.361" x2="384.795" y2="529.278" gradientUnits="userSpaceOnUse"><stop stop-color="#001DAC"/><stop offset="1" stop-color="#000F57"/></linearGradient><linearGradient id="paint17_linear_1483_6" x1="310.694" y1="430.309" x2="237.474" y2="430.309" gradientUnits="userSpaceOnUse"><stop stop-color="#1C40F2"/><stop offset=".983" stop-color="#03F8FB"/></linearGradient><linearGradient id="paint18_linear_1483_6" x1="659.139" y1="377.519" x2="558.051" y2="313.674" gradientUnits="userSpaceOnUse"><stop stop-color="#1C40F2"/><stop offset=".983" stop-color="#03F8FB"/></linearGradient><linearGradient id="paint19_linear_1483_6" x1="720.548" y1="510.607" x2="668.079" y2="505.769" gradientUnits="userSpaceOnUse"><stop stop-color="#001DAC"/><stop offset="1" stop-color="#000F57"/></linearGradient><linearGradient id="paint20_linear_1483_6" x1="703.619" y1="595.807" x2="669.635" y2="594.046" gradientUnits="userSpaceOnUse"><stop stop-color="#001DAC"/><stop offset="1" stop-color="#000F57"/></linearGradient><linearGradient id="paint21_linear_1483_6" x1="707.719" y1="516.955" x2="573.259" y2="493.077" gradientUnits="userSpaceOnUse"><stop stop-color="#001DAC"/><stop offset="1" stop-color="#000F57"/></linearGradient><linearGradient id="paint22_linear_1483_6" x1="689.88" y1="331.409" x2="607.118" y2="454.37" gradientUnits="userSpaceOnUse"><stop stop-color="#1C40F2"/><stop offset=".983" stop-color="#03F8FB"/></linearGradient><linearGradient id="paint23_linear_1483_6" x1="698.158" y1="301.259" x2="705.252" y2="503.435" gradientUnits="userSpaceOnUse"><stop stop-color="#1C40F2"/><stop offset=".983" stop-color="#03F8FB"/></linearGradient><linearGradient id="paint24_linear_1483_6" x1="667.812" y1="289.166" x2="696.536" y2="292.805" gradientUnits="userSpaceOnUse"><stop stop-color="#102062"/><stop offset="1" stop-color="#060B43"/></linearGradient><linearGradient id="paint25_linear_1483_6" x1="704.727" y1="357.742" x2="641.404" y2="477.425" gradientUnits="userSpaceOnUse"><stop stop-color="#1C40F2"/><stop offset=".983" stop-color="#03F8FB"/></linearGradient></defs></svg>