<svg width="1570" height="1111" fill="none" xmlns="http://www.w3.org/2000/svg"><g opacity=".2"><path d="M558.364 924.763c-23.542 0-47.385-5.13-65.193-15.694l-146.984-84.81c-18.109-10.262-27.767-24.448-27.767-39.538 0-15.091 9.96-28.975 27.767-39.538l558.058-322.34c35.916-20.825 94.468-20.825 130.385 0l146.98 84.811c18.11 10.261 27.77 24.447 27.77 39.538 0 15.09-9.96 28.974-27.77 39.537l-1.51-2.716 1.51 2.716-558.054 322.34c-17.807 10.564-41.349 15.694-65.192 15.694zm411.073-511.276c-22.636 0-44.971 4.829-62.174 14.789l-558.058 322.34c-15.996 9.356-24.749 21.428-24.749 34.105 0 12.676 8.753 25.05 24.749 34.105l146.985 84.81c34.407 19.92 90.243 19.92 124.348 0L1178.6 581.297c15.99-9.357 24.74-21.429 24.74-34.105 0-12.677-8.75-25.051-24.74-34.106l-146.99-84.81c-16.9-9.658-39.537-14.789-62.173-14.789z" fill="url(#paint0_linear_1419_1910)"/><path d="M1569.43 768.126l-3.01 5.131-131.29-75.756c-18.72-10.866-49.5-10.866-68.21 0-20.53 11.771-53.73 11.771-74.25 0l-44.37-25.654c1.21 2.716 1.51 5.13 1.51 8.149 0 8.752-5.73 17.203-16.3 23.239l-45.27 26.258c-8.45 4.829-13.28 11.469-13.28 18.109 0 6.64 4.83 12.978 13.28 18.109l115.9 67.003-3.02 5.131-115.9-67.003c-10.56-6.036-16.3-14.185-16.3-23.24 0-9.054 5.74-17.203 16.3-23.24l45.27-26.257c8.46-4.83 13.28-11.469 13.28-18.109 0-6.64-4.82-12.979-13.28-18.109l-89.33-51.611 6.03-3.622 57.95 33.502v-.302l90.55 52.214c18.71 10.866 49.49 10.866 68.21 0 20.52-11.771 53.72-11.771 74.24 0l131.29 76.058z" fill="url(#paint1_linear_1419_1910)"/><path d="M690.25 577.376l-3.019 5.131-131.29-75.756c-18.712-10.866-49.497-10.866-68.21 0-20.523 11.77-53.723 11.77-74.247 0l-44.367-25.655c1.208 2.717 1.509 5.131 1.509 8.149 0 8.753-5.734 17.204-16.298 23.24l-45.272 26.258c-8.451 4.829-13.28 11.469-13.28 18.109 0 6.64 4.829 12.978 13.28 18.109l115.897 67.003-3.018 5.131-115.897-67.003c-10.564-6.036-16.298-14.185-16.298-23.24 0-8.753 5.734-17.203 16.298-23.24l45.272-26.258c8.451-4.829 13.28-11.167 13.28-18.109 0-6.64-4.829-12.978-13.28-18.109l-89.337-51.61 6.036-3.622 57.949 33.502v-.302l90.544 52.214c18.713 10.865 49.498 10.865 68.211 0 20.523-11.771 53.723-11.771 74.247 0l131.29 76.058z" fill="url(#paint2_linear_1419_1910)"/><path d="M788.662 959.477c-13.581 0-26.861-3.019-37.123-8.753L649.827 891.87l3.018-5.131 101.712 58.552c18.713 10.866 49.498 10.866 68.211 0l300.002-173.242 3.02 5.131-300.306 173.242c-9.658 6.036-23.24 9.055-36.822 9.055z" fill="url(#paint3_linear_1419_1910)"/><path d="M207.351 763.897c-7.244 0-14.487-1.509-19.92-4.829l-52.818-30.483 3.018-5.131 52.818 30.483c9.357 5.433 24.749 5.433 34.105 0l156.039-90.243 3.018 5.131-156.038 90.243c-5.735 3.018-12.978 4.829-20.222 4.829z" fill="url(#paint4_linear_1419_1910)"/><path d="M941.355 940.765c-13.28 0-26.56-3.018-36.52-8.753l-162.377-93.563 3.018-5.131 162.377 93.563c18.411 10.564 48.593 10.564 67.305 0l117.712-67.908c20.22-11.771 53.12-11.771 73.04 0l57.34 32.898-3.02 5.13-57.34-32.898c-18.41-10.563-48.59-10.563-67.31 0l-117.705 67.909c-9.96 6.036-23.24 8.753-36.52 8.753z" fill="url(#paint5_linear_1419_1910)"/><path d="M265.598 976.377c-19.92 6.64-45.876 4.829-63.079-4.829-18.713-10.865-49.498-10.865-68.211 0L3.018 1047 0 1041.87l131.29-75.755c20.523-11.77 53.723-11.77 74.247 0 18.712 10.866 49.498 10.866 68.21 0l35.916-20.523 26.56-15.695c2.113.604 4.225 1.208 6.036 2.415.302.302.604.302.906.604l-28.673 16.6-38.029 22.032c-3.018 1.811-6.941 3.32-10.865 4.829z" fill="url(#paint6_linear_1419_1910)"/><path d="M265.598 865.91c-19.92 6.64-45.876 4.829-63.079-4.829-18.713-10.866-49.498-10.866-68.211 0L3.018 936.837 0 931.706l131.29-75.756c20.523-11.771 53.723-11.771 74.247 0 18.712 10.865 49.498 10.865 68.21 0l35.916-20.524 26.862-15.392c2.113.603 4.225 1.207 6.036 2.414.302.302.604.302.906.604l-28.673 16.6-38.029 22.032a95.597 95.597 0 01-11.167 4.226z" fill="url(#paint7_linear_1419_1910)"/><path d="M416.499 689.656l-93.563-54.025c-13.279-7.546-34.708-7.546-47.988 0-14.789 8.45-38.935 8.45-54.025 0l-64.589-37.426 3.018-5.13 64.589 37.425c13.28 7.545 34.709 7.545 47.989 0 14.789-8.451 38.934-8.451 54.025 0l93.563 54.025-3.019 5.131z" fill="url(#paint8_linear_1419_1910)"/><path d="M1423.97 389.341l-93.57-54.025c-13.28-7.546-34.71-7.546-47.99 0-14.78 8.451-38.93 8.451-54.02 0l-64.59-37.425 3.02-5.131 64.59 37.425c13.28 7.545 34.71 7.545 47.99 0 14.79-8.451 38.93-8.451 54.02 0l93.56 54.025-3.01 5.131z" fill="url(#paint9_linear_1419_1910)"/><path d="M893.386 906.353c-7.847-4.527-20.825-4.527-28.672 0-7.848 4.527-7.848 12.073 0 16.6 7.847 4.527 20.825 4.527 28.672 0 7.847-4.829 7.847-12.073 0-16.6z" fill="url(#paint10_linear_1419_1910)"/><path d="M1257.69 656.75c-7.85-4.527-20.83-4.527-28.67 0-7.85 4.528-7.85 12.073 0 16.6 7.84 4.527 20.82 4.527 28.67 0 7.84-4.829 7.84-12.072 0-16.6z" fill="url(#paint11_linear_1419_1910)"/><path d="M342.255 948.913c-7.546 4.226-19.618 4.528-27.466.604-.301-.302-.603-.302-.905-.604-1.811-.905-3.018-2.112-4.225-3.32-3.32-4.225-2.113-9.658 4.225-12.978 6.036-3.621 15.091-4.225 22.636-2.414 2.113.603 4.226 1.207 6.037 2.414.301.302.603.302.905.604 6.64 4.225 6.338 11.167-1.207 15.694z" fill="url(#paint12_linear_1419_1910)"/><path d="M400.509 1021.04c0 8.76-5.734 17.21-16.298 23.24l-115.595 66.7-3.018-5.13 115.897-67c8.451-4.83 13.28-11.47 13.28-18.11 0-6.64-4.829-12.98-13.28-18.11l-45.272-26.256c-10.564-6.036-16.298-14.185-16.298-23.24 0-8.752 5.734-17.203 16.298-23.24l97.184-56.137 6.037 3.32-100.203 57.948c-8.451 4.829-13.28 11.167-13.28 18.109 0 6.64 4.829 12.978 13.28 18.109l45.272 26.258c10.262 6.339 15.996 14.489 15.996 23.539z" fill="url(#paint13_linear_1419_1910)"/><path d="M1378.41 576.47c0 8.752-5.73 17.203-16.29 23.239l-115.9 67.004-3.02-5.131 115.9-67.003c8.45-4.829 13.28-11.469 13.28-18.109 0-6.64-4.83-12.978-13.28-18.109l-45.27-26.258c-10.57-6.037-16.3-14.186-16.3-23.24 0-8.753 5.73-17.204 16.3-23.24l97.18-56.138 6.04 3.32-100.21 57.949c-8.45 4.829-13.28 11.167-13.28 18.109 0 6.64 4.83 12.978 13.28 18.109l45.28 26.258c10.56 6.036 16.29 14.185 16.29 23.24z" fill="url(#paint14_linear_1419_1910)"/><path d="M376.983 677.878c11.169 0 20.222-5.271 20.222-11.771 0-6.501-9.053-11.771-20.222-11.771-11.168 0-20.221 5.27-20.221 11.771 0 6.5 9.053 11.771 20.221 11.771z" fill="url(#paint15_linear_1419_1910)"/><path d="M1145.09 488.341l-3.02-5.131 83-47.989c7.55-4.225 11.47-9.658 11.47-15.393 0-5.734-4.22-11.167-11.47-15.392l-93.56-54.025c-9.36-5.433-14.49-12.677-14.49-20.826 0-8.149 5.13-15.392 14.49-20.825l90.85-52.516c18.11-10.563 47.68-10.563 65.79 0l55.23 31.993-3.01 5.13-55.24-31.992c-16.6-9.356-43.16-9.356-59.76 0l-90.84 52.516c-7.55 4.225-11.47 9.658-11.47 15.393 0 5.734 4.22 11.167 11.47 15.392l93.56 54.025c9.36 5.433 14.49 12.677 14.49 20.826 0 7.847-5.13 15.392-14.49 20.825l-83 47.989z" fill="url(#paint16_linear_1419_1910)"/></g><path d="M1149.04 153.021l-143.97 83.603c-5.731 3.32-12.974 3.32-18.709 0L791.388 124.349c-12.374-7.244-12.374-25.353 0-32.597L935.355 8.15c5.734-3.32 12.978-3.32 18.712 0l194.973 112.276c12.37 7.244 12.37 25.353 0 32.596z" fill="#fff" opacity=".9"/><path d="M1159.58 489.244v61.268l-166.002 96.28v-60.967l166.002-96.581z" fill="url(#paint17_linear_1419_1910)"/><path d="M993.586 585.829v60.967l-212.78-122.537V462.99l212.78 122.839z" fill="url(#paint18_linear_1419_1910)"/><path d="M788.06 520.034l1.207-42.255 195.878 112.88-1.207 41.952L788.06 520.034z" fill="url(#paint19_linear_1419_1910)"/><path d="M1159.58 489.246l-165.994 96.581-212.78-122.839 211.573-70.022 167.201 96.28z" fill="url(#paint20_linear_1419_1910)"/><path d="M999.034 589.752l156.946-90.545v47.687l-156.946 90.545v-47.687z" fill="#D9E1EE"/><path d="M1003.58 590.96l66.1-38.029v40.745l-66.1 38.029V590.96z" fill="#96AAC9"/><path d="M1024.72 590.658l-17.81 10.262v21.127l17.81-10.563v-20.826zm21.1-12.069l-17.81 10.261v21.128l17.81-10.564v-20.825zm20.55-11.776l-18.11 10.262v20.826l18.11-10.262v-20.826z" fill="#0C65F5"/><path d="M1122.5 563.794l3.93-2.415v-41.65l-3.93 2.414v41.651zm-8.46 4.524l4.23-2.113v-41.651l-4.23 2.415v41.349zm-8.16 4.834l4.22-2.415v-41.349l-4.22 2.415v41.349zm-8.14 4.826l3.93-2.414v-41.349l-3.93 2.414v41.349zm-8.45 4.827l4.22-2.415v-41.349l-4.22 2.113v41.651zm-8.14 4.833l3.92-2.415v-41.65l-3.92 2.414v41.651zm-8.46 4.826l4.23-2.414v-41.651l-4.23 2.415v41.65z" fill="#96AAC9"/><path d="M1147.81 432.204v56.439l-154.232 89.64v-56.44l154.232-89.639z" fill="url(#paint21_linear_1419_1910)"/><path d="M993.577 521.848v56.439l-201.01-115.595V405.95l201.01 115.898z" fill="#0EB5E3"/><path d="M1147.8 432.205l-154.223 89.639-201.01-115.897 199.803-63.382 155.43 89.64z" fill="#15C5F3"/><path d="M1159.58 366.704v60.967l-166.002 96.581v-61.269l166.002-96.279z" fill="url(#paint22_linear_1419_1910)"/><path d="M993.586 462.987v61.268l-212.78-122.839v-60.967l212.78 122.538z" fill="url(#paint23_linear_1419_1910)"/><path d="M788.06 397.191l1.207-41.952 195.878 112.577-1.207 42.254L788.06 397.191z" fill="url(#paint24_linear_1419_1910)"/><path d="M1159.58 366.706l-165.994 96.279-212.78-122.537 211.573-70.323 167.201 96.581z" fill="url(#paint25_linear_1419_1910)"/><path d="M999.034 467.211l156.946-90.847v47.989l-156.946 90.544v-47.686z" fill="#D9E1EE"/><path d="M1003.58 468.419l66.1-38.33v40.745l-66.1 38.331v-40.746z" fill="#96AAC9"/><path d="M1024.72 468.118l-17.81 10.262v20.825l17.81-10.262v-20.825zm21.1-12.07l-17.81 10.262v20.826l17.81-10.262v-20.826zm20.55-12.077l-18.11 10.262v21.127l18.11-10.563v-20.826z" fill="#0C65F5"/><path d="M1122.5 440.95l3.93-2.415v-41.348l-3.93 2.112v41.651zm-8.46 4.826l4.23-2.414v-41.349l-4.23 2.113v41.65zm-8.16 4.834l4.22-2.415v-41.651l-4.22 2.415v41.651zm-8.14 4.524l3.93-2.112v-41.651l-3.93 2.414v41.349zm-8.45 4.827l4.22-2.113v-41.65l-4.22 2.414v41.349zm-8.14 4.834l3.92-2.415v-41.349l-3.92 2.415v41.349zm-8.46 4.826l4.23-2.414v-41.349l-4.23 2.113v41.65z" fill="#96AAC9"/><path d="M1147.81 308.154v56.44l-154.232 89.639v-56.44l154.232-89.639z" fill="url(#paint26_linear_1419_1910)"/><path d="M993.577 397.798v56.44L792.567 338.34v-56.439l201.01 115.897z" fill="#0EB5E3"/><path d="M1147.8 308.155l-154.223 89.639-201.01-115.897 199.803-63.381 155.43 89.639z" fill="#15C5F3"/><path d="M1159.58 245.078v60.966l-166.002 96.582v-60.967l166.002-96.581z" fill="url(#paint27_linear_1419_1910)"/><path d="M993.586 341.656v60.967l-212.78-122.537v-61.269l212.78 122.839z" fill="url(#paint28_linear_1419_1910)"/><path d="M788.06 275.558l1.207-41.953 195.878 112.88-1.207 41.952L788.06 275.558z" fill="url(#paint29_linear_1419_1910)"/><path d="M1159.58 245.077l-165.994 96.581-212.78-122.839 165.998-96.279 212.776 122.537z" fill="url(#paint30_linear_1419_1910)"/><path d="M999.034 345.578l156.946-90.545v47.687l-156.946 90.545v-47.687z" fill="#D9E1EE"/><path d="M1003.58 346.786l66.1-38.029v40.745l-66.1 38.029v-40.745z" fill="#96AAC9"/><path d="M1024.72 346.484l-17.81 10.262v20.825l17.81-10.261v-20.826zm21.1-12.069l-17.81 10.261v20.826l17.81-10.262v-20.825zm20.55-11.776l-18.11 10.262v20.825l18.11-10.261v-20.826z" fill="#0C65F5"/><path d="M1122.5 319.318l3.93-2.113v-41.651l-3.93 2.415v41.349zm-8.46 4.826l4.23-2.414v-41.349l-4.23 2.414v41.349zm-8.16 4.834l4.22-2.414v-41.349l-4.22 2.414v41.349zm-8.14 4.827l3.93-2.415v-41.349l-3.93 2.113v41.651zm-8.45 4.825l4.22-2.414v-41.651l-4.22 2.415v41.65zm-8.14 4.834l3.92-2.414v-41.651l-3.92 2.415v41.65zm-8.46 4.525l4.23-2.113v-41.65l-4.23 2.414v41.349z" fill="#96AAC9"/><path d="M1147.81 188.334v56.439l-154.232 89.64v-56.44l154.232-89.639z" fill="url(#paint31_linear_1419_1910)"/><path d="M993.577 277.97v56.44l-201.01-115.898v-56.439l201.01 115.897z" fill="#0EB5E3"/><path d="M1147.8 188.331l-154.223 89.64-201.01-115.898 154.228-89.639L1147.8 188.331z" fill="#15C5F3"/><path d="M1159.58 122.54v61.268l-166.002 96.279v-60.966l166.002-96.581z" fill="url(#paint32_linear_1419_1910)"/><path d="M993.586 219.118v60.967l-212.78-122.537V96.581l212.78 122.537z" fill="url(#paint33_linear_1419_1910)"/><path d="M788.06 153.322l1.207-41.952 195.878 112.577-1.207 42.254L788.06 153.322z" fill="url(#paint34_linear_1419_1910)"/><path d="M1159.58 122.537l-165.994 96.581-212.78-122.537L946.804 0l212.776 122.537z" fill="url(#paint35_linear_1419_1910)"/><path d="M999.034 223.341l156.946-90.846v47.687l-156.946 90.846v-47.687z" fill="#D9E1EE"/><path d="M1003.58 224.55l66.1-38.33v40.745l-66.1 38.331V224.55z" fill="#96AAC9"/><path d="M1024.72 224.249l-17.81 10.262v20.825l17.81-10.262v-20.825zm21.1-12.07l-17.81 10.262v20.826l17.81-10.262v-20.826zm20.55-12.077l-18.11 10.262v20.825l18.11-10.262v-20.825z" fill="#0C65F5"/><path d="M1122.5 197.081l3.93-2.415v-41.348l-3.93 2.112v41.651zm-8.46 4.826l4.23-2.414v-41.651l-4.23 2.415v41.65zm-8.16 4.834l4.22-2.414v-41.651l-4.22 2.415v41.65zm-8.14 4.524l3.93-2.113v-41.65l-3.93 2.414v41.349zm-8.45 4.827l4.22-2.415v-41.349l-4.22 2.415v41.349zm-8.14 4.834l3.92-2.415v-41.349l-3.92 2.415v41.349zm-8.46 4.826l4.23-2.414v-41.349l-4.23 2.113v41.65z" fill="#96AAC9"/><path d="M941.072 271.633l-143.967 83.603c-5.734 3.32-12.978 3.32-18.712 0L583.42 242.961c-12.375-7.244-12.375-25.353 0-32.596l143.966-83.603c5.734-3.32 12.978-3.32 18.712 0l194.974 112.275c12.374 7.244 12.374 25.353 0 32.596z" fill="#fff" opacity=".9"/><path d="M956.183 605.151l.906 61.269-164.49 98.995-.906-61.268 164.49-98.996z" fill="url(#paint36_linear_1419_1910)"/><path d="M791.677 704.142l.906 61.268-214.592-119.519-.905-61.268 214.591 119.519z" fill="url(#paint37_linear_1419_1910)"/><path d="M585.221 641.363l.603-41.952 197.388 109.861-.604 41.953-197.387-109.862z" fill="url(#paint38_linear_1419_1910)"/><path d="M956.167 605.148l-164.49 98.995-214.591-119.519 210.668-73.341 168.413 93.865z" fill="url(#paint39_linear_1419_1910)"/><path d="M797.112 708.065l155.737-92.959.906 47.989-155.737 92.959-.906-47.989z" fill="#D9E1EE"/><path d="M801.65 709.275l65.494-39.236.604 40.745-65.494 39.236-.604-40.745z" fill="#96AAC9"/><path d="M823.084 708.672l-17.807 10.564.302 20.825 17.807-10.563-.302-20.826zm20.808-12.371l-17.807 10.563.302 20.825 17.807-10.563-.302-20.825z" fill="#0C65F5"/><path d="M864.142 684.223l-17.807 10.564.302 20.825 17.807-10.563-.302-20.826z" fill="#19F7FB"/><path d="M920.237 680.297l3.924-2.414-.604-41.651-3.923 2.415.603 41.65zm-8.135 4.827l3.923-2.415-.603-41.65-3.924 2.414.604 41.651zm-8.458 4.834l4.225-2.414-.604-41.349-4.225 2.414.604 41.349zm-8.165 4.827l4.225-2.415-.604-41.349-4.225 2.415.604 41.349zm-8.135 5.127l3.924-2.414-.604-41.651-3.924 2.415.604 41.65zm-8.165 4.834l3.923-2.414-.603-41.651-3.924 2.415.604 41.65zm-8.135 4.827l3.924-2.415-.604-41.348-3.924 2.414.604 41.349z" fill="#96AAC9"/><path d="M943.495 548.405l.906 56.439-153.021 92.054-.604-56.439 152.719-92.054z" fill="url(#paint40_linear_1419_1910)"/><path d="M790.788 640.46l.604 56.44-202.519-112.879-.905-56.44 202.82 112.879z" fill="url(#paint41_linear_1419_1910)"/><path d="M943.507 548.408l-152.719 92.054-202.82-112.879 198.897-66.4 156.642 87.225z" fill="#15C5F3"/><path d="M954.385 482.612l.906 60.967-164.49 98.996-.905-60.967 164.489-98.996z" fill="url(#paint42_linear_1419_1910)"/><path d="M789.88 581.602l.906 60.966-214.591-119.519-.906-60.967 214.591 119.52z" fill="url(#paint43_linear_1419_1910)"/><path d="M583.424 518.823l.603-42.254L781.415 586.43l-.603 42.254-197.388-109.861z" fill="url(#paint44_linear_1419_1910)"/><path d="M954.37 482.608l-164.49 98.996-214.591-119.519 210.668-73.342 168.413 93.865z" fill="url(#paint45_linear_1419_1910)"/><path d="M795.314 585.526l155.738-92.96.603 47.687-155.435 92.96-.906-47.687z" fill="#D9E1EE"/><path d="M799.853 586.735l65.494-39.236.603 40.745-65.494 39.236-.603-40.745z" fill="#96AAC9"/><path d="M821.287 586.132l-17.808 10.563.302 20.826 17.807-10.564-.301-20.825zm20.807-12.372l-17.807 10.564.302 20.825 17.807-10.564-.302-20.825zm20.25-12.379l-17.807 10.563.302 20.826 17.807-10.564-.302-20.825z" fill="#0C65F5"/><path d="M918.445 557.455l3.924-2.414-.604-41.349-3.923 2.415.603 41.348zm-8.157 4.827l3.924-2.415-.604-41.348-4.225 2.414.905 41.349zm-8.436 5.136l4.225-2.415-.604-41.65-4.225 2.414.604 41.651zm-8.165 4.825l4.225-2.414-.604-41.651-4.225 2.415.604 41.65zm-8.135 4.827l3.923-2.414-.603-41.349-3.924 2.414.604 41.349zm-8.165 4.834l3.923-2.414-.603-41.349-3.924 2.414.604 41.349zm-8.135 5.129l3.924-2.415-.604-41.651-3.924 2.415.604 41.651z" fill="#96AAC9"/><path d="M941.711 424.355l.906 56.44-153.021 92.054-.906-56.742 153.021-91.752z" fill="url(#paint46_linear_1419_1910)"/><path d="M788.693 516.108l.906 56.742L587.08 459.97l-.905-56.439 202.518 112.577z" fill="url(#paint47_linear_1419_1910)"/><path d="M941.714 424.358L788.693 516.11 586.175 403.532l198.897-66.399 156.642 87.225z" fill="#15C5F3"/><path d="M952.556 360.981l.906 61.269-164.49 98.995-.906-61.268 164.49-98.996z" fill="url(#paint48_linear_1419_1910)"/><path d="M788.064 459.979l.905 61.268-214.591-119.519-.905-61.269 214.591 119.52z" fill="url(#paint49_linear_1419_1910)"/><path d="M581.607 397.2l.604-41.952 197.388 109.861-.604 41.952L581.607 397.2z" fill="url(#paint50_linear_1419_1910)"/><path d="M952.554 360.983l-164.49 98.995-214.591-119.519 164.489-98.694 214.592 119.218z" fill="url(#paint51_linear_1419_1910)"/><path d="M793.492 463.903l155.737-92.96.906 47.989-155.737 92.96-.906-47.989z" fill="#D9E1EE"/><path d="M798.03 465.112l65.494-39.236.604 40.745-65.494 39.236-.604-40.745z" fill="#96AAC9"/><path d="M819.464 464.509l-17.807 10.563.302 20.826 17.807-10.564-.302-20.825zm20.808-12.372l-17.807 10.564.302 20.825 17.807-10.563-.302-20.826zm20.25-12.077l-17.807 10.564.302 20.825 17.807-10.564-.302-20.825z" fill="#0C65F5"/><path d="M916.616 436.134l3.924-2.414-.604-41.651-3.923 2.414.603 41.651zm-8.135 4.827l3.923-2.415-.603-41.65-3.924 2.414.604 41.651zm-8.458 4.834l4.225-2.415-.604-41.349-4.225 2.415.604 41.349zm-8.166 4.826l4.226-2.414-.604-41.349-4.225 2.415.603 41.348zm-8.134 5.128l3.923-2.415-.603-41.65-3.924 2.414.604 41.651zm-8.165 4.834l3.923-2.415-.603-41.65-3.924 2.414.604 41.651zm-8.135 4.827l3.924-2.415-.604-41.349-3.924 2.415.604 41.349z" fill="#96AAC9"/><path d="M939.862 304.536l.906 56.439-153.021 92.054-.603-56.439 152.718-92.054z" fill="url(#paint52_linear_1419_1910)"/><path d="M787.149 396.591l.604 56.44-202.518-112.879-.906-56.44 202.82 112.879z" fill="url(#paint53_linear_1419_1910)"/><path d="M939.868 304.536L787.149 396.59l-202.82-112.879 153.021-92.054 202.518 112.879z" fill="#15C5F3"/><path d="M950.765 238.743l.906 60.967-164.49 98.996-.906-60.967 164.49-98.996z" fill="url(#paint54_linear_1419_1910)"/><path d="M786.267 337.74l.905 60.967-214.591-119.519-.905-60.967L786.267 337.74z" fill="url(#paint55_linear_1419_1910)"/><path d="M579.811 274.962l.603-42.255 197.388 109.861-.604 42.255-197.387-109.861z" fill="url(#paint56_linear_1419_1910)"/><path d="M950.757 238.744l-164.49 98.996-214.591-119.519 164.489-98.996 214.592 119.519z" fill="url(#paint57_linear_1419_1910)"/><path d="M791.695 341.664l155.737-92.96.906 47.687-155.737 92.96-.906-47.687z" fill="#D9E1EE"/><path d="M796.227 342.873l65.494-39.237.603 40.746-65.494 39.236-.603-40.745z" fill="#96AAC9"/><path d="M817.661 342.27l-17.807 10.563.301 20.825 17.807-10.563-.301-20.825zm20.807-12.372l-17.807 10.563.302 20.826 17.807-10.564-.302-20.825zm20.251-12.379l-17.807 10.563.302 20.826 17.807-10.564-.302-20.825z" fill="#0C65F5"/><path d="M914.819 313.593l3.924-2.414-.604-41.349-3.923 2.414.603 41.349zm-8.134 4.827l3.923-2.415-.603-41.349-3.924 2.415.604 41.349zm-8.459 5.135l4.225-2.415-.604-41.65-4.225 2.414.604 41.651zm-8.165 4.826l4.225-2.414-.604-41.651-4.225 2.415.604 41.65zm-8.135 4.827l3.923-2.415-.603-41.348-3.924 2.414.604 41.349zm-8.165 4.834l3.923-2.414-.603-41.349-3.924 2.414.604 41.349zm-8.135 5.128l3.924-2.414-.604-41.651-3.924 2.415.604 41.65z" fill="#96AAC9"/><path d="M728.916 405.35L584.95 488.952c-5.735 3.32-12.978 3.32-18.713 0L371.264 376.677c-12.374-7.244-12.374-25.353 0-32.596l143.966-83.603c5.735-3.32 12.979-3.32 18.713 0l194.973 112.275c12.375 7.546 12.375 25.353 0 32.597z" fill="#fff" opacity=".9"/><path d="M739.459 739.449v61.268l-165.999 96.28V836.03l165.999-96.581z" fill="url(#paint58_linear_1419_1910)"/><path d="M573.463 836.034V897l-212.78-122.537v-61.269l212.78 122.84z" fill="url(#paint59_linear_1419_1910)"/><path d="M367.931 770.237l1.207-42.254 195.879 112.879-1.208 41.952-195.878-112.577z" fill="url(#paint60_linear_1419_1910)"/><path d="M739.462 739.451l-165.999 96.581-212.78-122.839 211.573-70.021 167.206 96.279z" fill="url(#paint61_linear_1419_1910)"/><path d="M578.909 839.956l157.246-90.545v47.687l-157.246 90.545v-47.687z" fill="#D9E1EE"/><path d="M583.447 841.164l66.098-38.029v40.745l-66.098 38.029v-40.745z" fill="#96AAC9"/><path d="M604.889 840.862l-18.109 10.262v21.127l18.109-10.564v-20.825zm20.8-12.07l-17.807 10.262v21.127l17.807-10.564v-20.825zm20.552-11.775l-18.109 10.262v20.825l18.109-10.262v-20.825z" fill="#027DF7"/><path d="M702.372 813.998l3.924-2.415v-41.65l-3.924 2.414v41.651zm-8.459 4.525l4.225-2.113v-41.651l-3.923 2.415-.302 41.349zm-8.165 4.833l4.226-2.415v-41.349l-4.226 2.415v41.349zm-8.135 4.826l3.924-2.414v-41.349l-3.924 2.414v41.349zm-8.458 4.827l4.226-2.415v-41.349l-4.226 2.113v41.651zm-8.134 4.834l3.923-2.415v-41.651l-3.923 2.415v41.651zm-8.459 4.825l4.225-2.414v-41.651l-4.225 2.415v41.65z" fill="#96AAC9"/><path d="M727.682 682.408v56.44l-154.228 89.639v-56.439l154.228-89.64z" fill="url(#paint62_linear_1419_1910)"/><path d="M573.448 772.052v56.439l-201.01-115.595v-56.742l201.01 115.898z" fill="url(#paint63_linear_1419_1910)"/><path d="M727.676 682.409l-154.228 89.639-201.01-115.897 199.803-63.381 155.435 89.639z" fill="#15C5F3"/><path d="M739.459 616.911v60.966L573.46 774.458V713.19l165.999-96.279z" fill="url(#paint64_linear_1419_1910)"/><path d="M573.463 713.194v61.268l-212.78-122.839v-60.967l212.78 122.538z" fill="url(#paint65_linear_1419_1910)"/><path d="M367.931 647.397l1.207-41.952 195.879 112.577-1.208 42.254-195.878-112.879z" fill="url(#paint66_linear_1419_1910)"/><path d="M739.462 616.912l-165.999 96.28-212.78-122.538 211.573-70.323 167.206 96.581z" fill="url(#paint67_linear_1419_1910)"/><path d="M578.909 717.417l157.246-90.846v47.989l-157.246 90.544v-47.687z" fill="#D9E1EE"/><path d="M583.447 718.627l66.098-38.331v40.745l-66.098 38.331v-40.745z" fill="#96AAC9"/><path d="M604.889 718.324l-18.109 10.262v20.825l18.109-10.261v-20.826zm20.8-12.068l-17.807 10.261v20.826l17.807-10.262v-20.825zm20.552-12.078l-18.109 10.262v21.127l18.109-10.563v-20.826z" fill="#027DF7"/><path d="M702.372 691.159l3.924-2.415v-41.349l-3.924 2.113v41.651zm-8.459 4.826l4.225-2.415v-41.65l-3.923 2.414-.302 41.651zm-8.165 4.833l4.226-2.414v-41.651l-4.226 2.415v41.65zm-8.135 4.525l3.924-2.113v-41.65l-3.924 2.414v41.349zm-8.458 4.826l4.226-2.414v-41.349l-4.226 2.415v41.348zm-8.134 4.835l3.923-2.415V671.24l-3.923 2.415v41.349zm-8.459 4.825l4.225-2.414v-41.349l-4.225 2.113v41.65z" fill="#96AAC9"/><path d="M727.682 558.359v56.439l-154.228 89.64v-56.44l154.228-89.639z" fill="url(#paint68_linear_1419_1910)"/><path d="M573.448 648.002v56.44l-201.01-115.898v-56.439l201.01 115.897z" fill="url(#paint69_linear_1419_1910)"/><path d="M727.676 558.359l-154.228 89.64-201.01-115.898 199.803-63.381 155.435 89.639z" fill="#15C5F3"/><path d="M739.459 495.286v60.967L573.46 652.834v-61.269l165.999-96.279z" fill="url(#paint70_linear_1419_1910)"/><path d="M573.463 591.561v61.269l-212.78-122.538v-61.268l212.78 122.537z" fill="url(#paint71_linear_1419_1910)"/><path d="M367.931 525.765l1.207-41.952 195.879 112.879-1.208 41.952-195.878-112.879z" fill="url(#paint72_linear_1419_1910)"/><path d="M739.462 495.284l-165.999 96.279-212.78-122.538 165.998-96.279 212.781 122.538z" fill="url(#paint73_linear_1419_1910)"/><path d="M578.909 595.785l157.246-90.545v47.687l-157.246 90.545v-47.687z" fill="#D9E1EE"/><path d="M583.447 596.992l66.098-38.028v40.745l-66.098 38.029v-40.746z" fill="#96AAC9"/><path d="M604.889 596.691l-18.109 10.262v20.825l18.109-10.262v-20.825zm20.8-12.07l-17.807 10.262v20.825l17.807-10.261v-20.826zm20.552-11.775l-18.109 10.262v20.825l18.109-10.262v-20.825z" fill="#027DF7"/><path d="M702.372 569.525l3.924-2.113v-41.65l-3.924 2.414v41.349zm-8.459 4.827l4.225-2.415v-41.349l-3.923 2.415-.302 41.349zm-8.165 4.833l4.226-2.415v-41.348l-4.226 2.414v41.349zm-8.135 4.826l3.924-2.414v-41.349l-3.924 2.113v41.65zm-8.458 4.827l4.226-2.415v-41.65l-4.226 2.414v41.651zm-8.134 4.834l3.923-2.415v-41.65l-3.923 2.414v41.651zm-8.459 4.524l4.225-2.113v-41.651l-4.225 2.415v41.349z" fill="#96AAC9"/><path d="M727.682 438.539v56.439l-154.228 89.64v-56.44l154.228-89.639z" fill="url(#paint74_linear_1419_1910)"/><path d="M573.448 528.175v56.439l-201.01-115.897v-56.44l201.01 115.898z" fill="url(#paint75_linear_1419_1910)"/><path d="M727.676 438.536l-154.228 89.639-201.01-115.897 154.228-89.64 201.01 115.898z" fill="#15C5F3"/><path d="M739.459 372.746v61.269L573.46 530.294v-60.967l165.999-96.581z" fill="url(#paint76_linear_1419_1910)"/><path d="M573.463 469.324v60.967l-212.78-122.537v-60.967l212.78 122.537z" fill="url(#paint77_linear_1419_1910)"/><path d="M367.931 403.527l1.207-41.952 195.879 112.577-1.208 42.255-195.878-112.88z" fill="url(#paint78_linear_1419_1910)"/><path d="M739.462 372.745l-165.999 96.581-212.78-122.537 165.998-96.582 212.781 122.538z" fill="url(#paint79_linear_1419_1910)"/><path d="M578.909 473.548l157.246-90.847v47.687l-157.246 90.847v-47.687z" fill="#D9E1EE"/><path d="M583.447 474.757l66.098-38.331v40.746l-66.098 38.33v-40.745z" fill="#96AAC9"/><path d="M604.889 474.153l-18.109 10.563v20.826l18.109-10.262v-21.127zm20.8-11.767l-17.807 10.262v20.825l17.807-10.262v-20.825zm20.552-12.077l-18.109 10.261v20.826l18.109-10.262v-20.825z" fill="#027DF7"/><path d="M702.372 447.289l3.924-2.415v-41.65l-3.924 2.414v41.651zm-8.459 4.826l4.225-2.414V408.05l-3.923 2.415-.302 41.65zm-8.165 4.834l4.226-2.414v-41.651l-4.226 2.415v41.65zm-8.135 4.524l3.924-2.112V417.71l-3.924 2.414v41.349zm-8.458 4.827l4.226-2.415v-41.349l-4.226 2.415V466.3zm-8.134 4.834l3.923-2.415V427.37l-3.923 2.415v41.349zm-8.459 4.826l4.225-2.414v-41.349l-4.225 2.113v41.65z" fill="#96AAC9"/><path d="M479.891 514.909c0-7.244-.604-14.488-1.208-22.033h21.731c-1.509 4.829-3.018 9.356-4.225 13.582-1.208 11.167 6.941 14.185 1.509 25.654-.906 2.113-4.226 4.226-5.433 4.527-4.829 1.509-6.64 4.829-8.149 7.848-.905 2.112-2.113 3.923-3.924 5.432-6.64 5.433-21.428 4.528-24.447-.603-4.225-7.244 16.6-21.127 23.24-33.804.302 0 .604-.302.906-.603zm-62.459-52.823c-1.509-.905-4.226-2.414-6.338-4.225-1.509 2.716-3.018 5.131-4.528 7.847-.301.302-.603.302-.905.604-12.978 7.545-39.84 8.752-39.84 17.505 0 6.338 12.978 15.393 21.731 13.883 2.415-.301 4.527-1.509 6.64-3.018 3.018-1.811 6.338-3.923 11.469-2.716 1.207.302 5.131.302 7.244-1.207 11.167-6.942 6.036-14.186 12.374-23.24-2.414-1.811-5.131-3.924-7.847-5.433z" fill="#1B1823"/><path d="M477.479 429.495s.302-20.221 11.469-40.141c8.753-15.695 28.975-32.294 29.578-32.294.302 0 45.273 17.505 42.858 22.334-1.509 2.716-48.592 47.083-49.498 49.196-1.811 3.622-2.112 5.734-1.509 9.96 3.018 16.298-4.829 63.079-8.752 77.567-6.339 1.811-22.335 1.509-28.371-1.811.302-.604 3.622-73.945 4.225-84.811 0 0-.603 10.866 0 0z" fill="url(#paint80_linear_1419_1910)"/><path opacity=".3" d="M477.483 430.096v-.603c-.302 9.054 0 3.018 0 .603z" fill="#123F5D"/><path d="M543.891 420.74c-29.879-3.018-56.137-8.45-56.137-8.45-11.168 33.501-60.062 61.872-66.098 65.795-3.32-.603-15.695-10.261-18.109-14.487 9.658-14.789 55.534-76.359 69.719-85.414 8.753-5.734 86.923-1.207 87.225-5.131 0-1.509 18.109-3.018 19.618-3.018 15.091.604 16.6 56.138-36.218 50.705z" fill="url(#paint81_linear_1419_1910)"/><path d="M542.077 211.883c.302 6.64 3.32 13.582.906 19.618-1.51 3.622-4.829 6.036-6.942 9.055-3.622 4.829-4.527 11.469-3.018 17.203 1.207 3.924 3.621 7.244 4.527 11.167 1.509 6.037 0 12.073-2.113 17.807-2.113 5.735-4.829 11.469-5.131 17.506-.302 2.716.302 5.734 2.415 7.243 2.113 1.509 4.829.604 7.243-.301 5.433-2.415 9.96-6.64 12.677-11.771 4.829-9.357 3.923-20.222 4.829-30.785.603-7.546 2.414-14.789 3.622-22.335.905-7.545 1.207-15.091-.906-22.334-2.113-6.338-6.036-12.375-6.338-19.015 0-3.018.905-5.734 1.509-8.752.302-1.811-.302-2.717-2.113-2.717-4.527-.302-7.847 6.037-9.356 9.658-1.207 2.717-1.811 5.735-1.811 8.753z" fill="#260905"/><path d="M526.09 288.845c2.415 4.829 10.866 8.451 15.695 9.96l-20.826 24.749c-5.131-3.32-15.091-7.244-16.6-14.789 3.622-6.64 12.677-18.109 19.317-27.466.603 3.018 1.509 5.735 2.414 7.546z" fill="#FFC6A6"/><path d="M528.201 297.898c-4.829-2.414-7.244-6.942-8.753-11.469 8.753-16.298 18.411-31.992 18.411-31.992 2.716-5.131 13.28-7.546 18.411-4.829 0 0 2.414 9.356-.302 14.487l-18.109 35.916c-3.32-.906-7.244-.906-9.658-2.113z" fill="#0894F7"/><path d="M592.497 264.998c-.302 3.32-2.113 6.339-4.528 8.149-2.414 1.811-5.734 3.019-9.054 2.415l-31.087 10.564c-3.622-.302-1.509-16.298-3.622-19.015.906-.905 1.509-1.811 1.811-3.32.302-3.018 1.509-5.131 3.32-7.847 1.207-1.811 5.131-5.735 6.036-6.64l3.924-.905 1.811.301 17.807 1.811c.302.302.604.302.604.604 11.167 8.753 5.734 3.018 12.978 13.883z" fill="#FFC6A6"/><path d="M580.101 245.079l-.604 3.923-.301 1.811-.906 6.037s-.905 1.207-2.414 2.414c-.302.302-.604.604-1.208.906-1.207.603-2.414 1.207-3.923 1.509-1.509.302-3.32.603-5.131.302-.604 0-1.207 0-2.113-.302-.604 0-1.509-.302-2.113-.604-1.509-.604-2.414-1.509-2.716-2.414 0-.302-.302-.302-.302-.604-.302-.906-.603-1.811-.603-2.716l1.207-6.942.604-2.717.905-4.829 1.811.302 17.807 3.924z" fill="#FFC6A6"/><path d="M531.213 323.251c-1.207 15.694-6.64 23.541-12.676 39.538 1.509.905 3.018 2.414 4.527 3.32 4.226 3.018 7.848 4.225 12.978 5.13 3.32.604 7.848.906 10.262 3.32 1.509 1.509 1.811 4.226 3.32 5.735 1.811 2.113 5.131 3.32 7.546 4.225 14.185 4.226 29.879 9.658 38.33-2.414 5.433-7.546-1.811-7.546-2.716-16.6-1.509-14.789 0-24.447 1.811-38.029 1.509-11.167 4.829-20.222 7.847-31.389 1.509-4.829 11.771-10.865 11.167-15.996-.905-10.262-23.24-20.825-31.087-25.654-2.716 11.77-9.96 27.465-24.447 26.861-22.334-.905-8.451-23.541-.302-32.596-12.374-1.207-17.807 9.055-23.843 21.127-2.415 4.829-7.848 11.167-9.055 15.393-4.225 15.392 7.546 20.523 6.338 38.029z" fill="url(#paint82_linear_1419_1910)"/><path d="M586.451 304.239c-1.811 13.884-3.018 28.672-3.923 38.632-.604 0-1.509.302-2.113.302-9.356 1.208-19.316 4.226-24.749 5.433-9.054 1.811-22.636 8.149-22.636 8.149a7.353 7.353 0 01-3.622 0c-1.509 0-3.018-.905-3.018-.905-.604-.604-2.716-2.113-3.018-2.415-2.717-1.509-5.735-2.113-8.451-3.622-.906-.302-3.018-2.113-4.225-2.113-.302 0-.302.302-.302.604-.906 3.018 2.112 4.226 4.225 5.131-1.207-.302-2.414-.604-3.622-.604-1.509-.301-8.451-1.811-8.752 0 0 .906 1.207 1.208 1.811 1.509 2.716.906 5.432 1.811 8.45 2.415-2.414-.302-4.829-.905-7.243-1.207-1.207-.302-5.433-.604-5.735.905 0 .604.302.906.906 1.207 2.113.604 4.527 1.208 6.942 1.51-1.51 0-3.019-.302-4.528-.302-.603 0-2.112 0-2.414.905-.604 1.207.905 1.509 1.509 1.811 3.018.604 5.734 1.207 8.753 1.509-1.811.302-6.339 0-7.848.604-.302 0-.603.302-.302.603.302.604.906.604 1.51.906 3.621.905 5.432 1.509 9.054 2.414 1.509.302 3.924.604 5.433.906 1.811 0 3.32.302 5.131.603 1.207 0 3.018.302 4.527.302l1.207-.302c19.015-.603 35.011-1.207 54.025-1.81 6.037-.302 13.28-.302 17.506-4.226v-.302c1.207-1.207 2.414-3.018 2.716-5.432 3.32-8.753 6.64-33.804 8.149-49.196l-25.353-3.924z" fill="#FFD6BF"/><path d="M592.775 321.438c-3.622-1.509-6.036-3.32-8.451-5.734 1.509-13.28 3.32-27.767 6.338-38.633 1.811-7.243 9.357-10.865 15.695-8.45 4.527 1.81 8.451 7.545 8.451 14.185 0 1.207 0 3.622-.302 6.942 0 0-1.509 15.392-3.622 31.69-6.036 1.811-12.073 2.415-18.109 0z" fill="url(#paint83_linear_1419_1910)"/><path d="M580.703 244.478l-.603 3.622-.906 6.942s-.905 1.207-2.414 2.112c-.302.302-.604.604-1.207.604-1.208.604-2.415 1.207-3.924 1.509-2.415.302-4.527.604-6.942 0-.604 0-1.509-.302-2.113-.604-1.509-.603-2.414-1.509-3.018-2.716-.302-.905-.603-1.509-.603-2.414l1.509-8.753.905-4.226 19.316 3.924z" fill="#FFC6A6"/><path d="M592.779 231.802c-13.28 10.261-17.506 19.316-28.673 10.261-10.865-9.356-17.807-29.879-12.978-45.876 5.131-16.901 27.767-17.203 41.047-7.243 17.204 12.374 13.582 33.2.604 42.858z" fill="#260905"/><path d="M549.316 207.656c-1.811 15.694-2.414 31.992 5.735 39.236 2.716 2.414 6.338 2.716 10.261 2.414.906 0 1.51-.301 2.415-.301 4.527-.906 8.753-2.717 11.469-4.226 3.924-2.113 9.055-16.298 10.564-21.127 4.225-15.393-7.244-17.203-16.6-25.051-9.357-8.149-21.731-6.64-23.844 9.055z" fill="#FFD6BF"/><path d="M589.451 224.257c-1.811 3.924-4.225 6.036-6.941 5.433-2.717-.604-3.622-3.622-2.415-7.847 1.207-4.226 5.131-6.942 7.847-6.338 2.415.603 3.622 4.225 1.509 8.752z" fill="#FFD6BF"/><path d="M567.116 208.867c-5.433-1.811-12.978-3.32-15.695-8.753-.603-1.207-.905-2.414-1.207-3.622 2.716-6.338 5.433-6.036 15.091-10.261 6.64-2.717 12.072-5.433 15.996 2.716.604 1.509 2.716 2.415 1.509 2.415-7.847 12.374 10.262 26.258-2.113 30.181-.603-6.338-8.451-10.865-13.581-12.676z" fill="#260905"/><path d="M584.637 229.083c-2.414 3.32-4.829 4.829-7.243 3.924-2.113-.905-2.717-3.924-.906-7.545 1.811-3.622 6.037-5.433 8.149-4.528 2.415 1.208 2.717 4.528 0 8.149z" fill="#FFD6BF"/><path d="M591.272 188.339c2.717 2.113 5.131 4.226 6.942 6.64 1.509 3.622 4.226 6.942 5.433 10.865 1.207 4.226.604 8.451 0 12.677-.604 5.131-1.509 11.167-4.829 15.392l-22.938-2.716c1.509-12.676 1.509-24.447-1.811-32.898-3.622-8.149 7.847-17.505 17.203-9.96z" fill="#260905"/><path d="M565.617 325.366c-4.226-4.225-9.055-7.545-8.451-14.487.301-4.226 2.414-7.847 4.829-11.167 1.811-1.208 3.32-2.415 3.923-4.528.302-.905.302-1.81.604-2.716 0-2.113.302-3.923-.604-5.734-.905-2.113-2.112-3.622-2.112-6.037 0-2.716 2.112-4.829 4.527-6.338 2.113-1.509 4.829-2.414 6.942-4.225.603-.302.905-.906.905-1.509 0-.906-.302-1.509-.905-2.113-1.509-1.811-3.622-3.32-4.528-5.433-1.207-2.414-.905-5.432 0-8.149 1.208-2.414 3.019-4.527 5.131-6.338 1.509-1.509 3.622-3.018 3.32-5.131-.302-2.112-2.716-3.32-4.225-4.829-2.415-2.414-2.717-6.036-2.415-9.356.906-10.262 7.244-19.92 16.298-25.051 3.32-1.811 7.546-3.018 10.564-1.207l.302-4.829c6.338 7.847 6.64 18.712 5.734 28.672-.302 3.924-.905 7.848-3.018 11.168-1.811 3.018-4.527 5.432-5.433 8.752-1.207 3.32-.301 7.244.906 10.564.905 2.414 2.113 5.432 1.207 7.847-.905 2.415-3.018 3.924-5.433 4.829-2.414.905-4.829 1.509-6.941 3.018-4.829 3.32-5.131 10.262-3.622 15.996 1.207 3.924 3.018 8.451.302 11.771-.906 1.208-2.415 1.811-3.622 2.717-4.226 2.716-6.64 8.149-5.433 12.978.906 3.923 4.226 7.545 3.32 11.469-.603 2.716-2.716 4.829-4.527 6.941-.604.604-1.207 1.51-1.811 2.113-1.811-3.32-3.32-6.942-5.734-9.658z" fill="#260905"/><path d="M517.618 311.479c-4.829-7.244-2.414-9.055-9.658-4.226l-50.705 12.677c-.302 3.32-.302 6.941-.302 10.261v4.528s54.327 2.414 63.985-10.564c3.622-4.829 1.509-5.433-3.32-12.676z" fill="#FFC6A6"/><path d="M523.351 340.759l-65.494-38.633c-.906-.603-1.811-.603-2.415-.302-1.207.604-2.113 1.208-3.32 1.811.604-.302 1.509-.302 2.415.302l3.32 2.113h-.302c-.604.302-1.207.603-1.811 1.207-.302.302-.906.604-1.207.604-.302.301-.604.603-.604 1.207l-.604 40.141c0 1.208.906 2.717 1.811 3.32.604-.301.906-.603 1.509-.905l-1.509.905 62.778 37.124c.604.302.905.302 1.509 0 1.207-.604 2.113-1.207 3.32-1.811v3.924c0 .905-.302 1.81-.905 2.112.603-.302 1.207-.603 1.509-.905.603-.302 1.207-.604 1.509-.906.603-.301.905-.905.905-2.112l.604-43.764c0-1.811-1.207-4.225-3.018-5.432z" fill="#393244"/><path d="M520.035 342.869l-65.494-38.632c-1.811-.906-3.32-.302-3.32 1.81l-.604 43.764c0 2.112 1.509 4.527 3.32 5.734l65.494 38.633c1.811.905 3.32.302 3.32-1.811l.604-43.764c0-2.414-1.509-4.829-3.32-5.734z" fill="#1B1823"/><path d="M462.085 336.832c0-.905-1.509-2.414-1.207-2.716.302-.302 1.509-1.207-.906-3.622-.905-.905-2.112-1.509-3.018-2.112-.905-.604-1.811-1.208-3.018-1.811-1.207-.906-2.113-3.018-2.716-4.528-.302 0-2.113.906-2.415 3.32 0 .906-.302 1.811-.302 2.717-.302 1.811-.905 3.622-.603 5.432.301 1.208.603 1.811.603 3.019.302 3.621 6.64 10.261 8.451 6.338 1.509 0 2.415-.302 2.415-2.113 0-.604-1.208-1.509-.906-1.509.906-1.207 3.622.905 3.622-2.415z" fill="#FFCAAB"/><path d="M933.897 857.814l.292 98.788 7.087 4.185-.291-98.885-7.088-4.088z" fill="#BECEF9"/><path d="M940.977 861.9l.291 98.886 7.087-4.186-.291-98.788-7.087 4.088z" fill="#98A4E0"/><path d="M933.897 857.814l7.088 4.088 7.087-4.088-7.087-4.088-7.088 4.088z" fill="#37404A"/><path d="M1003.99 817.228l.39 98.788 6.99 4.088-.3-98.789-7.08-4.087z" fill="#BECEF9"/><path d="M1011.07 821.316l.29 98.788 7.09-4.087-.29-98.789-7.09 4.088z" fill="#98A4E0"/><path d="M1003.99 817.229l7.08 4.087 7.09-4.087-6.99-4.088-7.18 4.088z" fill="#37404A"/><path d="M861.079 814.599l.291 98.788 7.088 4.088-.292-98.788-7.087-4.088z" fill="#BECEF9"/><path d="M868.158 818.686l.291 98.788 7.088-4.087-.292-98.788-7.087 4.087z" fill="#98A4E0"/><path d="M861.079 814.601l7.087 4.088 7.087-4.088-7.087-4.088-7.087 4.088z" fill="#37404A"/><path d="M858.85 804.576l.097 10.511 82.036 47.886v-10.609l-82.133-47.788z" fill="#10191B"/><path d="M940.982 852.364v10.609l82.718-47.886-.1-10.511-82.618 47.788z" fill="#98A4E0"/><path d="M858.85 804.575l82.133 47.788 82.617-47.788-82.131-47.885-82.619 47.885z" fill="#37404A"/><path d="M858.554 676.198l.291 128.376 7.087 4.088-.291-128.376-7.087-4.088z" fill="#BECEF9"/><path d="M865.635 680.285l.291 128.376 7.087-4.088-.291-128.376-7.087 4.088z" fill="#98A4E0"/><path d="M858.554 676.2l7.087 4.087 7.087-4.087-7.087-4.088-7.087 4.088z" fill="#EFF6FE"/><path d="M933.8 632.792l.291 128.376 6.99 4.088-.291-128.376-6.99-4.088z" fill="#BECEF9"/><path d="M940.797 636.881l.291 128.376 7.087-4.088-.291-128.376-7.087 4.088z" fill="#98A4E0"/><path d="M933.8 632.793l6.99 4.088 7.087-4.088-6.99-4.087-7.087 4.087z" fill="#37404A"/><path d="M856.428 693.328l.194 52.849 6.505 3.893-.195-52.946-6.504-3.796z" fill="#10191B"/><path d="M862.926 697.125l.194 52.947 93.104-53.92-.097-52.947-93.201 53.92z" fill="#242A31"/><path d="M856.428 693.328l6.504 3.796 93.202-53.92-6.602-3.796-93.104 53.92z" fill="#37404A"/><path fill-rule="evenodd" clip-rule="evenodd" d="M997.786 709.191c-3.064-4.93-6.046-10.404-8.144-14.312-.141-3.063-.237-6.199-.335-9.362-.311-10.09-.632-20.464-2.416-29.663-2.913-15.086-9.806-31.048-22.427-40.586-2.039-1.558-4.66-3.115-7.281-2.531-2.913.584-4.757 3.309-6.116 5.937-2.913 5.742-4.952 11.096-4.855 17.422.097 6.229 1.262 12.555 3.301 18.492 2.008 5.881 3.868 11.46 5.627 16.733 3.44 10.316 6.49 19.463 9.488 27.413-1.448 1.275-2.446 2.658-2.49 4.419-.097 7.786 8.155 20.147 17.378 31.34l.262-.266c5.396 6.399 13.968 13.45 20.071 18.47 3.201 2.636 5.731 4.713 6.751 5.84 3.69 4.088 18.93-3.309 15.34-11.193-3.78-8.467-16.7-28.42-23.881-38.347-.092.064-.183.128-.273.194z" fill="url(#paint84_linear_1419_1910)"/><path d="M1058.93 918.348c12.81 6.229 24.85 13.82 36.89 21.412 3.4 2.141 6.79 2.822 9.9 5.45 2.53 2.239 6.02 6.716 6.21 10.22.39 4.574-8.83 7.981-12.32 9.051-4.96 1.557-9.71 1.849-14.76 1.071-4.95-.779-8.16-3.212-11.46-6.911-2.91-3.406-5.82-7.202-10-8.662-3.88-1.46-8.83-.778-11.84-3.698-1.56-1.46-2.23-3.601-2.72-5.743-.97-3.893-.78-8.078-1.75-11.971-.68-2.823-2.04-5.84-1.84-8.76.19-2.53 2.81-4.769 5.14-5.45 2.62-.779 5.44-.195 7.87 1.071l.68 2.92zm-54.76 27.348c10.98 8.857 20.88 18.785 30.78 28.81 2.82 2.822 5.73 5.742 8.06 8.954 1.94 2.628 4.46 6.229 3.98 9.733-.68 4.477-10.29 5.742-13.88 6.034-5.05.389-9.71-.292-14.37-2.239-4.57-1.849-7.19-4.866-9.52-9.246-2.04-3.893-3.98-8.175-7.67-10.609-3.492-2.238-8.249-2.725-10.579-6.229-1.165-1.752-1.359-3.99-1.359-6.131-.097-3.991.971-7.981.873-11.874-.097-2.92-.679-6.035.195-8.857.776-2.433 3.786-3.893 6.213-4.088 2.621-.195 5.337.973 7.277 2.725v3.017z" fill="#10191B"/><path d="M891.657 731.282c.68 5.061 1.165 10.22 1.359 15.281-.291-5.159-.679-10.22-1.359-15.281z" fill="#F3A984"/><path d="M893.012 746.465c.194 3.114.194 6.229.194 9.246-.097 0-.097-.097-.194-.097a143.85 143.85 0 000-9.149z" fill="#F3A984"/><path d="M1069.8 806.225c7.38 4.866 15.63 37.082-12.82 38.25-14.75.584-28.05-7.689-41.26-14.21-18.248-8.954-37.762-14.891-56.208-23.359-5.631-2.628-11.262-5.45-16.117-9.343-11.844-9.538-18.349-25.208-16.892-40.294.194-2.141.582-4.283 1.65-6.132 4.951-8.857 36.116-5.84 43.397-2.238 26.698 13.236 90.58 52.362 98.25 57.326z" fill="#242A31"/><path d="M1078.44 829.097c-.39 7.884-1.16 15.67-2.33 23.456-1.26 8.663-2.72 17.422-3.11 26.182-.48 9.441.2 18.881 0 28.42-.09 5.937.1 11.971-1.45 17.713-.78 2.726-1.65 5.645-4.08 7.203-2.91 1.752-6.41 2.822-9.71 3.309-2.33.292-4.75.292-6.89-.39-7.48-2.433-7.77-12.944-9.22-19.368a186.307 186.307 0 01-3.21-18.103c-1.55-11.874-2.13-23.845-2.81-35.914-.39-7.981-.78-15.962-.49-23.845.29-7.3.49-14.794 3.89-21.218 3.3-6.424 10.77-10.998 17.66-12.458 7.77-1.557 15.25 1.46 19.13 8.565 2.33 4.185 3.11 9.149 2.82 14.015-.1.779-.1 1.655-.2 2.433zm-57.36 4.769c6.7 5.548 12.43 39.418-14.56 38.64-13.984-.39-26.12-9.928-38.255-17.519-38.834-24.527-87.28-33.092-79.901-81.756.679-4.477 1.844-23.456 5.339-25.597 2.525-1.558 16.505 3.406 19.612 3.893 30.29 5.061 34.174 5.158 39.125 8.565.874 22.774 4.466 26.668 16.893 34.162 5.728 3.504 46.697 35.427 51.747 39.612z" fill="#242A31"/><path d="M1026.9 856.447c-.97 7.883-2.13 15.572-3.88 23.261-1.84 8.565-3.79 17.13-4.85 25.889-1.07 9.441-1.07 18.882-1.85 28.323-.48 5.84-.68 11.971-2.62 17.519-.87 2.628-2.04 5.548-4.56 6.91-3.01 1.558-6.6 2.434-9.905 2.628-2.33.195-4.757 0-6.893-.876-7.281-2.92-6.893-13.431-7.961-19.952a193.404 193.404 0 01-2.039-18.2c-.776-11.972-.485-23.943-.388-36.012.097-7.981.291-15.962 1.068-23.845.776-7.203 1.456-14.697 5.339-20.926 3.69-6.132 11.456-10.219 18.449-11.193 7.86-1.07 15.05 2.434 18.44 9.83 2.04 4.38 2.43 9.344 1.95 14.113-.1.876-.2 1.752-.3 2.531z" fill="#37404A"/><path d="M891.652 633.273c8.932-6.132 26.893-14.113 44.368-19.563 24.465-7.689 27.961 1.265 34.951 20.828 6.601 18.2 4.66 48.372 1.747 67.74-1.553 10.317-2.524 20.634-2.815 31.048-.097 3.796.679 7.592 1.165 11.388.194 1.654.776 3.406.097 4.963-.874 1.947-3.689 3.991-5.34 5.353-7.572 6.327-17.281 9.733-27.087 10.512-13.688 1.07-28.542-1.46-41.552-5.645-2.718-.876-5.631-1.947-7.378-4.283-1.554-2.044-2.039-4.671-2.33-7.105-1.165-8.078-1.845-16.253-1.942-24.429-.097-3.699 0-7.3-.291-10.998-.389-5.353-1.554-10.706-2.719-15.962-1.553-7.202-3.203-14.405-4.854-21.704-.874-3.601-1.65-7.202-2.524-10.804-.68-2.627-1.748-4.963-1.553-7.689.485-10.706 9.902-18.103 18.057-23.65z" fill="url(#paint85_linear_1419_1910)"/><path d="M923.69 687.678c5.243 25.695 10.485 52.071 35.339 64.918 1.942.974 3.787 2.141 5.534 3.407-7.378 5.645-16.601 8.857-25.825 9.635-13.688 1.071-28.542-1.46-41.552-5.645-2.718-.876-5.631-1.946-7.378-4.282-1.554-2.044-2.039-4.672-2.33-7.105-1.165-8.078-1.845-16.254-1.942-24.43-.097-3.698 0-7.299-.291-10.998-.389-5.353-1.554-10.706-2.719-15.962-1.553-7.202-3.203-14.404-4.854-21.704-.874-3.601-1.65-7.202-2.524-10.803-.68-2.628-1.748-4.964-1.553-7.689.097-1.46.291-2.92.776-4.283 4.175 1.752 8.349 3.31 12.524 4.964 14.951 5.84 33.786 14.113 36.795 29.977z" fill="#fff"/><path d="M936.608 744.909c2.621 2.239 5.63 4.866 8.252 7.105 3.689-5.84 3.786-6.326 7.184-12.166.097-34.649-1.359-67.157-9.611-100.345a580.251 580.251 0 01-7.961 5.645c4.174 31.729 6.796 64.82 2.136 99.761z" fill="#37404A"/><path d="M945.924 638.627c0 .098.097.292 0 .487 0 .973-.583 2.239-.971 3.114-.68 1.947-1.651 3.894-2.719 5.743-.582.973-1.262 2.044-2.33 2.433-1.165.487-2.621.097-3.689-.487-1.262-.681-3.592-1.751-3.398-3.406.291-1.363.777-2.823 1.165-4.185.971-2.725 2.233-6.132 4.757-7.884 2.816-1.849 4.854.973 6.408 3.017.388.584.679.779.777 1.168z" fill="#283032"/><path d="M909.815 624.612c.195-7.008 4.952-8.76 3.495-22.094-.485-4.38-5.339-10.803 7.282-10.609 3.398.098 6.796.876 10.097 2.044 11.747 3.893 13.397 6.813 14.174 31.145-10-.973-18.834-12.069-29.125-5.45-2.719 2.044-4.563 4.672-5.825 7.591-.098-.876-.098-1.752-.098-2.627z" fill="#EE9C76"/><path d="M915.73 619.647c10.291-6.618 19.126 4.477 29.126 5.45v1.071c.485 17.325-32.427 17.811-34.951 1.071 1.359-2.92 3.107-5.548 5.825-7.592z" fill="#F5A783"/><path d="M938.938 636.583c.679 2.044 3.397 2.823 5.145 3.991.777.487 2.136 1.557 3.204 1.363 1.068-.195 1.65-1.655 2.039-2.434 2.524-6.229 3.98-13.042 4.077-19.855 0-2.141-.291-4.574-2.039-6.034-1.553-1.363-4.077-1.655-5.922-.876-1.942.876-2.427 4.769-1.747 6.618 2.524 6.424-.292 13.918-4.757 17.227z" fill="#fff"/><path d="M939.226 636.681s-3.106 4.963-6.99 8.37c-.971.876-1.747 1.849-3.009 1.46-6.214-1.947-19.32-13.042-21.844-19.953-.971-2.53.873-5.645 2.233-7.591.291-.389 2.232-3.115 2.621-3.309.291.389 1.65 5.353 3.786 8.662 5.049 7.3 14.272 11.095 23.203 12.361z" fill="#fff"/><path d="M957.284 563.782c2.524 3.99 3.981 8.662 3.884 13.528 0 2.142-.389 4.283-1.068 6.229-.68 1.85-1.845 3.699-1.845 5.743 0 2.433 1.748 5.158 2.524 7.397.68 2.044 1.068 4.379.292 6.423-.486 1.168-1.263 2.142-1.942 3.212-3.204 5.061-.194 12.458-5.728 16.059-1.359.876-3.01 1.071-4.66 1.168-2.136.195-11.359-2.433-14.951-3.99-3.981-1.752-7.864-6.327-10.68-9.538-2.233-2.531-6.019-5.84-7.475-8.955-.486-.973.582-1.07-.388-1.557-.583-.292-1.263-3.99-1.942-4.088-.777-.097-1.845-.973-2.427-1.362-1.262-.779-1.845 2.238-2.233.778-1.748-6.131-3.981-12.36-3.689-18.881.194-5.937.097-10.998 3.883-16.059 2.815-3.796 6.893-6.521 11.359-8.176 6.796-2.531 14.368-2.725 21.261-.389 6.505 2.238 12.233 6.715 15.825 12.458z" fill="#FFBFA2"/><path d="M904.956 575.947c.194-5.937.097-10.998 3.883-16.059 2.815-3.796 6.893-6.521 11.359-8.176 4.077-1.557 8.446-2.141 12.718-1.946 6.408 12.944-2.913 29.49 4.175 42.824 2.33 3.115 7.087 5.548 7.087 9.441 1.553 7.105-5.437 13.334-1.554 20.439-3.203-.876-6.796-2.044-8.737-2.92-3.981-1.752-7.864-6.326-10.68-9.538-2.232-2.531-6.019-5.84-7.475-8.954-.485-.974.582-1.071-.388-1.558-.583-.292-1.263-3.99-1.942-4.087-.777-.098-1.845-.974-2.427-1.363-1.359-.779-1.942 2.239-2.33.779-1.748-6.132-3.981-12.361-3.689-18.882z" fill="#F8B495"/><path d="M900.88 575.071c-.486-17.227 11.456-20.439 11.456-20.439s5.242-8.954 19.125-8.37c7.282.389 14.466 2.725 20.582 6.618.292.195.486.292.777.487 3.01 1.947 5.825 4.282 7.767 7.3 5.242 8.175-1.845 14.793-10.485 13.431-4.078-.681-7.767-2.531-11.65-3.893-2.719-.974-5.729-1.655-8.35-.487-2.621 1.168-4.174 3.991-4.563 6.813-.971 6.229 1.165 12.458 1.359 18.59 0 .876 0 1.849-.485 2.725-1.262 2.141-3.592.973-4.854-.389-.874-.876-1.457-1.947-2.33-2.823-.777-.876-1.845-1.752-3.01-1.946-1.942-.39-3.398 1.168-3.689 2.919-.291 1.655 0 3.31.485 4.867.097.292.874 3.114-.291 3.114-1.165.098-11.456-10.511-11.844-28.517z" fill="#37404A"/><path d="M934.956 569.232c-1.65-.194-3.398-.194-4.854.487-2.621 1.168-4.174 3.991-4.563 6.813-.971 6.229 1.165 12.458 1.359 18.59 0 .876 0 1.849-.485 2.725-1.262 2.141-3.592.973-4.854-.389-.874-.876-1.457-1.947-2.33-2.823-.777-.876-1.845-1.752-3.01-1.946-1.942-.39-3.398 1.168-3.689 2.919-.291 1.655 0 3.31.485 4.867.097.292.874 3.114-.291 3.114s-11.456-10.608-11.844-28.614c-.486-17.227 11.456-20.439 11.456-20.439s5.048.876 11.262 5.061c6.601 4.38 11.358 9.635 11.358 9.635z" fill="#242A31"/><path d="M912.139 600.182c2.33 3.309 6.214 4.671 8.447 3.017 2.33-1.655 2.233-5.743-.097-9.052-2.33-3.309-6.117-4.671-8.447-3.017-2.33 1.655-2.33 5.743.097 9.052z" fill="#FFBFA2"/><path d="M914.276 594.732c-.679.779-.679 2.142.098 2.92.873.973 2.621 1.071 3.203 2.336.195.487.292 1.071.68 1.265.485.195 1.068-.292 1.068-.778 0-.584-.291-1.071-.68-1.46-.291-.39-.679-.779-.873-1.363-.195-.486-.098-1.07-.098-1.654.098-2.044-2.135-2.823-3.398-1.266z" fill="#F3A984"/><path d="M975.734 935.089l.389 141.611 9.417 5.55-.291-141.613-9.515-5.548z" fill="#98A4E0"/><path d="M985.242 940.637l.291 141.613 9.515-5.55-.291-141.611-9.515 5.548z" fill="#C6D5FA"/><path d="M975.734 935.089l9.515 5.548 9.514-5.548-9.514-5.547-9.515 5.547z" fill="#37404A"/><path d="M846.121 859.469l.388 141.611 9.418 5.55-.389-141.613-9.417-5.548z" fill="#98A4E0"/><path d="M855.539 865.017l.388 141.613 9.515-5.55-.292-141.611-9.611 5.548z" fill="#C6D5FA"/><path d="M846.121 859.468l9.417 5.548 9.612-5.548-9.515-5.451-9.514 5.451z" fill="#37404A"/><path d="M1201.26 804.283l.29 141.613 9.52 5.548-.39-141.613-9.42-5.548z" fill="#98A4E0"/><path d="M1210.67 809.831l.39 141.613 9.52-5.548-.29-141.613-9.62 5.548z" fill="#C6D5FA"/><path d="M1201.26 804.282l9.42 5.548 9.61-5.548-9.51-5.45-9.52 5.45z" fill="#37404A"/><path d="M846.317 859.467l.097 10.9 139.026 81.075v-10.998l-139.123-80.977z" fill="#98A4E0"/><path d="M985.438 940.446v10.998l234.942-136.162v-10.901L985.438 940.446z" fill="#BECEF9"/><path d="M846.317 859.469l139.123 80.977 234.95-136.065-139.13-81.075-234.943 136.163z" fill="#ECF5FE"/><path d="M1080.97 789.584v8.273l-95.633 55.672.097-8.273 95.536-55.672z" fill="#10191B"/><path d="M985.434 845.257l-.098 8.272-59.318-34.259.097-8.37 59.319 34.357z" fill="#242A31"/><path d="M1080.96 789.584l-95.527 55.672-59.319-34.357 95.536-55.672 59.31 34.357z" fill="#37404A"/><path d="M1006.3 784.23l-25.919 15.086-14.174-8.176 26.019-15.086 14.074 8.176zm-54.162 35.915l87.282-50.806 31.16 18.006-87.278 50.903-31.164-18.103z" fill="#0D1315"/><path d="M1011.94 767.978c.78 1.557 3.59 5.742 4.76 6.91 1.26 1.265.39-3.893 2.13-3.893 2.62.097 5.54 1.752 7.48.097 1.55-1.362 3.2-2.822 4.37-4.574 1.16-1.752 1.94-3.893 1.84-5.937-.1-.779-.29-1.655-.78-2.336-.29-.487-.77-.876-1.16-1.168-2.33-2.044-4.66-4.185-7.09-6.229-.48-.487-1.07-.876-1.65-1.265-.77-.487-1.75-.681-2.62-.681-3.3-.195-6.41 1.459-8.54 3.795-1.07 1.168-2.33 2.726-2.62 4.283-.3 1.265.58 2.725 1.06 3.99.78 2.336 1.65 4.769 2.82 7.008z" fill="#F8B495"/><path d="M1008.84 761.651c-.2 3.407-.3 6.91-.49 10.317-.1 1.362-.1 2.628.19 3.99.2.974.68 1.947 1.07 2.92.29.876.49 1.849.97 2.628 1.17 2.628 3.69 4.282 6.12 5.742.97.584 2.04 1.266 3.11 1.46.68.098 1.65 0 1.94-.681.09-.292.09-.681 0-1.071-.2-.973-.39-2.043-.97-2.822-.78-.973-1.94-1.557-2.72-2.433-1.36-1.558-1.46-3.991-.78-6.035.68-2.044 1.85-3.795 2.72-5.742.87-1.947 1.26-4.185.39-6.132-.29-.681-.78-1.265-1.26-1.849-1.17-1.265-2.43-2.531-3.98-3.212-1.36-.584-2.92-.876-4.37-.389-1.85.389-1.85 1.849-1.94 3.309z" fill="#F8B495"/><path d="M1024.75 765.935c-1.94-.876-5.82 3.309-6.21 4.477-.87 2.725 1.94.487 5.44 5.937 1.07 1.557 2.04 3.212 2.52 5.061.29 1.363.49 3.017 1.75 3.601.97.389 2.14-.097 2.72-1.07.29 1.946 3.2.389 3.78-1.558 1.07-3.698 3.99-.292 4.37-6.813.39.195.68.292 1.07.487 4.37-3.601-4.76-14.015-8.74-18.103-7.08-7.397-8.64 3.893-6.7 7.981z" fill="#F8B495"/><path d="M966.022 797.566c1.748.876 6.214 4.185 7.476 5.645 1.359 1.46-4.369.292-4.369 2.239 0 2.92 1.747 6.229-.194 8.37-1.554 1.752-3.301 3.407-5.243 4.672-1.942 1.265-4.369 2.044-6.699 1.849-.874-.097-1.844-.389-2.524-.876-.485-.389-.874-.876-1.262-1.363-2.233-2.725-4.466-5.45-6.699-8.078-.485-.584-.971-1.168-1.359-1.849-.486-.876-.68-1.947-.68-3.017-.097-3.699 1.845-7.105 4.563-9.441 1.262-1.168 3.107-2.433 4.855-2.725 1.456-.292 3.009.778 4.368 1.265 2.622.973 5.243 2.044 7.767 3.309z" fill="#FFBFA2"/><path d="M959.132 793.868c3.786-.097 7.669-.097 11.456-.195 1.456 0 3.009 0 4.369.39 1.068.292 2.135.876 3.203 1.265.971.389 1.942.681 2.913 1.168 2.815 1.46 4.563 4.282 6.116 7.008.68 1.07 1.262 2.238 1.457 3.601.097.778-.098 1.849-.874 2.141-.389.097-.777 0-1.165 0-1.068-.292-2.233-.487-3.107-1.265-1.068-.876-1.65-2.239-2.621-3.115-1.748-1.654-4.369-1.752-6.602-1.07-2.233.681-4.272 1.946-6.505 2.822-2.233.876-4.757 1.265-6.796.195-.776-.39-1.359-.974-1.941-1.557-1.36-1.363-2.719-2.823-3.398-4.575-.583-1.557-.777-3.309-.292-4.866.486-1.947 2.039-1.947 3.787-1.947z" fill="#FFBFA2"/><path fill-rule="evenodd" clip-rule="evenodd" d="M868.785 702.104c3.326 15.023 6.118 27.63 9.283 37.941.098.321.2.641.305.958.434 1.935 1.362 4.104 2.679 6.438 1.26 2.455 2.683 4.613 4.174 6.316 13.37 17.996 41.484 41.26 48.467 46.435 3.689 2.822 8.641 5.937 13.398 4.964 3.689-.779 9.514-5.937 9.514-10.122.097-2.531-1.359-4.964-2.815-7.105-8.268-12.216-28.24-33.448-39.555-45.477-2.704-2.875-4.914-5.224-6.351-6.798l-.065-.77c-.05-.589-.099-1.174-.141-1.75-.548-7.342-1.658-14.607-2.767-21.861-1.052-6.882-2.102-13.753-2.669-20.671-1.262-15.378-6.505-31.924-18.058-42.727-1.942-1.849-4.272-3.601-6.99-3.309-2.913.194-5.049 2.822-6.699 5.255-3.592 5.354-6.116 10.512-6.699 16.838-.582 6.327-.097 12.653 1.262 18.785 1.334 5.852 2.563 11.404 3.727 16.66z" fill="url(#paint86_linear_1419_1910)"/><path d="M963.21 811.775c-.97-2.141 3.884-6.423 5.146-6.715 3.01-.779.388 2.141 6.31 6.326 1.748 1.168 3.496 2.433 5.534 3.017 1.457.39 3.301.584 3.884 2.044.485 1.071-.194 2.336-1.262 2.92 2.135.389.291 3.601-1.845 4.088-4.175 1.07-.485 4.38-7.767 4.574.194.39.291.779.486 1.168-4.175 4.769-15.437-5.84-19.806-10.414-7.766-7.981 4.855-9.343 9.32-7.008z" fill="#FFBFA2"/><path d="M1094.76 732.26l7.18 4.185c-.48-.292-1.16-.292-1.94.195l-7.18-4.185c.77-.39 1.45-.487 1.94-.195z" fill="#37404A"/><mask id="a" style="mask-type:alpha" maskUnits="userSpaceOnUse" x="1092" y="732" width="10" height="5"><path d="M1094.76 732.26l7.18 4.185c-.48-.292-1.16-.292-1.94.195l-7.18-4.185c.77-.39 1.45-.487 1.94-.195z" fill="#fff"/></mask><g mask="url(#a)" fill="#37404A"><path d="M1100 736.641l-7.18-4.185c.29-.194.58-.292.87-.292l7.19 4.185c-.39 0-.59.098-.88.292z"/><path d="M1100.78 736.35l-7.09-4.185c.39-.098.78 0 1.07.097l7.18 4.185c-.38-.194-.77-.194-1.16-.097z"/><path d="M1101.84 736.446l-7.18-4.185h.1l7.18 4.185h-.1z"/></g><path d="M1009.82 789.197l-7.19-4.185 90.19-52.558 7.19 4.185-90.19 52.558z" fill="#37404A"/><path d="M1007.1 793.869l-7.189-4.185c0-1.752 1.259-3.893 2.719-4.672l7.18 4.186c-1.55.876-2.71 3.017-2.71 4.671z" fill="#37404A"/><mask id="b" style="mask-type:alpha" maskUnits="userSpaceOnUse" x="999" y="785" width="11" height="9"><path d="M1007.1 793.869l-7.189-4.185c0-1.752 1.259-3.893 2.719-4.672l7.18 4.186c-1.55.876-2.71 3.017-2.71 4.671z" fill="#fff"/></mask><g mask="url(#b)" fill="#37404A"><path d="M1008.46 790.365l-7.19-4.185a5.24 5.24 0 011.36-1.168l7.18 4.186c-.48.292-.97.681-1.35 1.167z"/><path d="M1007.58 791.826l-7.18-4.185c.19-.486.58-1.07.97-1.46l7.18 4.186c-.48.486-.78.973-.97 1.459z"/></g><path d="M1100 736.639c1.55-.876 2.72-.195 2.72 1.557l-21.75 51.39-95.627 55.671 21.357-51.486s.58-3.212 3.11-4.672l90.19-52.46z" fill="#10191B"/><path d="M985.351 845.257l-7.087-4.185 22.136-53.434 7.18 4.185-22.229 53.434z" fill="#242A31"/><path d="M1123.62 285.774l-5.89-3.366 79.1 394.632 5.61 3.366-78.82-394.632z" fill="#BFC8D7"/><path d="M1132.6 280.726l-5.61-3.365-9.26 5.048 5.89 3.366 8.98-5.049z" fill="#BFC8D7"/><path d="M1123.62 285.778l78.81 394.631 8.98-5.329-78.82-394.351-8.97 5.049z" fill="#D9E1EE"/><path d="M1128.11 673.679l61.15-35.34 5.61 3.085-66.76 38.706v-6.451z" fill="#BFC8D7"/><path d="M1128.11 680.131l66.76-38.706 1.12 4.768-67.88 38.987v-5.049z" fill="#D9E1EE"/><path d="M1119.13 629.922l61.14-35.34 5.61 3.365-66.75 38.706v-6.731z" fill="#BFC8D7"/><path d="M1119.13 636.658l66.75-38.706 1.13 4.488-67.88 38.986v-4.768z" fill="#D9E1EE"/><path d="M1111.02 587.289l61.14-35.06 5.61 3.085-66.75 38.706v-6.731z" fill="#BFC8D7"/><path d="M1111.02 594.023l66.75-38.706.84 4.488-67.59 38.986v-4.768z" fill="#D9E1EE"/><path d="M1102.58 545.218l61.15-35.34 5.61 3.366-66.76 38.705v-6.731z" fill="#BFC8D7"/><path d="M1102.58 551.953l66.76-38.706.84 4.487-67.6 38.987v-4.768z" fill="#D9E1EE"/><path d="M1094.18 503.709l61.14-35.059 5.61 3.085-66.75 38.706v-6.732z" fill="#BFC8D7"/><path d="M1094.18 510.444l66.75-38.706 1.13 4.488-67.88 39.267v-5.049z" fill="#D9E1EE"/><path d="M1085.77 461.916l61.15-35.34 5.61 3.366-66.76 38.425v-6.451z" fill="#BFC8D7"/><path d="M1085.77 468.37l66.76-38.426 1.12 4.488-67.88 38.986v-5.048z" fill="#D9E1EE"/><path d="M1077.92 420.127l61.14-35.34 5.61 3.085-66.75 38.706v-6.451z" fill="#BFC8D7"/><path d="M1077.92 426.581l66.75-38.706.84 4.488-67.59 39.266v-5.048z" fill="#D9E1EE"/><path d="M1069.22 378.053l61.43-35.34 5.61 3.365-67.04 38.426v-6.451z" fill="#BFC8D7"/><path d="M1069.22 384.508l67.04-38.426.84 4.488-67.88 38.986v-5.048z" fill="#D9E1EE"/><path d="M1054.08 325.879l-5.61-3.366 78.81 394.632 5.61 3.366-78.81-394.632z" fill="#BFC8D7"/><path d="M1063.05 320.833l-5.61-3.366-8.97 5.049 5.61 3.365 8.97-5.048z" fill="#BFC8D7"/><path d="M1054.08 325.886l78.81 394.631 8.98-5.048-78.82-394.632-8.97 5.049z" fill="#D9E1EE"/><path d="M1150 272.034c.56-1.402 5.33-3.646 6.74-4.488 15.42-7.853 36.74 33.938 42.07 44.596 0 0 2.24 17.11-6.45 22.158-1.69.842-3.37 1.683-5.61 1.963-4.77.842-8.7-2.524-11.22-7.011.28-.281-29.73-46.84-25.53-57.218z" fill="#1B1823"/><path d="M1145.22 226.875c-2.25 3.646-7.29 3.085-9.54 3.085-1.12-1.402-2.8-4.207-4.49-7.292-2.8-4.768-3.36-10.097-3.64-13.743-.56-5.89 4.21-7.573 7.29-5.89 3.65 1.682 6.45 9.255 8.98 15.426 1.12 2.244.56 7.012 1.4 8.414z" fill="#FFDFCD"/><path d="M1134.01 222.388s.28.28 0 0c-1.4-3.085-5.05-6.171-7.86-8.134-1.12-.561-3.08-1.963-3.64-.28-.56 1.402 1.96 6.731 7.85 10.097.56.28 4.21 2.244 3.93.841l-.28-2.524z" fill="#FFDFCD"/><path d="M1145.51 216.214c1.12 1.682 27.48 47.12 29.17 62.827.28 2.243-1.97-2.244-8.14.841-6.17 3.085-12.62 10.097-15.42 3.646l-21.32-53.291c1.4-2.524 9.25-8.975 13.46-12.341 1.4-1.121 2.25-1.682 2.25-1.682z" fill="#1B1823"/><path d="M1158.39 299.791l1.96 8.695 2.81 9.256s1.4 1.121 3.64 1.963c.28 0 .56-.281.84-.281 7.3-3.646 16.55-8.694 14.31-14.304v-.28l-3.09-7.854-1.12.561-19.35 2.244z" fill="#FFDFCD"/><path d="M1183.63 302.875c3.08 3.085 2.52 13.743 2.24 15.426-.28 4.768-1.12-1.963-5.61 0-4.21 1.683-8.97 1.683-13.46.842-2.53-.561-3.65-.842-5.61-2.525-1.96-1.963-2.53-8.975-1.12-9.255 1.68-.281 6.17-.842 8.41-1.122 3.93-.842 12.34-6.171 15.15-3.366z" fill="#D7E2E8"/><path d="M1201.6 590.927s1.41 12.061-2.8 15.707c-1.12.841-5.33.561-10.1-1.403-3.08-1.402-6.17-3.926-9.25-5.048-8.98-3.085-10.94-7.853-13.75-13.744-6.45-13.182 7.86-7.011 17.11-1.682 9.82 5.609 18.79 6.17 18.79 6.17z" fill="#0B0C0D"/><path d="M1192.06 601.028l-.28-2.244 8.97-1.122v-.28l1.97 2.804-.28 5.329s-4.77 4.208-5.61 4.208h-.56l-8.14-3.927.28-1.683c-1.68-.28-6.17-7.292-6.17-7.292l9.82 4.207z" fill="#0B0C0D"/><path d="M1206.36 598.501c-.28 1.402-4.49 1.122-9.54 0-8.13-1.683-18.79-5.329-18.79-7.012 0-12.621.28-49.644-1.12-57.498-.84-3.926-.56-7.012-1.12-10.938-1.12-7.012-2.53-13.744-3.37-20.756-.28-3.085-.84-6.451-1.12-9.536-.28-3.646-.84-7.012-1.12-10.658 0-1.402-.28-3.085-.56-4.488-.28-3.646-.56-7.012-.84-10.377 0-1.122 0-1.964-.28-3.086v-3.085c0-2.524.28-5.048.56-7.573.28-1.683.84-3.365 1.4-5.048 1.68-3.086 3.93-5.61 6.17-8.134.28-.281.56-.561.84-.561 2.81-2.805 5.61-5.049 8.98-6.451 3.64-1.403 8.69-10.097 11.5-7.293.56.281 1.12.842 1.68 1.403 4.21 5.048 5.33 10.658 6.17 15.987 0 .561 0 1.122.28 1.683.28 2.244-.56 8.975-.56 11.219 0 1.683 0 3.085-.28 4.488-.28 3.085.28 33.096 1.12 58.339 0 1.402 0 3.085.28 4.488.56 14.584 1.12 26.925 1.4 30.011 1.13 10.938-.84 41.23-1.68 44.876z" fill="#1B1823"/><path d="M1141.29 567.087s4.49 11.219 1.4 15.987c-.84 1.402-5.05 2.244-10.1 1.402-3.36-.28-7.01-1.963-10.37-2.243-9.54-.281-12.35-4.488-16.83-9.537-9.54-10.658 5.89-8.975 16.27-6.451 10.65 3.086 19.63.842 19.63.842z" fill="#0B0C0D"/><path d="M1132.89 580.265l-.28-2.243 8.97-1.122v-.281l1.97 2.805-.56 4.768s-4.77 4.207-5.61 4.207h-.56l-8.14-3.926.28-.842c-1.68-.28-3.36-.841-5.05-1.402-.84-.281-1.4-.561-2.24-.561h-.56l11.78-1.403z" fill="#0B0C0D"/><path d="M1149.43 565.408c0 3.366-.28 7.012-2.25 9.817-1.68 2.244-4.2 3.366-7.01 3.646-2.52.281-5.33 0-7.85-.561-2.53-.28-13.18-4.207-13.18-5.048v-4.768c0-16.268.28-44.316 0-60.023v-3.365c0-9.537 21.59-21.878 23.28-17.109 1.68 5.048 3.08 9.536 3.92 14.304v.561c.28 1.963.56 4.207.84 6.451v1.122c.84 8.414 1.69 17.109 1.97 25.523.56 9.817.28 19.634.28 29.45z" fill="#28222F"/><path d="M1197.67 441.994c-.84 8.976-25.24 40.67-28.89 44.596-7.01 7.293-14.86 14.866-20.47 22.719-.28.281-.56.561-.84 1.122-.56.561-.84.841-1.12 1.402-.28.281-.56.842-.85 1.122-.56 1.122-1.4 2.244-2.52 3.927 0 .28-.28.28-.28.561-1.12 1.963-21.04-5.049-23.56-8.975-.28-.281-.28-.561-.28-.842 0-11.219 5.33-22.158 6.17-24.401.84-2.244 1.96-5.049 3.37-7.854 3.08-6.731 7.29-17.95 11.78-29.45 3.08-7.573 6.17-15.146 9.25-21.597 0 0 51.89-16.267 48.24 17.67z" fill="#28222F"/><path d="M1138.77 387.298c.28 10.939-.84 40.95-1.12 50.486 0 1.963.84 3.646 2.53 4.488 4.48 2.805 8.69 3.926 13.46 4.768 1.96.561 4.21.561 6.73.841 9.54.561 19.63 0 28.89-1.683 7.01-1.402 13.46-3.926 18.51-8.414 1.12-.841 1.97-2.524 1.97-3.927 0-10.377-5.89-38.705-6.18-49.644-.56-19.073 5.89-51.327 5.05-61.705-.56-8.975-3.92-19.634-23.28-16.829l-25.24 6.171c-5.33 3.085-27.21 7.573-29.17 20.475 0 0 .84 4.768 1.96 11.499 1.69 9.817 3.93 24.402 5.05 35.06.28 3.366.56 6.17.84 8.414z" fill="#30273B"/><path d="M1148.88 296.147c2.25 3.366 5.33 6.171 8.98 7.293 1.4.561 2.8.561 4.2.561h.85c1.4 0 2.8-.561 3.64-1.403 1.97-1.682 10.66-1.682 11.22-4.207v-1.683c0-6.451-6.17-15.426-8.13-21.035-1.97-5.61-6.17-9.817-11.22-12.902-4.21-2.805-8.98-4.488-14.03-5.049l-1.68 3.366-1.68 2.524c1.96 5.329 2.52 10.939 3.08 16.548.85 5.61 1.97 11.219 4.77 15.987z" fill="#FFDFCD"/><path d="M1137.92 262.77c1.12 3.365 3.93 2.524 6.17 5.048 2.53 3.085 3.37 5.89 5.89 8.975.84 1.122 1.69 3.927 4.77 1.403 4.49-3.927 5.33 18.792 15.43 21.877 1.68.561 5.89-.841 7.57-1.683 1.12-.28 1.68-1.122 2.24-2.244v-.28c1.97-3.366 10.1-14.024 11.22-19.073 1.41-4.207.84-9.255 0-13.743-.84-4.207-3.92-7.573-6.73-10.378-3.08-3.085-6.45-5.329-10.38-6.731-6.73-2.244-15.14-1.122-22.15 1.122-1.13.28-1.97.561-2.81.841-1.4.561-3.08 1.403-4.49 1.964-.56.561-1.4 1.122-1.96 1.683-6.17 4.768-5.33 8.694-5.33 8.975 0 0 .28 1.683.56 2.244z" fill="#2B0D04"/><path d="M1154.76 278.196c-1.4 2.805-.84 5.89 1.12 6.731 1.97 1.122 4.77-.28 6.45-3.085 1.41-2.805.85-5.89-1.12-7.012-2.24-.841-5.05.561-6.45 3.366z" fill="#FFDFCD"/><path d="M1156.73 279.039c-.56 1.403-.56 2.805.56 3.086.84.56 2.25 0 2.81-1.403.56-1.402.56-2.805-.56-3.085-.85-.281-1.97.28-2.81 1.402z" fill="#FFDFCD"/><path d="M1162.32 309.33c-1.4.28-3.08.841-4.49 1.402-.84.281-1.96 1.964-1.96 3.086 5.89 1.122 16.83-1.403 23-2.525 5.05-.841 10.1-4.487 10.94-5.609 1.68-3.646-10.66.28-12.06.561-5.05 1.683-10.38 1.683-15.43 3.085z" fill="#30273B"/><path opacity=".3" d="M1187.02 265.016c2.53 8.695.56 18.792-5.05 26.084-.84 1.122-1.96 2.244-1.96 3.647v.56c1.96-3.085 9.82-14.023 10.94-19.072 1.12-4.488.28-9.536-.56-14.024-1.12-4.207-4.49-7.292-7.3-10.097-3.08-3.085-6.45-5.329-10.65-6.451-6.73-1.963-15.15-.841-21.88 1.402 5.89-.841 11.78-1.682 17.39-.28 8.97 1.963 16.55 9.256 19.07 18.231z" fill="#2B0D04"/><path d="M1101.18 386.187c.84 1.683 1.96 3.366 3.93 4.488 3.64 2.804 5.89 3.646 13.18 4.207l42.35-54.132s8.7-11.78-1.12-19.914c-1.68-1.122-3.93-2.244-6.45-3.085-6.17-1.964-11.5 1.121-15.71 6.451l-31.41 44.315s-6.73 13.463-4.77 17.67z" fill="#393244"/><path d="M1067.51 356.736c.85 1.122 2.53 1.403 3.65.561 1.12-.841 1.4-2.524.56-3.646l-8.41-11.499c-.84-1.122-2.53-1.403-3.65-.561-1.12.841-1.4 2.244-.56 3.646l8.41 11.499z" fill="#FFDFCD"/><path d="M1072.85 357.016l-7.57-9.256-7.86-5.609c-.84-.561-4.49-3.086-7.01-1.964-1.68.842-9.82 5.89-7.57 8.415 1.4 1.683 15.98 13.463 15.98 13.463.85.841 2.53 4.207 3.37 4.487l6.17 1.964 4.49-11.5z" fill="#FFDFCD"/><path d="M1057.14 362.905c1.68 1.402 37.58 31.133 54.69 33.376 2.52.281 5.05-.28 6.45-1.122 0 0-.84-3.926-1.4-7.292-.28-3.927-.84-7.853-1.12-8.134l4.76-7.573-49.92-22.718c-2.81 1.683-13.46 13.463-13.46 13.463z" fill="#393244"/><path fill-rule="evenodd" clip-rule="evenodd" d="M330.051 339.14l29.726-37.08-18.037-7.633-11.689 44.713zm38.664-33.728l-37.546 32.992 51.022-33.349-13.476.357z" fill="#D0D9EE"/><path fill-rule="evenodd" clip-rule="evenodd" d="M368.713 305.41l-10.811-17.156 1.866 13.804-29.727 37.081 1.125-.737 37.547-32.992z" fill="#AAB9DE"/><path fill-rule="evenodd" clip-rule="evenodd" d="M357.907 288.256l-6.131 10.421 7.996 3.384-1.865-13.805zm7.175 2.886c-.853.782.317 1.888 1.031 1.237.422-.355.834-.719 1.239-1.093.78-.72-.309-1.908-1.09-1.184-.392.351-.78.698-1.18 1.04zm118.773-51.196c.92.706 1.805-.643 1.037-1.231l-1.256-1.037c-.884-.674-1.814.642-1.008 1.257l1.227 1.011zm-5.059-3.841c.947.593 1.745-.803.897-1.342a103.94 103.94 0 00-1.372-.893c-.894-.564-1.756.797-.852 1.37.449.28.884.57 1.327.865zm-5.463-3.224c.941.479 1.674-.953.725-1.438a62.7 62.7 0 00-1.471-.723c-.88-.448-1.69.946-.676 1.463.476.222.945.455 1.422.698zm-5.821-2.539c1.119.343 1.467-1.234.551-1.513a55.596 55.596 0 00-1.549-.535c-1.051-.323-1.479 1.231-.499 1.53.501.167 1.002.339 1.497.518zm-6.079-1.789c1.124.205 1.323-1.396.356-1.575a55.663 55.663 0 00-1.602-.341c-1.064-.195-1.328 1.395-.304 1.584.52.104 1.035.216 1.55.332zm-6.257-1.036c.983.132 1.279-1.453.157-1.604a53.071 53.071 0 00-1.627-.144c-1.164-.025-1.076 1.587-.112 1.607.523.038 1.053.086 1.582.141zm-6.341-.286c.986.016 1.106-1.591-.025-1.61-.547.004-1.089.026-1.634.042-1.167.121-.875 1.709.071 1.614.525-.025 1.053-.04 1.588-.046zm-6.349.434c1.013-.101.909-1.712-.199-1.598-.541.068-1.086.139-1.625.219-.942.096-.914 1.711.258 1.591l1.566-.212zm-6.257 1.12c1.02-.233.681-1.812-.37-1.567-.529.119-1.056.252-1.579.389-.971.22-.688 1.811.405 1.557.515-.135 1.033-.26 1.544-.379zm-6.109 1.759c1.022-.375.445-1.873-.532-1.52-.514.176-1.024.357-1.536.551-.969.354-.449 1.88.569 1.505.498-.187.995-.366 1.499-.536zm-5.899 2.373c1.003-.511.204-1.909-.689-1.458-.493.225-.979.461-1.466.704-.965.484-.217 1.911.713 1.442.481-.236.958-.465 1.442-.688zm-5.624 2.962c.948-.628-.014-1.925-.836-1.379a53.05 53.05 0 00-1.39.851c-.914.601.005 1.931.869 1.359.448-.283.898-.557 1.357-.831zm-5.271 3.547c.812-.589-.079-1.936-.987-1.275a77.95 77.95 0 00-1.283 1.01c-.39.36-.364.773-.155 1.067l-.267.005c-1.171.116-.867 1.706.066 1.612a34.21 34.21 0 011.569-.003c1.056.019 1.097-1.588.029-1.613l1.028-.803zm-4.785 4.15c-.371.371-.743.751-1.1 1.137-.684.769-1.915-.272-1.189-1.088.371-.401.759-.794 1.145-1.18.853-.782 1.858.479 1.144 1.131zm-4.097 4.795c.603-.783-.63-1.832-1.315-.93-.322.446-.624.908-.919 1.372-.578.908.798 1.752 1.356.862.283-.445.569-.88.878-1.304zm-3.035 5.453c.396-.942-1.069-1.606-1.498-.594-.208.52-.393 1.052-.562 1.582-.308 1.016 1.231 1.484 1.544.469.157-.487.327-.98.516-1.457zm-1.246 5.971c.019-1.006-1.587-1.105-1.608.013-.001.576.032 1.128.09 1.696.104 1.023 1.712.905 1.6-.189a14.033 14.033 0 01-.082-1.52zm1.413 5.809c-.442-.87-1.925-.236-1.405.79.274.501.564.983.895 1.448.623.859 1.93-.093 1.306-.944a11.85 11.85 0 01-.796-1.294zm3.958 4.682c-.891-.675-1.818.545-1.052 1.224.418.367.831.711 1.269 1.056.858.653 1.822-.64.986-1.273a32.382 32.382 0 01-1.203-1.007zm5.133 3.478c-.88-.444-1.69.946-.675 1.463.513.245 1.012.454 1.541.655 1.135.345 1.463-1.234.558-1.512a19.18 19.18 0 01-1.424-.606zm5.888 1.52c-1.09-.021-1.089 1.589-.05 1.609.563.024 1.141.009 1.708-.038 1.077-.106.888-1.71-.147-1.605-.492.047-1.015.055-1.511.034zm5.898-1.173c-1.013.514-.205 1.909.68 1.461a14.173 14.173 0 001.503-.781c.862-.564.166-1.882-.827-1.382-.428.262-.897.5-1.356.702zm4.944-3.564c-.735.827.505 1.857 1.18 1.095.382-.411.752-.825 1.097-1.267.663-.864-.64-1.822-1.268-.993a18.05 18.05 0 01-1.009 1.165zm3.457-5.103c-.448.875.946 1.689 1.463.671.24-.51.45-1.017.651-1.542.345-1.13-1.238-1.467-1.511-.558-.182.482-.387.961-.603 1.429zm1.704-5.923c-.136 1.011 1.454 1.274 1.601.181.068-.555.105-1.121.123-1.676.023-1.077-1.589-1.093-1.607-.041a17.025 17.025 0 01-.117 1.536zm-.402-6.086c.209.936 1.813.697 1.545-.436a14.378 14.378 0 00-.537-1.617c-.336-.928-1.878-.462-1.491.608.191.475.347.964.483 1.445zm-2.838-5.323c.747.814 1.896-.315 1.209-1.064-.363-.42-.78-.845-1.196-1.219-.798-.71-1.865.5-1.073 1.2.373.334.732.703 1.06 1.083zm-4.859-3.644c.888.453 1.69-.946.683-1.458a20.092 20.092 0 00-1.535-.667c-1.067-.325-1.525 1.108-.574 1.505.485.19.956.395 1.426.62zm-5.942-1.888c1.073.193 1.323-1.395.312-1.582a52.015 52.015 0 00-1.618-.297c-1.056-.144-1.307 1.398-.251 1.592a50.68 50.68 0 011.557.287zm-12.46-.181c1.028-.236.672-1.809-.361-1.57-.542.121-1.085.251-1.613.413-1.102.402-.426 1.867.463 1.541.496-.15 1.009-.272 1.511-.384zm-5.825 2.153c.899-.458.227-1.922-.766-1.418-.48.245-.986.556-1.439.843-.914.601.005 1.931.864 1.358.432-.265.894-.554 1.341-.783zm-5.038 3.648c.77-.709-.304-1.911-1.099-1.177-.399.366-.812.76-1.186 1.152-.691.634.29 1.921 1.163 1.117.354-.37.737-.739 1.122-1.092zm-4.197 4.699c.632-.836-.636-1.825-1.288-.971-.332.436-.648.875-.964 1.318-.6.788.629 1.837 1.311.93.31-.428.62-.855.941-1.277zm-3.525 5.288c.544-.855-.793-1.76-1.384-.825l-.819 1.401c-.529 1.037.963 1.663 1.4.802.264-.456.53-.924.803-1.378zm-3.097 5.597c.486-.961-.957-1.675-1.431-.741l-.737 1.431c-.486.953.951 1.683 1.432.733l.736-1.423zm-2.908 5.737c.473-.934-.957-1.679-1.443-.722l-.725 1.438c-.475.937.955 1.683 1.445.727l.723-1.443zm-2.93 5.763c.493-.968-.961-1.671-1.429-.749l-.751 1.417c-.504.987.958 1.666 1.418.764l.762-1.432zm-3.167 5.669c.546-.867-.793-1.76-1.382-.833l-.833 1.353c-.578.912.798 1.756 1.356.866l.859-1.386zm-3.64 5.426c.642-.842-.636-1.821-1.279-.974-.311.411-.642.843-.976 1.242-.695.909.642 1.809 1.237 1.025a32.75 32.75 0 001.018-1.293z" fill="#8D9FCA"/><defs><linearGradient id="paint0_linear_1419_1910" x1="1039.35" y1="511.381" x2="592.254" y2="975.19" gradientUnits="userSpaceOnUse"><stop stop-color="#0082F8" stop-opacity="0"/><stop offset="1" stop-color="#00C0FD"/></linearGradient><linearGradient id="paint1_linear_1419_1910" x1="1355.63" y1="776.433" x2="1121.57" y2="618.687" gradientUnits="userSpaceOnUse"><stop stop-color="#0082F8" stop-opacity="0"/><stop offset="1" stop-color="#00C0FD"/></linearGradient><linearGradient id="paint2_linear_1419_1910" x1="262.95" y1="417.322" x2="428.571" y2="416.958" gradientUnits="userSpaceOnUse"><stop stop-color="#0082F8" stop-opacity="0"/><stop offset="1" stop-color="#00C0FD"/></linearGradient><linearGradient id="paint3_linear_1419_1910" x1="1034.96" y1="809.769" x2="886.566" y2="1036.85" gradientUnits="userSpaceOnUse"><stop stop-color="#0082F8" stop-opacity="0"/><stop offset="1" stop-color="#00C0FD"/></linearGradient><linearGradient id="paint4_linear_1419_1910" x1="146.315" y1="718.116" x2="302.631" y2="633.755" gradientUnits="userSpaceOnUse"><stop stop-color="#0082F8" stop-opacity="0"/><stop offset="1" stop-color="#00C0FD"/></linearGradient><linearGradient id="paint5_linear_1419_1910" x1="1131.5" y1="854.942" x2="1070.93" y2="1018.25" gradientUnits="userSpaceOnUse"><stop stop-color="#0082F8" stop-opacity="0"/><stop offset="1" stop-color="#00C0FD"/></linearGradient><linearGradient id="paint6_linear_1419_1910" x1="35.819" y1="1034.25" x2="437.899" y2="831.679" gradientUnits="userSpaceOnUse"><stop stop-color="#0082F8" stop-opacity="0"/><stop offset=".745" stop-color="#00C0FD"/></linearGradient><linearGradient id="paint7_linear_1419_1910" x1="-1.013" y1="923.76" x2="133.162" y2="568.199" gradientUnits="userSpaceOnUse"><stop stop-color="#0082F8" stop-opacity="0"/><stop offset="1" stop-color="#00C0FD"/></linearGradient><linearGradient id="paint8_linear_1419_1910" x1="158.594" y1="576.928" x2="367.498" y2="505.319" gradientUnits="userSpaceOnUse"><stop stop-color="#0082F8" stop-opacity="0"/><stop offset="1" stop-color="#00C0FD"/></linearGradient><linearGradient id="paint9_linear_1419_1910" x1="1367.9" y1="386.63" x2="1155.59" y2="457.793" gradientUnits="userSpaceOnUse"><stop stop-color="#0082F8" stop-opacity="0"/><stop offset="1" stop-color="#00C0FD"/></linearGradient><linearGradient id="paint10_linear_1419_1910" x1="891.554" y1="907.665" x2="871.35" y2="928.715" gradientUnits="userSpaceOnUse"><stop stop-color="#0082F8" stop-opacity="0"/><stop offset="1" stop-color="#00C0FD"/></linearGradient><linearGradient id="paint11_linear_1419_1910" x1="1255.86" y1="658.062" x2="1235.65" y2="679.112" gradientUnits="userSpaceOnUse"><stop stop-color="#0082F8" stop-opacity="0"/><stop offset="1" stop-color="#00C0FD"/></linearGradient><linearGradient id="paint12_linear_1419_1910" x1="340.496" y1="933.855" x2="320.581" y2="954.836" gradientUnits="userSpaceOnUse"><stop stop-color="#0082F8" stop-opacity="0"/><stop offset="1" stop-color="#00C0FD"/></linearGradient><linearGradient id="paint13_linear_1419_1910" x1="262.948" y1="1110.99" x2="523.838" y2="1030.24" gradientUnits="userSpaceOnUse"><stop stop-color="#0082F8" stop-opacity="0"/><stop offset="1" stop-color="#00C0FD"/></linearGradient><linearGradient id="paint14_linear_1419_1910" x1="1484.54" y1="392.769" x2="1014.78" y2="352.642" gradientUnits="userSpaceOnUse"><stop stop-color="#0082F8" stop-opacity="0"/><stop offset="1" stop-color="#00C0FD"/></linearGradient><linearGradient id="paint15_linear_1419_1910" x1="389.487" y1="659.074" x2="369.148" y2="680.129" gradientUnits="userSpaceOnUse"><stop stop-color="#0082F8" stop-opacity="0"/><stop offset="1" stop-color="#00C0FD"/></linearGradient><linearGradient id="paint16_linear_1419_1910" x1="1300.19" y1="296.626" x2="1121.92" y2="397.932" gradientUnits="userSpaceOnUse"><stop stop-color="#0082F8" stop-opacity="0"/><stop offset="1" stop-color="#00C0FD"/></linearGradient><linearGradient id="paint17_linear_1419_1910" x1="993.506" y1="568.063" x2="1159.52" y2="568.063" gradientUnits="userSpaceOnUse"><stop offset=".005" stop-color="#D9E1EE"/><stop offset="1" stop-color="#AABAD6"/></linearGradient><linearGradient id="paint18_linear_1419_1910" x1="887.144" y1="632.62" x2="887.144" y2="424.364" gradientUnits="userSpaceOnUse"><stop stop-color="#AABAD6"/><stop offset="1" stop-color="#96AAC9"/></linearGradient><linearGradient id="paint19_linear_1419_1910" x1="886.542" y1="448.633" x2="886.542" y2="609.272" gradientUnits="userSpaceOnUse"><stop stop-color="#AABAD6"/><stop offset="1" stop-color="#96AAC9"/></linearGradient><linearGradient id="paint20_linear_1419_1910" x1="928.424" y1="481.607" x2="1786.41" y2="583.639" gradientUnits="userSpaceOnUse"><stop offset=".005" stop-color="#E4E9F2"/><stop offset="1" stop-color="#B4C2DA"/></linearGradient><linearGradient id="paint21_linear_1419_1910" x1="993.578" y1="442.892" x2="1156.81" y2="459.346" gradientUnits="userSpaceOnUse"><stop stop-color="#0082F8"/><stop offset="1" stop-color="#1C40F2"/></linearGradient><linearGradient id="paint22_linear_1419_1910" x1="993.506" y1="445.354" x2="1159.52" y2="445.354" gradientUnits="userSpaceOnUse"><stop offset=".005" stop-color="#D9E1EE"/><stop offset="1" stop-color="#AABAD6"/></linearGradient><linearGradient id="paint23_linear_1419_1910" x1="887.144" y1="509.91" x2="887.144" y2="301.657" gradientUnits="userSpaceOnUse"><stop stop-color="#AABAD6"/><stop offset="1" stop-color="#96AAC9"/></linearGradient><linearGradient id="paint24_linear_1419_1910" x1="886.542" y1="325.923" x2="886.542" y2="486.562" gradientUnits="userSpaceOnUse"><stop stop-color="#AABAD6"/><stop offset="1" stop-color="#96AAC9"/></linearGradient><linearGradient id="paint25_linear_1419_1910" x1="928.424" y1="358.901" x2="1786.41" y2="460.93" gradientUnits="userSpaceOnUse"><stop offset=".005" stop-color="#E4E9F2"/><stop offset="1" stop-color="#B4C2DA"/></linearGradient><linearGradient id="paint26_linear_1419_1910" x1="993.578" y1="318.843" x2="1156.81" y2="335.296" gradientUnits="userSpaceOnUse"><stop stop-color="#0082F8"/><stop offset="1" stop-color="#1C40F2"/></linearGradient><linearGradient id="paint27_linear_1419_1910" x1="993.506" y1="323.849" x2="1159.52" y2="323.849" gradientUnits="userSpaceOnUse"><stop offset=".005" stop-color="#D9E1EE"/><stop offset="1" stop-color="#AABAD6"/></linearGradient><linearGradient id="paint28_linear_1419_1910" x1="887.144" y1="388.398" x2="887.144" y2="180.145" gradientUnits="userSpaceOnUse"><stop stop-color="#AABAD6"/><stop offset="1" stop-color="#96AAC9"/></linearGradient><linearGradient id="paint29_linear_1419_1910" x1="886.542" y1="204.411" x2="886.542" y2="365.049" gradientUnits="userSpaceOnUse"><stop stop-color="#AABAD6"/><stop offset="1" stop-color="#96AAC9"/></linearGradient><linearGradient id="paint30_linear_1419_1910" x1="929.643" y1="227.149" x2="1787.63" y2="329.181" gradientUnits="userSpaceOnUse"><stop offset=".005" stop-color="#E4E9F2"/><stop offset="1" stop-color="#B4C2DA"/></linearGradient><linearGradient id="paint31_linear_1419_1910" x1="993.578" y1="199.022" x2="1156.81" y2="215.476" gradientUnits="userSpaceOnUse"><stop stop-color="#0082F8"/><stop offset="1" stop-color="#1C40F2"/></linearGradient><linearGradient id="paint32_linear_1419_1910" x1="993.506" y1="201.458" x2="1159.52" y2="201.458" gradientUnits="userSpaceOnUse"><stop offset=".005" stop-color="#D9E1EE"/><stop offset="1" stop-color="#AABAD6"/></linearGradient><linearGradient id="paint33_linear_1419_1910" x1="887.144" y1="266.008" x2="887.144" y2="57.752" gradientUnits="userSpaceOnUse"><stop stop-color="#AABAD6"/><stop offset="1" stop-color="#96AAC9"/></linearGradient><linearGradient id="paint34_linear_1419_1910" x1="886.542" y1="82.021" x2="886.542" y2="242.66" gradientUnits="userSpaceOnUse"><stop stop-color="#AABAD6"/><stop offset="1" stop-color="#96AAC9"/></linearGradient><linearGradient id="paint35_linear_1419_1910" x1="929.643" y1="104.757" x2="1787.63" y2="206.789" gradientUnits="userSpaceOnUse"><stop offset=".005" stop-color="#E4E9F2"/><stop offset="1" stop-color="#B4C2DA"/></linearGradient><linearGradient id="paint36_linear_1419_1910" x1="791.382" y1="686.522" x2="957.37" y2="684.065" gradientUnits="userSpaceOnUse"><stop offset=".005" stop-color="#D9E1EE"/><stop offset="1" stop-color="#AABAD6"/></linearGradient><linearGradient id="paint37_linear_1419_1910" x1="685.963" y1="752.64" x2="682.881" y2="544.414" gradientUnits="userSpaceOnUse"><stop stop-color="#AABAD6"/><stop offset="1" stop-color="#96AAC9"/></linearGradient><linearGradient id="paint38_linear_1419_1910" x1="682.613" y1="568.686" x2="684.99" y2="729.305" gradientUnits="userSpaceOnUse"><stop stop-color="#AABAD6"/><stop offset="1" stop-color="#96AAC9"/></linearGradient><linearGradient id="paint39_linear_1419_1910" x1="725" y1="601.038" x2="1584.41" y2="690.359" gradientUnits="userSpaceOnUse"><stop offset=".005" stop-color="#E4E9F2"/><stop offset="1" stop-color="#B4C2DA"/></linearGradient><linearGradient id="paint40_linear_1419_1910" x1="790.776" y1="559.27" x2="953.431" y2="575.336" gradientUnits="userSpaceOnUse"><stop stop-color="#0082F8"/><stop offset="1" stop-color="#1C40F2"/></linearGradient><linearGradient id="paint41_linear_1419_1910" x1="587.968" y1="539.97" x2="802.626" y2="564.593" gradientUnits="userSpaceOnUse"><stop stop-color="#0082F8"/><stop offset="1" stop-color="#1C40F2"/></linearGradient><linearGradient id="paint42_linear_1419_1910" x1="789.576" y1="563.829" x2="955.564" y2="561.372" gradientUnits="userSpaceOnUse"><stop offset=".005" stop-color="#D9E1EE"/><stop offset="1" stop-color="#AABAD6"/></linearGradient><linearGradient id="paint43_linear_1419_1910" x1="684.155" y1="629.946" x2="681.073" y2="421.72" gradientUnits="userSpaceOnUse"><stop stop-color="#AABAD6"/><stop offset="1" stop-color="#96AAC9"/></linearGradient><linearGradient id="paint44_linear_1419_1910" x1="680.808" y1="445.992" x2="683.185" y2="606.608" gradientUnits="userSpaceOnUse"><stop stop-color="#AABAD6"/><stop offset="1" stop-color="#96AAC9"/></linearGradient><linearGradient id="paint45_linear_1419_1910" x1="723.195" y1="478.342" x2="1582.6" y2="567.666" gradientUnits="userSpaceOnUse"><stop offset=".005" stop-color="#E4E9F2"/><stop offset="1" stop-color="#B4C2DA"/></linearGradient><linearGradient id="paint46_linear_1419_1910" x1="788.69" y1="435.22" x2="951.658" y2="451.349" gradientUnits="userSpaceOnUse"><stop stop-color="#0082F8"/><stop offset="1" stop-color="#1C40F2"/></linearGradient><linearGradient id="paint47_linear_1419_1910" x1="586.175" y1="415.92" x2="800.833" y2="440.542" gradientUnits="userSpaceOnUse"><stop stop-color="#0082F8"/><stop offset="1" stop-color="#1C40F2"/></linearGradient><linearGradient id="paint48_linear_1419_1910" x1="787.756" y1="442.331" x2="953.745" y2="439.874" gradientUnits="userSpaceOnUse"><stop offset=".005" stop-color="#D9E1EE"/><stop offset="1" stop-color="#AABAD6"/></linearGradient><linearGradient id="paint49_linear_1419_1910" x1="682.348" y1="508.456" x2="679.266" y2="300.23" gradientUnits="userSpaceOnUse"><stop stop-color="#AABAD6"/><stop offset="1" stop-color="#96AAC9"/></linearGradient><linearGradient id="paint50_linear_1419_1910" x1="679.001" y1="324.502" x2="681.379" y2="485.121" gradientUnits="userSpaceOnUse"><stop stop-color="#AABAD6"/><stop offset="1" stop-color="#96AAC9"/></linearGradient><linearGradient id="paint51_linear_1419_1910" x1="722.453" y1="346.595" x2="1581.86" y2="435.915" gradientUnits="userSpaceOnUse"><stop offset=".005" stop-color="#E4E9F2"/><stop offset="1" stop-color="#B4C2DA"/></linearGradient><linearGradient id="paint52_linear_1419_1910" x1="787.144" y1="315.401" x2="949.798" y2="331.467" gradientUnits="userSpaceOnUse"><stop stop-color="#0082F8"/><stop offset="1" stop-color="#1C40F2"/></linearGradient><linearGradient id="paint53_linear_1419_1910" x1="584.329" y1="296.101" x2="798.987" y2="320.724" gradientUnits="userSpaceOnUse"><stop stop-color="#0082F8"/><stop offset="1" stop-color="#1C40F2"/></linearGradient><linearGradient id="paint54_linear_1419_1910" x1="785.962" y1="319.952" x2="951.95" y2="317.495" gradientUnits="userSpaceOnUse"><stop offset=".005" stop-color="#D9E1EE"/><stop offset="1" stop-color="#AABAD6"/></linearGradient><linearGradient id="paint55_linear_1419_1910" x1="680.551" y1="386.076" x2="677.469" y2="177.85" gradientUnits="userSpaceOnUse"><stop stop-color="#AABAD6"/><stop offset="1" stop-color="#96AAC9"/></linearGradient><linearGradient id="paint56_linear_1419_1910" x1="677.198" y1="202.125" x2="679.575" y2="362.741" gradientUnits="userSpaceOnUse"><stop stop-color="#AABAD6"/><stop offset="1" stop-color="#96AAC9"/></linearGradient><linearGradient id="paint57_linear_1419_1910" x1="720.656" y1="224.215" x2="1580.06" y2="313.535" gradientUnits="userSpaceOnUse"><stop offset=".005" stop-color="#E4E9F2"/><stop offset="1" stop-color="#B4C2DA"/></linearGradient><linearGradient id="paint58_linear_1419_1910" x1="573.424" y1="818.256" x2="739.435" y2="818.256" gradientUnits="userSpaceOnUse"><stop offset=".005" stop-color="#D9E1EE"/><stop offset="1" stop-color="#AABAD6"/></linearGradient><linearGradient id="paint59_linear_1419_1910" x1="467.058" y1="882.812" x2="467.058" y2="674.559" gradientUnits="userSpaceOnUse"><stop stop-color="#AABAD6"/><stop offset="1" stop-color="#96AAC9"/></linearGradient><linearGradient id="paint60_linear_1419_1910" x1="466.452" y1="698.824" x2="466.452" y2="859.466" gradientUnits="userSpaceOnUse"><stop stop-color="#AABAD6"/><stop offset="1" stop-color="#96AAC9"/></linearGradient><linearGradient id="paint61_linear_1419_1910" x1="508.337" y1="731.803" x2="1366.33" y2="833.832" gradientUnits="userSpaceOnUse"><stop offset=".005" stop-color="#E4E9F2"/><stop offset="1" stop-color="#B4C2DA"/></linearGradient><linearGradient id="paint62_linear_1419_1910" x1="573.454" y1="693.097" x2="736.682" y2="709.551" gradientUnits="userSpaceOnUse"><stop stop-color="#0082F8"/><stop offset="1" stop-color="#1C40F2"/></linearGradient><linearGradient id="paint63_linear_1419_1910" x1="372.438" y1="668.764" x2="584.707" y2="692.402" gradientUnits="userSpaceOnUse"><stop stop-color="#0082F8"/><stop offset="1" stop-color="#1C40F2"/></linearGradient><linearGradient id="paint64_linear_1419_1910" x1="573.424" y1="695.549" x2="739.435" y2="695.549" gradientUnits="userSpaceOnUse"><stop offset=".005" stop-color="#D9E1EE"/><stop offset="1" stop-color="#AABAD6"/></linearGradient><linearGradient id="paint65_linear_1419_1910" x1="467.058" y1="760.108" x2="467.058" y2="551.852" gradientUnits="userSpaceOnUse"><stop stop-color="#AABAD6"/><stop offset="1" stop-color="#96AAC9"/></linearGradient><linearGradient id="paint66_linear_1419_1910" x1="466.452" y1="576.117" x2="466.452" y2="736.759" gradientUnits="userSpaceOnUse"><stop stop-color="#AABAD6"/><stop offset="1" stop-color="#96AAC9"/></linearGradient><linearGradient id="paint67_linear_1419_1910" x1="508.337" y1="609.095" x2="1366.33" y2="711.124" gradientUnits="userSpaceOnUse"><stop offset=".005" stop-color="#E4E9F2"/><stop offset="1" stop-color="#B4C2DA"/></linearGradient><linearGradient id="paint68_linear_1419_1910" x1="573.454" y1="569.048" x2="736.682" y2="585.501" gradientUnits="userSpaceOnUse"><stop stop-color="#0082F8"/><stop offset="1" stop-color="#1C40F2"/></linearGradient><linearGradient id="paint69_linear_1419_1910" x1="372.438" y1="544.715" x2="584.707" y2="568.353" gradientUnits="userSpaceOnUse"><stop stop-color="#0082F8"/><stop offset="1" stop-color="#1C40F2"/></linearGradient><linearGradient id="paint70_linear_1419_1910" x1="573.424" y1="574.045" x2="739.435" y2="574.045" gradientUnits="userSpaceOnUse"><stop offset=".005" stop-color="#D9E1EE"/><stop offset="1" stop-color="#AABAD6"/></linearGradient><linearGradient id="paint71_linear_1419_1910" x1="467.058" y1="638.596" x2="467.058" y2="430.34" gradientUnits="userSpaceOnUse"><stop stop-color="#AABAD6"/><stop offset="1" stop-color="#96AAC9"/></linearGradient><linearGradient id="paint72_linear_1419_1910" x1="466.452" y1="454.609" x2="466.452" y2="615.247" gradientUnits="userSpaceOnUse"><stop stop-color="#AABAD6"/><stop offset="1" stop-color="#96AAC9"/></linearGradient><linearGradient id="paint73_linear_1419_1910" x1="509.556" y1="477.347" x2="1367.54" y2="579.379" gradientUnits="userSpaceOnUse"><stop offset=".005" stop-color="#E4E9F2"/><stop offset="1" stop-color="#B4C2DA"/></linearGradient><linearGradient id="paint74_linear_1419_1910" x1="573.454" y1="449.227" x2="736.599" y2="465.664" gradientUnits="userSpaceOnUse"><stop stop-color="#18029D"/><stop offset="1" stop-color="#1C40F2"/></linearGradient><linearGradient id="paint75_linear_1419_1910" x1="372.438" y1="424.887" x2="584.707" y2="448.525" gradientUnits="userSpaceOnUse"><stop stop-color="#0082F8"/><stop offset="1" stop-color="#1C40F2"/></linearGradient><linearGradient id="paint76_linear_1419_1910" x1="573.424" y1="451.653" x2="739.435" y2="451.653" gradientUnits="userSpaceOnUse"><stop offset=".005" stop-color="#D9E1EE"/><stop offset="1" stop-color="#AABAD6"/></linearGradient><linearGradient id="paint77_linear_1419_1910" x1="467.058" y1="516.202" x2="467.058" y2="307.949" gradientUnits="userSpaceOnUse"><stop stop-color="#AABAD6"/><stop offset="1" stop-color="#96AAC9"/></linearGradient><linearGradient id="paint78_linear_1419_1910" x1="466.452" y1="332.214" x2="466.452" y2="492.856" gradientUnits="userSpaceOnUse"><stop stop-color="#AABAD6"/><stop offset="1" stop-color="#96AAC9"/></linearGradient><linearGradient id="paint79_linear_1419_1910" x1="509.556" y1="354.953" x2="1367.54" y2="456.985" gradientUnits="userSpaceOnUse"><stop offset=".005" stop-color="#E4E9F2"/><stop offset="1" stop-color="#B4C2DA"/></linearGradient><linearGradient id="paint80_linear_1419_1910" x1="561.478" y1="483.289" x2="464.1" y2="474.504" gradientUnits="userSpaceOnUse"><stop stop-color="#001DAC"/><stop offset="1" stop-color="#000F57"/></linearGradient><linearGradient id="paint81_linear_1419_1910" x1="589.226" y1="455.195" x2="397.778" y2="401.315" gradientUnits="userSpaceOnUse"><stop stop-color="#001DAC"/><stop offset="1" stop-color="#000F57"/></linearGradient><linearGradient id="paint82_linear_1419_1910" x1="518.058" y1="319.049" x2="612.796" y2="319.049" gradientUnits="userSpaceOnUse"><stop stop-color="#1C40F2"/><stop offset=".983" stop-color="#03F8FB"/></linearGradient><linearGradient id="paint83_linear_1419_1910" x1="584.171" y1="295.457" x2="614.539" y2="295.457" gradientUnits="userSpaceOnUse"><stop stop-color="#1C40F2"/><stop offset=".983" stop-color="#03F8FB"/></linearGradient><linearGradient id="paint84_linear_1419_1910" x1="945.825" y1="686.165" x2="1021.81" y2="686.165" gradientUnits="userSpaceOnUse"><stop stop-color="#1C40F2"/><stop offset=".983" stop-color="#03F8FB"/></linearGradient><linearGradient id="paint85_linear_1419_1910" x1="873.058" y1="688.386" x2="974.515" y2="688.386" gradientUnits="userSpaceOnUse"><stop stop-color="#1C40F2"/><stop offset=".983" stop-color="#03F8FB"/></linearGradient><linearGradient id="paint86_linear_1419_1910" x1="913.646" y1="754.948" x2="889.091" y2="653.661" gradientUnits="userSpaceOnUse"><stop stop-color="#1C40F2"/><stop offset=".983" stop-color="#03F8FB"/></linearGradient></defs></svg>