<svg width="477" height="476" fill="none" xmlns="http://www.w3.org/2000/svg"><g clip-path="url(#clip0_2_2)"><path d="M348.329 75.474h-45.118a8.291 8.291 0 01-7.087-14.573 8.289 8.289 0 017.087-1.533h44.644a8.29 8.29 0 010 16.58l.474-.474zm0 129.789h-45.118a8.289 8.289 0 110-16.579h44.644a8.293 8.293 0 018.29 8.29 8.29 8.29 0 01-8.29 8.289h.474z" fill="#fff"/><path d="M65.54 90.04a8.29 8.29 0 01-8.29-8.29V53.684a8.29 8.29 0 0116.579 0V81.75a8.408 8.408 0 01-8.29 8.29zm35.171 0a8.29 8.29 0 01-8.29-8.29V53.684a8.29 8.29 0 1116.579 0V81.75a8.281 8.281 0 01-2.428 5.862 8.288 8.288 0 01-5.861 2.428zm35.171 0a8.408 8.408 0 01-8.29-8.29V53.684a8.288 8.288 0 018.29-8.29 8.288 8.288 0 018.289 8.29V81.75a8.288 8.288 0 01-8.289 8.29zm35.289 0a8.288 8.288 0 01-8.289-8.29V53.684a8.288 8.288 0 018.289-8.29 8.29 8.29 0 018.29 8.29V81.75a8.41 8.41 0 01-8.29 8.29zM65.54 219.237a8.288 8.288 0 01-8.29-8.29V183a8.29 8.29 0 0114.151-5.862A8.29 8.29 0 0173.829 183v27.947a8.409 8.409 0 01-8.29 8.29zm35.171 0a8.288 8.288 0 01-8.29-8.29V183A8.29 8.29 0 11109 183v27.947a8.285 8.285 0 01-5.117 7.659 8.302 8.302 0 01-3.172.631zm35.171 0a8.41 8.41 0 01-8.29-8.29V183a8.289 8.289 0 1116.579 0v27.947a8.289 8.289 0 01-8.289 8.29zm35.289 0a8.286 8.286 0 01-8.289-8.29V183a8.289 8.289 0 1116.579 0v27.947a8.41 8.41 0 01-8.29 8.29zM65.54 348.434a8.288 8.288 0 01-8.29-8.289v-27.948a8.288 8.288 0 0116.579 0v27.948a8.288 8.288 0 01-8.29 8.289zm35.171 0a8.288 8.288 0 01-8.29-8.289v-27.948a8.288 8.288 0 0114.151-5.861 8.286 8.286 0 012.428 5.861v27.948a8.284 8.284 0 01-5.117 7.658 8.284 8.284 0 01-3.172.631zm35.171 0a8.289 8.289 0 01-8.29-8.289v-27.948a8.286 8.286 0 018.29-8.289 8.286 8.286 0 018.289 8.289v27.948a8.286 8.286 0 01-8.289 8.289zm35.289 0a8.286 8.286 0 01-8.289-8.289v-27.948a8.286 8.286 0 018.289-8.289 8.289 8.289 0 018.29 8.289v27.948a8.29 8.29 0 01-8.29 8.289z" fill="#FF775C"/><path d="M348.329 122.368h16.579v19.303h-16.579v-19.303zm-285.987 0h16.58v19.303h-16.58v-19.303zm0 129.79h16.58v19.303h-16.58v-19.303zm337.737-129.79H27.171a8.288 8.288 0 01-8.29-8.289v-93.79A8.29 8.29 0 0127.172 12H400.08a8.291 8.291 0 018.289 8.29v93.789a8.29 8.29 0 01-8.289 8.289zM35.461 105.789H391.79v-77.21H35.46v77.21z" fill="#fff"/><path d="M382.316 264.118a35.53 35.53 0 00-25.105 10.421 37.055 37.055 0 00-9.237 15.75 35.521 35.521 0 005.998 31.027 35.522 35.522 0 0028.344 13.973c3.041.031 6.07-.368 9-1.184a35.518 35.518 0 0015.868-8.881 35.526 35.526 0 00-24.868-61.106zm9 53.171a20.595 20.595 0 01-9 2.25 20.011 20.011 0 01-16.752-31.293 20.013 20.013 0 1125.752 29.043z" fill="#FF775C"/><path d="M443.658 238.421a86.577 86.577 0 00-35.526-21.553 95.913 95.913 0 00-16.579-3.552c-3.79 0-7.106-.592-10.185-.592A87.39 87.39 0 00320.737 237l-.829.711a90.92 90.92 0 00-11.842 15.513 93.554 93.554 0 00-8.645 19.302 97.543 97.543 0 00-3.789 16.461 94.733 94.733 0 0015.986 70.46L381.605 462l70.224-101.368a98.887 98.887 0 00-8.171-122.211zm-11.132 108.355l-50.921 73.54-51.276-74.013A72.718 72.718 0 01319.079 291a66.833 66.833 0 014.145-15.039 57.663 57.663 0 0110.184-17.408 39.604 39.604 0 012.96-3.316A61.935 61.935 0 01352 243.395a62.987 62.987 0 0129.605-7.342c3.052.027 6.099.265 9.119.71a65.764 65.764 0 0114.921 4.026 62.182 62.182 0 0121.197 14.093 74.01 74.01 0 015.684 91.894z" fill="#FF775C"/><path d="M312.329 381.947l-6.75-9.829-4.5-6.513H35.461v-77.566h247.263a13.007 13.007 0 010-2.013 99.58 99.58 0 013.197-14.565H27.171a8.291 8.291 0 00-8.29 8.289v93.908a8.288 8.288 0 008.29 8.289H312.33zm-8.289-146.368H35.46v-77.211h356.33v41.211h.592a103.475 103.475 0 0115.986 3.316v-52.816a8.292 8.292 0 00-8.289-8.29H27.171a8.292 8.292 0 00-8.29 8.29v93.789a8.29 8.29 0 008.29 8.29h266.447c1.066-2.132 2.25-4.382 3.435-6.395a95.723 95.723 0 016.987-10.184zm29.368 176.684H78.921v-30.316H62.342v38.606a8.291 8.291 0 008.29 8.289h274.263l-6.158-8.171-5.329-8.408z" fill="#fff"/></g><defs><clipPath id="clip0_2_2"><path fill="#fff" transform="translate(19 12)" d="M0 0h450v450H0z"/></clipPath></defs></svg>